<svg id="eifc865r5wb1" xmlns="http://www.w3.org/2000/svg" xmlns:xlink="http://www.w3.org/1999/xlink" viewBox="0 0 200 200" shape-rendering="geometricPrecision" text-rendering="geometricPrecision"><style><![CDATA[#eifc865r5wb85_to {animation: eifc865r5wb85_to__to 3000ms linear infinite normal forwards}@keyframes eifc865r5wb85_to__to { 0% {transform: translate(0px,0px)} 50% {transform: translate(-0.498286px,-3.693122px)} 100% {transform: translate(-0.498286px,-0.044930px)} }#eifc865r5wb89_to {animation: eifc865r5wb89_to__to 3000ms linear infinite normal forwards}@keyframes eifc865r5wb89_to__to { 0% {transform: translate(0px,0px)} 50% {transform: translate(0.115811px,-3.693122px)} 100% {transform: translate(1.486622px,-0.044930px)} }]]></style><defs><linearGradient id="eifc865r5wb14-fill" x1="100" y1="171" x2="100" y2="131" spreadMethod="pad" gradientUnits="userSpaceOnUse"><stop id="eifc865r5wb14-fill-0" offset="0%" stop-color="rgba(231,193,189,0.8)"/><stop id="eifc865r5wb14-fill-1" offset="70%" stop-color="rgb(200,131,124)"/></linearGradient><linearGradient id="eifc865r5wb36-fill" x1="100" y1="142" x2="100" y2="139" spreadMethod="pad" gradientUnits="userSpaceOnUse"><stop id="eifc865r5wb36-fill-0" offset="10%" stop-color="rgb(238,210,207)"/><stop id="eifc865r5wb36-fill-1" offset="100%" stop-color="rgb(231,193,189)"/></linearGradient><radialGradient id="eifc865r5wb41-fill" cx="73.177150" cy="83.900363" r="15.179000" spreadMethod="pad" gradientUnits="userSpaceOnUse"><stop id="eifc865r5wb41-fill-0" offset="0%" stop-color="rgb(255,255,255)"/><stop id="eifc865r5wb41-fill-1" offset="54.400000%" stop-color="rgb(253,254,254)"/><stop id="eifc865r5wb41-fill-2" offset="74%" stop-color="rgb(246,248,249)"/><stop id="eifc865r5wb41-fill-3" offset="87.900000%" stop-color="rgb(234,239,242)"/><stop id="eifc865r5wb41-fill-4" offset="99.200000%" stop-color="rgb(217,227,232)"/><stop id="eifc865r5wb41-fill-5" offset="100%" stop-color="rgb(216,226,231)"/></radialGradient><radialGradient id="eifc865r5wb46-fill" cx="73.924608" cy="84.019911" r="59.751000" spreadMethod="pad" gradientUnits="userSpaceOnUse"><stop id="eifc865r5wb46-fill-0" offset="0%" stop-color="rgb(255,255,255)"/><stop id="eifc865r5wb46-fill-1" offset="100%" stop-color="rgba(255,255,255,0)"/></radialGradient><radialGradient id="eifc865r5wb47-fill" cx="73.925161" cy="84.026609" r="59.745000" spreadMethod="pad" gradientUnits="userSpaceOnUse"><stop id="eifc865r5wb47-fill-0" offset="0%" stop-color="rgb(255,255,255)"/><stop id="eifc865r5wb47-fill-1" offset="100%" stop-color="rgba(255,255,255,0)"/></radialGradient><linearGradient id="eifc865r5wb50-fill" x1="70.670000" y1="88.268000" x2="71.606000" y2="87.152000" spreadMethod="pad" gradientUnits="userSpaceOnUse"><stop id="eifc865r5wb50-fill-0" offset="0%" stop-color="rgb(255,255,255)"/><stop id="eifc865r5wb50-fill-1" offset="100%" stop-color="rgba(255,255,255,0)"/></linearGradient><linearGradient id="eifc865r5wb51-fill" x1="75.212000" y1="82.296000" x2="74.463000" y2="83.189000" spreadMethod="pad" gradientUnits="userSpaceOnUse"><stop id="eifc865r5wb51-fill-0" offset="0%" stop-color="rgb(255,255,255)"/><stop id="eifc865r5wb51-fill-1" offset="100%" stop-color="rgba(255,255,255,0)"/></linearGradient><linearGradient id="eifc865r5wb52-fill" x1="77.636000" y1="79.822000" x2="75.910000" y2="81.879000" spreadMethod="pad" gradientUnits="userSpaceOnUse"><stop id="eifc865r5wb52-fill-0" offset="0%" stop-color="rgb(255,255,255)"/><stop id="eifc865r5wb52-fill-1" offset="100%" stop-color="rgba(255,255,255,0)"/></linearGradient><radialGradient id="eifc865r5wb55-fill" cx="77.223073" cy="80.473916" r="16.914000" spreadMethod="pad" gradientUnits="userSpaceOnUse"><stop id="eifc865r5wb55-fill-0" offset="0%" stop-color="rgb(231,193,189)"/><stop id="eifc865r5wb55-fill-1" offset="70%" stop-color="rgba(231,193,189,0.3)"/><stop id="eifc865r5wb55-fill-2" offset="100%" stop-color="rgba(246,228,226,0)"/></radialGradient><radialGradient id="eifc865r5wb56-fill" cx="70.461344" cy="110.591272" r="29.510000" spreadMethod="pad" gradientUnits="userSpaceOnUse"><stop id="eifc865r5wb56-fill-0" offset="95%" stop-color="rgba(0,0,0,0)"/><stop id="eifc865r5wb56-fill-1" offset="100%" stop-color="rgba(0,0,0,0.2)"/></radialGradient><radialGradient id="eifc865r5wb62-fill" cx="126.423761" cy="83.901496" r="15.179000" spreadMethod="pad" gradientUnits="userSpaceOnUse"><stop id="eifc865r5wb62-fill-0" offset="0%" stop-color="rgb(255,255,255)"/><stop id="eifc865r5wb62-fill-1" offset="54.400000%" stop-color="rgb(253,254,254)"/><stop id="eifc865r5wb62-fill-2" offset="74%" stop-color="rgb(246,248,249)"/><stop id="eifc865r5wb62-fill-3" offset="87.900000%" stop-color="rgb(234,239,242)"/><stop id="eifc865r5wb62-fill-4" offset="99.200000%" stop-color="rgb(217,227,232)"/><stop id="eifc865r5wb62-fill-5" offset="100%" stop-color="rgb(216,226,231)"/></radialGradient><radialGradient id="eifc865r5wb67-fill" cx="125.924081" cy="84.019886" r="59.752000" spreadMethod="pad" gradientUnits="userSpaceOnUse"><stop id="eifc865r5wb67-fill-0" offset="0%" stop-color="rgb(255,255,255)"/><stop id="eifc865r5wb67-fill-1" offset="100%" stop-color="rgba(255,255,255,0)"/></radialGradient><radialGradient id="eifc865r5wb68-fill" cx="125.924851" cy="84.026408" r="59.747000" spreadMethod="pad" gradientUnits="userSpaceOnUse"><stop id="eifc865r5wb68-fill-0" offset="0%" stop-color="rgb(255,255,255)"/><stop id="eifc865r5wb68-fill-1" offset="100%" stop-color="rgba(255,255,255,0)"/></radialGradient><linearGradient id="eifc865r5wb71-fill" x1="122.670000" y1="88.268000" x2="123.606000" y2="87.152000" spreadMethod="pad" gradientUnits="userSpaceOnUse"><stop id="eifc865r5wb71-fill-0" offset="0%" stop-color="rgb(255,255,255)"/><stop id="eifc865r5wb71-fill-1" offset="100%" stop-color="rgba(255,255,255,0)"/></linearGradient><linearGradient id="eifc865r5wb72-fill" x1="127.212000" y1="82.296000" x2="126.463000" y2="83.189000" spreadMethod="pad" gradientUnits="userSpaceOnUse"><stop id="eifc865r5wb72-fill-0" offset="0%" stop-color="rgb(255,255,255)"/><stop id="eifc865r5wb72-fill-1" offset="100%" stop-color="rgba(255,255,255,0)"/></linearGradient><linearGradient id="eifc865r5wb73-fill" x1="129.636000" y1="79.822000" x2="127.910000" y2="81.879000" spreadMethod="pad" gradientUnits="userSpaceOnUse"><stop id="eifc865r5wb73-fill-0" offset="0%" stop-color="rgb(255,255,255)"/><stop id="eifc865r5wb73-fill-1" offset="100%" stop-color="rgba(255,255,255,0)"/></linearGradient><radialGradient id="eifc865r5wb76-fill" cx="122.377134" cy="80.474013" r="16.914000" spreadMethod="pad" gradientUnits="userSpaceOnUse"><stop id="eifc865r5wb76-fill-0" offset="0%" stop-color="rgb(231,193,189)"/><stop id="eifc865r5wb76-fill-1" offset="70%" stop-color="rgba(231,193,189,0.3)"/><stop id="eifc865r5wb76-fill-2" offset="100%" stop-color="rgba(246,228,226,0)"/></radialGradient><radialGradient id="eifc865r5wb77-fill" cx="129.138652" cy="110.591272" r="29.510000" spreadMethod="pad" gradientUnits="userSpaceOnUse"><stop id="eifc865r5wb77-fill-0" offset="95%" stop-color="rgba(0,0,0,0)"/><stop id="eifc865r5wb77-fill-1" offset="100%" stop-color="rgba(0,0,0,0.2)"/></radialGradient><radialGradient id="eifc865r5wb81-fill" cx="100" cy="54" r="37" spreadMethod="pad" gradientUnits="userSpaceOnUse"><stop id="eifc865r5wb81-fill-0" offset="0%" stop-color="rgba(255,255,255,0.5)"/><stop id="eifc865r5wb81-fill-1" offset="90%" stop-color="rgba(246,228,226,0)"/></radialGradient></defs><g id="eifc865r5wb2"><g id="eifc865r5wb3"/><g id="eifc865r5wb4"><g id="eifc865r5wb5"><g id="eifc865r5wb6"><g id="eifc865r5wb7"/></g><g id="eifc865r5wb8"><path id="eifc865r5wb9" d="M195.417000,199.778000C193.221000,195.032000,187.222000,187.999000,180.557000,186.056000C172.318000,183.653000,153.720000,180.748000,146.824000,179.133000C141.296000,177.837000,130.162000,167.839000,126.260000,164.483000C125.560000,163.883000,124.987000,162.644000,124.973000,161.723000C124.834000,150.859000,129.168000,121.999000,129.168000,121.999000L100,121.999000L70.833000,121.999000C70.833000,121.999000,75.167000,150.858000,75.026000,161.723000C75.015000,162.644000,74.439000,163.883000,73.741000,164.483000C69.839000,167.839000,58.705000,177.837000,53.177000,179.133000C46.280000,180.748000,27.682000,183.752000,19.444000,186.155000C12.777000,188.097000,6.780000,195.031000,4.584000,199.777000C0.876000,207.785000,0,222.277000,0,234.777000L100,234.777000L200,234.777000C200,222.278000,199.123000,207.786000,195.417000,199.778000Z" fill="rgb(246,228,226)" stroke="none" stroke-width="1"/><path id="eifc865r5wb10" d="M159.156000,184.058000C183.498000,187.600000,193.742000,192.766000,196.950000,234.779000L200,234.779000C200,222.279000,199.123000,207.787000,195.417000,199.779000C193.221000,195.033000,187.222000,188,180.557000,186.057000C172.318000,183.654000,153.720000,180.749000,146.824000,179.134000C141.296000,177.838000,128.582000,167.065000,125.181000,162.784000C128.541000,167.488000,137.972000,178.389000,146.235000,181.244000C150.188000,182.610000,153.480000,183.232000,159.156000,184.058000ZM53.766000,181.244000C62.029000,178.390000,71.459000,167.488000,74.820000,162.784000C71.420000,167.064000,58.706000,177.838000,53.177000,179.134000C46.281000,180.749000,27.683000,183.753000,19.444000,186.156000C12.779000,188.098000,6.780000,195.032000,4.584000,199.778000C0.878000,207.786000,0.001000,222.278000,0.001000,234.778000L3.051000,234.778000C6.239000,193.034000,16.526000,187.595000,40.845000,184.057000C46.520000,183.232000,49.813000,182.610000,53.766000,181.244000Z" fill="rgb(255,255,255)" stroke="none" stroke-width="1"/><path id="eifc865r5wb11" d="M95.646000,197.620000C95.646000,197.620000,90.572000,196.011000,88.563000,195.241000C78.114000,191.232000,44.168000,188.634000,44.168000,188.634000C44.168000,188.634000,79.922000,190.053000,87.812000,191.413000C87.354000,186.646000,84.795000,171.409000,84.795000,171.409000C84.795000,171.409000,89.944000,188.224000,91.204000,192.466000C91.878000,194.734000,95.646000,197.620000,95.646000,197.620000ZM106.445000,196.278000C106.356000,196.351000,106.254000,196.446000,106.143000,196.546000C106.256000,196.461000,106.358000,196.372000,106.445000,196.278000ZM95.646000,197.620000C95.646000,197.620000,98.539000,200.612000,99.993000,200.650000C101.903000,200.701000,104.821000,197.751000,106.144000,196.546000C104.879000,197.503000,101.985000,197.937000,100.834000,197.982000C99.504000,198.033000,95.646000,197.620000,95.646000,197.620000ZM116.664000,190.101000C115.119000,190.349000,112.278000,190.890000,112.278000,190.890000L114.565000,176C113.919000,179.071000,110.091000,192.211000,106.445000,196.278000C108.355000,194.662000,112.603000,193.887000,114.769000,193.574000C125.005000,192.090000,125.001000,192.091000,155.831000,188.634000C155.831000,188.634000,126.760000,188.479000,116.664000,190.101000Z" fill="rgb(231,193,189)" stroke="none" stroke-width="1"/><path id="eifc865r5wb12" d="M195.417000,199.778000C193.221000,195.032000,187.222000,187.999000,180.557000,186.056000C172.318000,183.653000,153.720000,180.748000,146.824000,179.133000C141.296000,177.837000,130.162000,167.839000,126.260000,164.483000C125.560000,163.883000,124.987000,162.644000,124.973000,161.723000C124.834000,150.859000,129.168000,121.999000,129.168000,121.999000L100,121.999000L70.833000,121.999000C70.833000,121.999000,75.167000,150.858000,75.026000,161.723000C75.015000,162.644000,74.439000,163.883000,73.741000,164.483000C69.839000,167.839000,58.705000,177.837000,53.177000,179.133000C46.280000,180.748000,27.682000,183.752000,19.444000,186.155000C12.777000,188.097000,6.780000,195.031000,4.584000,199.777000C0.876000,207.785000,0,222.277000,0,234.777000L100,234.777000L200,234.777000C200,222.278000,199.123000,207.786000,195.417000,199.778000Z" fill="none" stroke="rgb(200,131,124)" stroke-width="1.500000"/></g><g id="eifc865r5wb13"><path id="eifc865r5wb14" d="M100.021000,171.866000C108.204000,171.866000,116.892000,166.923000,124.220000,161.191000C124.219000,154.489000,125.671000,142.086000,126.872000,132.986000C111.490000,130.739000,88.466000,130.707000,73.106000,132.834000C74.290000,141.794000,75.731000,154.040000,75.777000,160.854000C83.119000,166.767000,91.822000,171.866000,100.021000,171.866000Z" fill="url(#eifc865r5wb14-fill)" stroke="none" stroke-width="1"/></g><g id="eifc865r5wb15"><path id="eifc865r5wb16" d="M111.806000,235.888000C92.671000,235.888000,70.351000,235.814000,43.573000,235.659000L19.894000,235.531000C5.596000,235.453000,4.753000,235.437000,3.007000,235.437000L-1.892000,235.444000C-6.463000,193.569000,12.518000,182.574000,41.870000,178.736000C49.659000,177.639000,57.319000,175.639000,63.329000,171.764000C79.656000,194.007000,128.140000,189.326000,136.432000,171.135000C137.822000,171.665000,138.971000,172.350000,140.409000,172.869000C145.075000,176.302000,151.481000,178.705000,158.037000,179.068000C184.045000,180.509000,202.456000,192.064000,202.094000,233.708000C202.097000,233.873000,202.098000,234.883000,202.081000,235.198000C189.568000,235.198000,184.875000,235.319000,175.047000,235.460000C161.716000,235.650000,145.124000,235.887000,111.818000,235.887000C111.813000,235.888000,111.810000,235.888000,111.806000,235.888000Z" fill="rgb(56,110,119)" stroke="none" stroke-width="1"/><path id="eifc865r5wb17" d="M201.055000,234.640000C200.645000,227.255000,196.991000,206.582000,190.695000,197.099000C178.213000,178.294000,148.435000,184.893000,141.563000,177.406000C136.577000,187.565000,116.588000,194.001000,109.969000,194.946000C129.150000,188.586000,137.206000,183.987000,140.389000,173.076000C146.794000,181.406000,181.463000,175.047000,195.106000,197.407000C199.101000,203.954000,202.900000,224.793000,201.055000,234.640000ZM55.811000,177.628000C57.168000,177.313000,57.845000,176.379000,59.192000,176.014000L57.766000,174.123000C48.717000,181.175000,14.857000,176.768000,3.247000,198.159000C-0.412000,204.900000,-2.880000,220.947000,-0.945000,234.598000C-0.408000,226.214000,-0.146000,208.284000,6.150000,198.800000C17.474000,181.740000,38.124000,186.247000,53.769000,179.025000C60.752000,187.625000,71.657000,191.853000,82.753000,193.602000C68.832000,189.971000,60.850000,183.840000,55.811000,177.628000Z" fill="rgb(77,126,134)" stroke="none" stroke-width="1"/><path id="eifc865r5wb18" d="M135.310000,173.244000C129.778000,184.758000,87.960000,198.167000,64.380000,174.123000C62.914000,174.745000,58.528000,176.235000,58.528000,176.235000C75.704000,199.621000,126.039000,199.769000,139.437000,176.121000C139.378000,176.098000,136.672000,173.936000,135.310000,173.244000Z" fill="rgb(38,94,104)" stroke="none" stroke-width="1"/><path id="eifc865r5wb19" d="M136.380000,171.002000C126.967000,189.824000,77.983000,192.487000,63.368000,171.634000C58.031000,173.212000,52.899000,176.575000,47.732000,177.416000C16.812000,182.021000,-6.046000,184.335000,-2,235.552000C7.940000,235.552000,-8.611000,235.487000,43.571000,235.767000C167.161000,236.477000,163.133000,235.306000,202.177000,235.306000C202.206000,235.166000,202.192000,233.854000,202.198000,233.710000C204.294000,177.274000,171.346000,180.606000,149.078000,176.715000C145.934000,175.997000,143.012000,173.942000,140.443000,172.770000C139.024000,172.121000,137.818000,171.538000,136.380000,171.002000ZM63.014000,172.265000C75.988000,195.657000,127.233000,190.964000,137.127000,172.366000C138.327000,172.870000,138.634000,173.070000,140.025000,173.563000C129.777000,195.052000,79.083000,201.900000,58.348000,174.726000C58.494000,174.685000,61.552000,172.813000,63.014000,172.265000ZM-0.845000,234.778000C-3.266000,208.347000,0.952000,186.735000,31.935000,181.433000C42.211000,179.537000,48.492000,179.471000,57.319000,175.639000C74.082000,203.044000,129.417000,198.797000,140.917000,174.334000C142.569000,175.743000,145.145000,177.364000,148.322000,178.119000C166.420000,182.418000,203.160000,177.225000,201.220000,234.777000C147.163000,234.075000,102.355000,232.433000,-0.845000,234.778000Z" fill="rgb(12,64,73)" stroke="none" stroke-width="1"/></g><g id="eifc865r5wb20"><g id="eifc865r5wb21"><g id="eifc865r5wb22"><path id="eifc865r5wb23" d="M45.671000,84.344000C44.186000,81.882000,39.344000,75.145000,35.640000,76.090000C32.628000,76.862000,32.667000,81.061000,32.434000,83.545000C32.094000,87.189000,31.970000,93.537000,32.959000,96.113000C33.910000,98.586000,36.919000,103.365000,38.787000,105.188000C41.086000,107.423000,44.757000,114.546000,45.209000,115.285000C45.920000,116.453000,47.346000,118.125000,49.534000,117.993000C52.605000,117.808000,55.258000,114.906000,55.499000,113.508000C56.800000,105.918000,49.536000,90.750000,45.671000,84.344000Z" fill="rgb(246,228,226)" stroke="rgb(200,131,124)" stroke-width="1.500000"/><path id="eifc865r5wb24" d="M44.200000,99.341000C44.057000,98.778000,44.207000,97.828000,44.354000,96.912000C44.487000,96.077000,44.612000,95.288000,44.536000,94.730000C44.247000,92.640000,42.621000,88.670000,41.560000,86.518000C40.337000,84.042000,38.361000,80.923000,35.881000,80.119000C34.857000,79.786000,34.182000,80.184000,33.792000,80.587000C33.504000,80.883000,33.439000,81.232000,33.533000,81.274000C33.628000,81.315000,33.840000,81.026000,34.150000,80.755000C34.404000,80.533000,33.642000,80.715000,34.150000,80.755000C33.945000,81.795000,33.285000,87.057000,33.740000,90.898000C34.098000,93.920000,34.790000,96.177000,35.003000,96.515000C35.034000,96.871000,35.086000,97.220000,35.163000,97.558000C36.165000,101.968000,42.681000,107.735000,44.197000,109.378000C44.477000,109.681000,44.771000,109.861000,44.843000,109.787000C44.915000,109.713000,44.742000,109.414000,44.464000,109.109000C42.966000,107.477000,36.493000,101.728000,35.525000,97.474000C34.498000,92.960000,39.437000,86.267000,40.224000,84.851000C40.625000,85.516000,40.966000,86.154000,41.228000,86.686000C41.435000,87.103000,41.662000,87.592000,41.898000,88.121000C41.435000,88.859000,36.780000,94.248000,37.964000,98.562000C38.402000,100.153000,41.786000,102.204000,43.095000,102.765000C43.815000,103.075000,44.085000,103.537000,44.399000,104.071000C44.763000,104.695000,44.432000,106.300000,45.629000,106.810000C45.873000,106.914000,46.093000,106.956000,46.288000,106.956000C46.626000,106.956000,46.882000,106.826000,47.071000,106.672000C47.091000,106.943000,47.090000,107.291000,47.080000,107.613000C47.068000,108.031000,47.127000,108.222000,47.228000,108.230000C47.331000,108.239000,47.438000,108.056000,47.451000,107.643000C47.468000,107.133000,47.465000,106.502000,47.374000,106.199000C47.105000,105.310000,46.286000,104.305000,45.417000,103.242000C44.563000,102.197000,44.422000,100.213000,44.200000,99.341000ZM34.969000,95.432000C32.621000,88.509000,36.252000,82.203000,36.779000,81.253000C37.791000,81.652000,39.341000,83.446000,40,84.488000C39.520000,85.321000,35.067000,90.775000,34.969000,95.432000ZM45.772000,106.464000C44.688000,106.002000,45.066000,104.480000,44.716000,103.880000C44.398000,103.338000,44.070000,102.778000,43.237000,102.420000C43.057000,102.342000,42.858000,102.224000,42.654000,102.088000C39.972000,96.013000,42.947000,93.358000,43.693000,92.815000C43.922000,93.557000,44.092000,94.238000,44.169000,94.785000C44.237000,95.285000,44.110000,96.083000,43.988000,96.853000C43.835000,97.808000,43.678000,98.797000,43.841000,99.437000C44.085000,100.390000,44.252000,102.407000,45.132000,103.485000C45.913000,104.441000,46.715000,105.427000,46.989000,106.231000C46.871000,106.391000,46.500000,106.775000,45.772000,106.464000Z" fill="rgb(200,131,124)" stroke="none" stroke-width="1"/></g></g><g id="eifc865r5wb25"><g id="eifc865r5wb26"><path id="eifc865r5wb27" d="M154.066000,84.344000C155.552000,81.882000,160.394000,75.145000,164.097000,76.090000C167.109000,76.862000,167.070000,81.061000,167.304000,83.545000C167.644000,87.189000,167.767000,93.537000,166.779000,96.113000C165.828000,98.586000,162.818000,103.365000,160.951000,105.188000C158.652000,107.423000,154.980000,114.546000,154.529000,115.285000C153.818000,116.453000,152.392000,118.125000,150.203000,117.993000C147.133000,117.808000,144.480000,114.906000,144.238000,113.508000C142.938000,105.918000,150.203000,90.750000,154.066000,84.344000Z" fill="rgb(246,228,226)" stroke="rgb(200,131,124)" stroke-width="1.500000"/><path id="eifc865r5wb28" d="M154.322000,103.243000C153.453000,104.306000,152.634000,105.311000,152.365000,106.200000C152.273000,106.504000,152.271000,107.135000,152.287000,107.644000C152.301000,108.057000,152.408000,108.240000,152.512000,108.231000C152.614000,108.223000,152.672000,108.032000,152.660000,107.614000C152.650000,107.292000,152.648000,106.944000,152.668000,106.673000C152.857000,106.827000,153.113000,106.957000,153.451000,106.957000C153.646000,106.957000,153.867000,106.915000,154.111000,106.811000C155.306000,106.300000,154.976000,104.695000,155.340000,104.072000C155.654000,103.538000,155.924000,103.075000,156.645000,102.766000C157.954000,102.205000,161.338000,100.155000,161.776000,98.563000C162.960000,94.249000,158.305000,88.859000,157.842000,88.122000C158.076000,87.593000,158.305000,87.104000,158.510000,86.687000C158.774000,86.155000,159.114000,85.516000,159.516000,84.852000C160.303000,86.268000,165.241000,92.960000,164.215000,97.475000C163.246000,101.729000,156.774000,107.478000,155.276000,109.110000C154.997000,109.415000,154.823000,109.714000,154.895000,109.788000C154.969000,109.862000,155.262000,109.682000,155.541000,109.379000C157.057000,107.736000,163.572000,101.969000,164.574000,97.559000C164.652000,97.221000,164.705000,96.872000,164.736000,96.516000C164.947000,96.179000,165.640000,93.922000,165.998000,90.899000C166.453000,87.058000,165.793000,81.796000,165.588000,80.756000C166.096000,80.716000,165.334000,80.534000,165.588000,80.756000C165.899000,81.027000,166.111000,81.316000,166.205000,81.275000C166.299000,81.233000,166.234000,80.885000,165.947000,80.588000C165.556000,80.185000,164.881000,79.787000,163.857000,80.120000C161.377000,80.924000,159.400000,84.043000,158.177000,86.519000C157.116000,88.671000,155.491000,92.641000,155.202000,94.731000C155.126000,95.289000,155.251000,96.078000,155.384000,96.913000C155.530000,97.829000,155.681000,98.779000,155.538000,99.342000C155.316000,100.213000,155.176000,102.197000,154.322000,103.243000ZM159.738000,84.488000C160.398000,83.446000,161.947000,81.653000,162.959000,81.253000C163.486000,82.203000,167.117000,88.509000,164.770000,95.432000C164.672000,90.775000,160.219000,85.321000,159.738000,84.488000ZM152.750000,106.229000C153.023000,105.425000,153.826000,104.439000,154.607000,103.483000C155.486000,102.405000,155.654000,100.388000,155.898000,99.435000C156.060000,98.795000,155.904000,97.806000,155.752000,96.851000C155.629000,96.081000,155.502000,95.283000,155.570000,94.783000C155.646000,94.236000,155.816000,93.555000,156.045000,92.813000C156.791000,93.356000,159.766000,96.012000,157.084000,102.086000C156.881000,102.222000,156.682000,102.340000,156.500000,102.418000C155.668000,102.776000,155.340000,103.336000,155.021000,103.878000C154.671000,104.478000,155.050000,106.001000,153.966000,106.462000C153.238000,106.775000,152.867000,106.391000,152.750000,106.229000Z" fill="rgb(200,131,124)" stroke="none" stroke-width="1"/></g></g><g id="eifc865r5wb29"><g id="eifc865r5wb30"><path id="eifc865r5wb31" d="M158.785000,78.006000L158.780000,78.006000C158.770000,78.052000,146.583000,118.276000,142.901000,130.424000C142.186000,132.782000,140.970000,134.975000,139.345000,136.810000C132.970000,144.004000,115.577000,161.867000,100.021000,161.867000C84.172000,161.867000,66.430000,142.822000,60.313000,135.653000C58.871000,133.965000,57.806000,132.020000,57.141000,129.888000C53.534000,118.337000,41.015000,78.240000,41.004000,78.194000L41.003000,78.194000C39.705000,73.202000,39.009000,67.963000,39.001000,62.560000C38.949000,28.536000,66.155000,0.920000,99.773000,0.867000C133.394000,0.814000,160.686000,28.343000,160.737000,62.366000C160.746000,67.769000,160.068000,73.010000,158.785000,78.006000Z" fill="rgb(246,228,226)" stroke="none" stroke-width="1"/><path id="eifc865r5wb32" d="M132.168000,10.260000C146.478000,21.395000,155.839000,39.717000,155.867000,60.468000C155.876000,65.872000,155.252000,71.113000,154.071000,76.109000L154.067000,76.109000C154.058000,76.155000,142.844000,116.379000,139.459000,128.526000C138.801000,130.884000,137.683000,133.077000,136.188000,134.911000C130.323000,142.106000,114.322000,159.970000,100.010000,159.970000C85.428000,159.970000,69.106000,140.923000,63.479000,133.755000C62.152000,132.066000,61.173000,130.122000,60.561000,127.991000C57.243000,116.439000,45.725000,76.342000,45.715000,76.296000L45.714000,76.296000C44.520000,71.304000,43.880000,66.065000,43.872000,60.662000C43.843000,39.835000,53.220000,21.423000,67.585000,10.250000C50.392000,21.159000,38.967000,40.508000,39.001000,62.560000C39.009000,67.963000,39.705000,73.203000,41.003000,78.194000L41.004000,78.194000C41.014000,78.240000,53.534000,118.337000,57.141000,129.888000C57.807000,132.020000,58.871000,133.964000,60.313000,135.653000C66.429000,142.822000,84.171000,161.867000,100.021000,161.867000C115.578000,161.867000,132.970000,144.005000,139.345000,136.810000C140.970000,134.975000,142.186000,132.783000,142.901000,130.424000C146.583000,118.276000,158.770000,78.052000,158.780000,78.006000L158.785000,78.006000C160.068000,73.009000,160.746000,67.769000,160.737000,62.365000C160.704000,40.389000,149.297000,21.135000,132.168000,10.260000Z" fill="rgb(238,210,207)" stroke="none" stroke-width="1"/><path id="eifc865r5wb33" d="M158.785000,78.006000L158.780000,78.006000C158.770000,78.052000,146.583000,118.276000,142.901000,130.424000C142.186000,132.782000,140.970000,134.975000,139.345000,136.810000C132.970000,144.004000,115.577000,161.867000,100.021000,161.867000C84.172000,161.867000,66.430000,142.822000,60.313000,135.653000C58.871000,133.965000,57.806000,132.020000,57.141000,129.888000C53.534000,118.337000,41.015000,78.240000,41.004000,78.194000L41.003000,78.194000C39.705000,73.202000,39.009000,67.963000,39.001000,62.560000C38.949000,28.536000,66.155000,0.920000,99.773000,0.867000C133.394000,0.814000,160.686000,28.343000,160.737000,62.366000C160.746000,67.769000,160.068000,73.010000,158.785000,78.006000Z" fill="none" stroke="rgb(200,131,124)" stroke-width="1.500000"/></g></g><g id="eifc865r5wb34"><g id="eifc865r5wb35"><path id="eifc865r5wb36" d="M96.227000,139.237000L104.524000,139.030000C103.563000,143.500000,96.884000,142.858000,96.227000,139.237000Z" fill="url(#eifc865r5wb36-fill)" stroke="none" stroke-width="1"/><path id="eifc865r5wb37" d="M96.343000,139.520000C95.972000,139.470000,96.028000,138.941000,96.423000,138.978000C96.466000,138.984000,100.731000,139.524000,104.301000,138.763000C104.687000,138.688000,104.801000,139.218000,104.431000,139.297000C101.634000,139.895000,98.015000,139.755000,96.343000,139.520000ZM100.083000,135.950000C98.580000,135.950000,97.123000,135.429000,95.659000,135.174000C94.019000,134.887000,92.385000,135.133000,90.744000,135.278000C89.068000,135.427000,85.411000,135.265000,84.379000,134.612000C83.801000,134.245000,83.909000,133.391000,84.560000,133.163000C85.174000,132.943000,86.131000,133.399000,86.751000,133.510000C89.623000,134.025000,91.135000,133.476000,93.653000,133.392000C97.504000,133.276000,97.913000,134.893000,102.717000,133.922000C107.882000,132.878000,110.208000,133.668000,113.914000,132.552000C114.422000,132.398000,115.026000,131.992000,115.559000,132.266000C116.174000,132.584000,116.144000,133.451000,115.510000,133.730000C112.104000,135.232000,108.336000,134.625000,104.555000,135.256000C103.073000,135.502000,101.596000,135.950000,100.083000,135.950000Z" fill="rgb(200,131,124)" stroke="none" stroke-width="1"/></g></g><g id="eifc865r5wb38"><g id="eifc865r5wb39"><g id="eifc865r5wb40"><path id="eifc865r5wb41" d="M60.432000,80.957000C61.658000,79.778000,69.523000,78.283000,74.063000,78.882000C81.246000,79.829000,87.063000,86.167000,87.063000,86.167000C87.063000,86.167000,82.227000,89.250000,73.453000,89.727000C67.673000,90.042000,61.860000,86.309000,60.432000,80.957000Z" fill="url(#eifc865r5wb41-fill)" stroke="none" stroke-width="1"/></g><g id="eifc865r5wb42" transform="matrix(1 0 0 1 0.25000000000000 0)"><g id="eifc865r5wb43"><g id="eifc865r5wb44"><path id="eifc865r5wb45" d="M80,84C80,87.313000,77.313000,90,74,90C70.687000,90,68,87.313000,68,84L68,84C68,80.686000,70.687000,78,74,78C77.313000,77.999000,80,80.686000,80,84L80,84Z" fill="rgb(78,96,163)" stroke="none" stroke-width="1"/><path id="eifc865r5wb46" d="M73.328000,78.066000C73.305000,78.069000,73.281000,78.072000,73.257000,78.075000C73.286000,78.210000,73.314000,78.346000,73.342000,78.481000C73.336000,78.344000,73.333000,78.204000,73.328000,78.066000ZM73.341000,78.480000C73.411000,80.452000,73.526000,82.209000,73.858000,82.844000C74.033000,82.148000,73.735000,80.414000,73.341000,78.480000ZM73.859000,82.845000C73.816000,83.012000,73.751000,83.126000,73.651000,83.164000C73.551000,83.202000,73.425000,83.158000,73.283000,83.061000C73.324000,83.228000,73.320000,83.358000,73.247000,83.439000C73.175000,83.520000,73.046000,83.540000,72.874000,83.517000C72.987000,83.647000,73.045000,83.766000,73.020000,83.870000C72.993000,83.974000,72.886000,84.052000,72.727000,84.112000C72.886000,84.175000,72.993000,84.253000,73.018000,84.357000C73.043000,84.461000,72.985000,84.580000,72.873000,84.709000C73.043000,84.688000,73.174000,84.710000,73.244000,84.791000C73.315000,84.872000,73.319000,85.003000,73.279000,85.170000C73.420000,85.073000,73.544000,85.031000,73.644000,85.070000C73.745000,85.108000,73.810000,85.222000,73.850000,85.390000C73.931000,85.238000,74.021000,85.141000,74.130000,85.130000C74.234000,85.116000,74.346000,85.189000,74.459000,85.318000C74.460000,85.146000,74.496000,85.019000,74.586000,84.958000C74.674000,84.897000,74.805000,84.909000,74.965000,84.971000C74.887000,84.819000,74.860000,84.690000,74.910000,84.594000C74.960000,84.499000,75.083000,84.448000,75.254000,84.428000C75.113000,84.329000,75.027000,84.228000,75.029000,84.120000C75.029000,84.012000,75.113000,83.911000,75.256000,83.814000C75.086000,83.793000,74.965000,83.742000,74.914000,83.647000C74.865000,83.552000,74.892000,83.422000,74.972000,83.270000C74.810000,83.330000,74.680000,83.342000,74.592000,83.281000C74.503000,83.220000,74.467000,83.093000,74.467000,82.921000C74.355000,83.049000,74.243000,83.120000,74.137000,83.106000C74.029000,83.092000,73.938000,82.998000,73.859000,82.845000ZM74.466000,82.920000C74.945000,82.385000,75.487000,80.711000,76.036000,78.816000C75.182000,80.593000,74.467000,82.202000,74.466000,82.920000ZM76.035000,78.816000C76.095000,78.694000,76.156000,78.570000,76.213000,78.446000C76.192000,78.439000,76.171000,78.429000,76.150000,78.420000C76.112000,78.553000,76.074000,78.686000,76.035000,78.816000ZM74.972000,83.270000C75.644000,83.018000,76.903000,81.787000,78.269000,80.365000C76.688000,81.541000,75.306000,82.634000,74.972000,83.270000ZM78.269000,80.365000C78.369000,80.290000,78.472000,80.215000,78.574000,80.140000C78.560000,80.122000,78.544000,80.107000,78.532000,80.091000C78.445000,80.181000,78.358000,80.274000,78.269000,80.365000ZM75.254000,83.814000C75.967000,83.902000,77.654000,83.397000,79.526000,82.773000C77.578000,83.081000,75.848000,83.406000,75.254000,83.814000ZM79.526000,82.774000C79.636000,82.758000,79.751000,82.740000,79.863000,82.722000C79.859000,82.703000,79.854000,82.684000,79.849000,82.665000C79.742000,82.701000,79.632000,82.738000,79.526000,82.774000ZM75.253000,84.427000C75.843000,84.839000,77.571000,85.174000,79.515000,85.490000C77.650000,84.857000,75.967000,84.342000,75.253000,84.427000ZM79.516000,85.490000C79.611000,85.523000,79.707000,85.557000,79.801000,85.588000C79.806000,85.571000,79.810000,85.555000,79.813000,85.538000C79.716000,85.523000,79.615000,85.507000,79.516000,85.490000ZM74.965000,84.970000C75.298000,85.607000,76.673000,86.708000,78.247000,87.894000C76.888000,86.464000,75.638000,85.226000,74.965000,84.970000ZM78.248000,87.892000C78.307000,87.954000,78.368000,88.018000,78.427000,88.081000C78.437000,88.069000,78.446000,88.060000,78.457000,88.049000C78.387000,87.997000,78.315000,87.944000,78.248000,87.892000ZM74.460000,85.317000C74.457000,86.036000,75.163000,87.648000,76.007000,89.430000C75.468000,87.533000,74.937000,85.855000,74.460000,85.317000ZM76.007000,89.431000C76.028000,89.506000,76.050000,89.583000,76.070000,89.660000C76.085000,89.654000,76.095000,89.650000,76.109000,89.646000C76.076000,89.574000,76.041000,89.500000,76.007000,89.431000ZM73.851000,85.389000C73.515000,86.026000,73.390000,87.779000,73.309000,89.750000C73.713000,87.820000,74.022000,86.087000,73.851000,85.389000ZM73.309000,89.750000C73.292000,89.825000,73.278000,89.901000,73.262000,89.978000C73.276000,89.981000,73.287000,89.981000,73.301000,89.983000C73.303000,89.906000,73.307000,89.826000,73.309000,89.750000ZM73.280000,85.169000C72.684000,85.576000,71.759000,87.073000,70.772000,88.779000C72.026000,87.259000,73.106000,85.867000,73.280000,85.169000ZM70.772000,88.779000C70.719000,88.842000,70.664000,88.909000,70.610000,88.972000C70.623000,88.980000,70.634000,88.986000,70.648000,88.996000C70.688000,88.924000,70.731000,88.851000,70.772000,88.779000ZM72.875000,84.710000C72.159000,84.793000,70.644000,85.688000,68.977000,86.739000C70.795000,85.977000,72.395000,85.248000,72.875000,84.710000ZM68.976000,86.741000C68.890000,86.777000,68.802000,86.813000,68.713000,86.851000C68.719000,86.864000,68.728000,86.878000,68.736000,86.891000C68.817000,86.842000,68.897000,86.791000,68.976000,86.741000ZM72.728000,84.113000C72.057000,83.856000,70.299000,83.945000,68.333000,84.102000C70.297000,84.270000,72.055000,84.367000,72.728000,84.113000ZM68.333000,84.102000C68.226000,84.092000,68.116000,84.082000,68.010000,84.073000C68.010000,84.092000,68.008000,84.111000,68.010000,84.129000C68.119000,84.119000,68.228000,84.110000,68.333000,84.102000ZM72.875000,83.519000C72.402000,82.980000,70.806000,82.242000,68.994000,81.468000C70.653000,82.528000,72.163000,83.432000,72.875000,83.519000ZM68.994000,81.468000C68.890000,81.401000,68.785000,81.334000,68.679000,81.267000C68.670000,81.286000,68.660000,81.305000,68.650000,81.322000C68.766000,81.371000,68.882000,81.419000,68.994000,81.468000ZM73.284000,83.061000C73.115000,82.363000,72.043000,80.967000,70.799000,79.438000C71.775000,81.150000,72.692000,82.651000,73.284000,83.061000ZM70.799000,79.438000C70.732000,79.323000,70.667000,79.206000,70.600000,79.089000C70.581000,79.102000,70.561000,79.115000,70.544000,79.128000C70.628000,79.231000,70.716000,79.335000,70.799000,79.438000Z" opacity="0.7" fill="url(#eifc865r5wb46-fill)" stroke="none" stroke-width="1"/><path id="eifc865r5wb47" d="M74.886000,78.086000C74.862000,78.083000,74.839000,78.079000,74.816000,78.076000C74.809000,78.214000,74.800000,78.353000,74.792000,78.490000C74.822000,78.356000,74.855000,78.220000,74.886000,78.086000ZM74.791000,78.489000C74.349000,80.411000,74.004000,82.138000,74.162000,82.839000C74.511000,82.211000,74.671000,80.459000,74.791000,78.489000ZM74.161000,82.839000C74.077000,82.989000,73.985000,83.082000,73.878000,83.093000C73.772000,83.103000,73.662000,83.029000,73.551000,82.898000C73.547000,83.069000,73.509000,83.195000,73.418000,83.254000C73.328000,83.313000,73.197000,83.299000,73.038000,83.233000C73.114000,83.388000,73.139000,83.518000,73.087000,83.611000C73.034000,83.705000,72.911000,83.753000,72.742000,83.769000C72.879000,83.870000,72.962000,83.973000,72.959000,84.081000C72.957000,84.188000,72.870000,84.288000,72.728000,84.383000C72.897000,84.407000,73.018000,84.462000,73.065000,84.557000C73.113000,84.653000,73.083000,84.782000,73.001000,84.932000C73.162000,84.875000,73.293000,84.867000,73.380000,84.930000C73.467000,84.993000,73.500000,85.120000,73.496000,85.293000C73.613000,85.168000,73.725000,85.097000,73.833000,85.114000C73.938000,85.128000,74.027000,85.227000,74.103000,85.382000C74.148000,85.215000,74.216000,85.103000,74.319000,85.067000C74.420000,85.031000,74.544000,85.077000,74.682000,85.178000C74.646000,85.011000,74.653000,84.879000,74.726000,84.800000C74.799000,84.721000,74.931000,84.704000,75.102000,84.728000C74.991000,84.596000,74.934000,84.477000,74.964000,84.373000C74.992000,84.269000,75.100000,84.193000,75.263000,84.136000C75.103000,84.072000,75,83.991000,74.975000,83.886000C74.952000,83.781000,75.012000,83.663000,75.129000,83.537000C74.957000,83.553000,74.828000,83.531000,74.759000,83.449000C74.689000,83.367000,74.687000,83.235000,74.731000,83.070000C74.589000,83.164000,74.463000,83.204000,74.364000,83.163000C74.261000,83.122000,74.199000,83.007000,74.161000,82.839000ZM74.729000,83.070000C75.330000,82.676000,76.286000,81.199000,77.307000,79.512000C76.022000,81.007000,74.916000,82.375000,74.729000,83.070000ZM77.307000,79.511000C77.396000,79.409000,77.487000,79.305000,77.575000,79.200000C77.556000,79.187000,77.539000,79.172000,77.520000,79.158000C77.449000,79.277000,77.378000,79.396000,77.307000,79.511000ZM75.127000,83.538000C75.842000,83.468000,77.377000,82.604000,79.064000,81.585000C77.231000,82.312000,75.614000,83.010000,75.127000,83.538000ZM79.063000,81.584000C79.180000,81.538000,79.298000,81.492000,79.417000,81.446000C79.407000,81.425000,79.396000,81.406000,79.389000,81.387000C79.281000,81.453000,79.173000,81.520000,79.063000,81.584000ZM75.259000,84.137000C75.925000,84.407000,77.685000,84.355000,79.654000,84.238000C77.693000,84.030000,75.938000,83.896000,75.259000,84.137000ZM79.654000,84.237000C79.766000,84.250000,79.880000,84.262000,79.993000,84.274000C79.993000,84.254000,79.994000,84.235000,79.995000,84.216000C79.881000,84.223000,79.766000,84.230000,79.654000,84.237000ZM75.100000,84.729000C75.562000,85.280000,77.146000,86.050000,78.942000,86.858000C77.303000,85.763000,75.811000,84.831000,75.100000,84.729000ZM78.941000,86.858000C79.024000,86.915000,79.108000,86.972000,79.191000,87.026000C79.200000,87.011000,79.208000,86.996000,79.216000,86.981000C79.126000,86.942000,79.032000,86.900000,78.941000,86.858000ZM74.680000,85.179000C74.836000,85.880000,75.880000,87.299000,77.094000,88.853000C76.151000,87.119000,75.264000,85.599000,74.680000,85.179000ZM77.094000,88.850000C77.136000,88.925000,77.177000,89.003000,77.219000,89.079000C77.231000,89.070000,77.243000,89.063000,77.256000,89.055000C77.202000,88.987000,77.147000,88.917000,77.094000,88.850000ZM74.103000,85.383000C73.915000,86.076000,74.179000,87.816000,74.533000,89.756000C74.502000,87.784000,74.424000,86.026000,74.103000,85.383000ZM74.532000,89.756000C74.533000,89.834000,74.535000,89.914000,74.535000,89.994000C74.549000,89.992000,74.562000,89.990000,74.576000,89.990000C74.562000,89.913000,74.547000,89.833000,74.532000,89.756000ZM73.496000,85.294000C73.006000,85.822000,72.432000,87.483000,71.844000,89.366000C72.733000,87.607000,73.481000,86.013000,73.496000,85.294000ZM71.843000,89.366000C71.808000,89.434000,71.773000,89.504000,71.739000,89.574000C71.751000,89.580000,71.762000,89.583000,71.775000,89.589000C71.797000,89.516000,71.821000,89.439000,71.843000,89.366000ZM73,84.934000C72.320000,85.173000,71.038000,86.380000,69.643000,87.772000C71.250000,86.628000,72.652000,85.563000,73,84.934000ZM69.644000,87.772000C69.577000,87.819000,69.507000,87.870000,69.439000,87.917000C69.449000,87.928000,69.459000,87.937000,69.468000,87.949000C69.525000,87.890000,69.585000,87.832000,69.644000,87.772000ZM72.728000,84.385000C72.015000,84.281000,70.321000,84.753000,68.437000,85.337000C70.392000,85.071000,72.125000,84.781000,72.728000,84.385000ZM68.437000,85.339000C68.345000,85.352000,68.250000,85.363000,68.154000,85.378000C68.157000,85.393000,68.162000,85.408000,68.167000,85.422000C68.258000,85.396000,68.348000,85.366000,68.437000,85.339000ZM72.741000,83.772000C72.159000,83.349000,70.438000,82.980000,68.499000,82.623000C70.353000,83.294000,72.025000,83.843000,72.741000,83.772000ZM68.499000,82.623000C68.398000,82.586000,68.294000,82.548000,68.194000,82.511000C68.189000,82.530000,68.183000,82.548000,68.179000,82.565000C68.288000,82.584000,68.395000,82.604000,68.499000,82.623000ZM73.038000,83.235000C72.720000,82.592000,71.370000,81.466000,69.819000,80.249000C71.147000,81.704000,72.372000,82.968000,73.038000,83.235000ZM69.818000,80.250000C69.735000,80.159000,69.651000,80.067000,69.567000,79.975000C69.553000,79.991000,69.538000,80.006000,69.525000,80.021000C69.624000,80.097000,69.723000,80.173000,69.818000,80.250000ZM73.551000,82.899000C73.568000,82.181000,72.895000,80.555000,72.087000,78.757000C72.587000,80.663000,73.085000,82.350000,73.551000,82.899000ZM72.087000,78.757000C72.053000,78.629000,72.020000,78.498000,71.986000,78.368000C71.965000,78.375000,71.943000,78.383000,71.923000,78.391000C71.977000,78.513000,72.033000,78.636000,72.087000,78.757000Z" opacity="0.4" fill="url(#eifc865r5wb47-fill)" stroke="none" stroke-width="1"/><path id="eifc865r5wb48" d="M76.354000,84C76.354000,85.300000,75.301000,86.353000,74.001000,86.353000C72.702000,86.353000,71.647000,85.300000,71.647000,84C71.647000,82.701000,72.702000,81.646000,74.001000,81.646000C75.301000,81.646000,76.354000,82.700000,76.354000,84Z" fill="rgb(78,96,163)" stroke="none" stroke-width="1"/><path id="eifc865r5wb49" d="M76.354000,84C76.354000,85.300000,75.301000,86.353000,74.001000,86.353000C72.702000,86.353000,71.647000,85.300000,71.647000,84C71.647000,82.701000,72.702000,81.646000,74.001000,81.646000C75.301000,81.646000,76.354000,82.700000,76.354000,84Z" opacity="0.9" fill="rgb(0,0,0)" stroke="none" stroke-width="1"/><path id="eifc865r5wb50" d="M70.717000,86.748000C71.166000,86.446000,71.776000,86.568000,72.077000,87.016000C72.378000,87.465000,72.259000,88.075000,71.809000,88.376000C71.359000,88.679000,70.750000,88.559000,70.449000,88.109000C70.148000,87.660000,70.268000,87.049000,70.717000,86.748000L70.717000,86.748000Z" opacity="0.5" fill="url(#eifc865r5wb50-fill)" stroke="none" stroke-width="1"/><path id="eifc865r5wb51" d="M75.860000,83.672000C75.609000,84.046000,74.891000,84.003000,74.254000,83.576000C73.616000,83.149000,73.304000,82.498000,73.554000,82.125000L73.554000,82.124000C73.804000,81.750000,74.523000,81.793000,75.159000,82.221000C75.798000,82.647000,76.110000,83.297000,75.860000,83.672000C75.860000,83.672000,75.860000,83.672000,75.860000,83.672000Z" opacity="0.5" fill="url(#eifc865r5wb51-fill)" stroke="none" stroke-width="1"/><path id="eifc865r5wb52" d="M78.716000,82.673000C78.148000,83.546000,76.680000,83.598000,75.441000,82.790000C74.201000,81.982000,73.657000,80.620000,74.226000,79.747000C74.794000,78.875000,76.262000,78.823000,77.501000,79.630000C78.740000,80.439000,79.284000,81.802000,78.716000,82.673000L78.716000,82.673000Z" opacity="0.75" fill="url(#eifc865r5wb52-fill)" stroke="none" stroke-width="1"/></g></g></g><g id="eifc865r5wb53"><path id="eifc865r5wb54" d="M55.132000,85C55.132000,98.808000,67.800000,105.999000,73.132000,105.999000C83.072000,105.999000,91.132000,98.808000,91.132000,85C91.132000,71.191000,83.072000,59.999000,73.132000,59.999000C63.192000,59.999000,55.132000,71.191000,55.132000,85ZM60.432000,80.957000C61.658000,79.778000,69.523000,78.283000,74.063000,78.882000C81.246000,79.829000,87.063000,86.167000,87.063000,86.167000C87.063000,86.167000,82.227000,89.250000,73.453000,89.727000C67.673000,90.042000,61.860000,86.309000,60.432000,80.957000Z" fill="rgb(246,228,226)" stroke="none" stroke-width="1"/><path id="eifc865r5wb55" d="M73.981000,93.592000C83.393000,95.815000,92.432000,91.982000,94.175000,85.027000C95.913000,78.071000,89.697000,70.632000,80.283000,68.405000C70.869000,66.181000,61.830000,70.014000,60.088000,76.970000C58.350000,83.927000,64.564000,91.365000,73.981000,93.592000ZM60.432000,80.957000C61.658000,79.778000,69.523000,78.283000,74.063000,78.882000C81.246000,79.829000,87.063000,86.167000,87.063000,86.167000C87.063000,86.167000,82.227000,89.250000,73.453000,89.727000C67.673000,90.042000,61.860000,86.309000,60.432000,80.957000Z" fill="url(#eifc865r5wb55-fill)" stroke="none" stroke-width="1"/><path id="eifc865r5wb56" d="M60.432000,80.957000C61.658000,79.778000,69.523000,78.283000,74.063000,78.882000C81.246000,79.829000,87.063000,86.167000,87.063000,86.167000C87.063000,86.167000,82.227000,89.250000,73.453000,89.727000C67.673000,90.042000,61.860000,86.309000,60.432000,80.957000Z" fill="url(#eifc865r5wb56-fill)" stroke="none" stroke-width="1"/><path id="eifc865r5wb57" d="M86.632000,82.458000C80.130000,78.207000,82.578000,79.368000,70.402000,75.755000C73.746000,76.255000,79.974000,77.821000,82.109000,79.075000C83.272000,79.729000,85.632000,81.584000,86.632000,82.458000Z" fill="rgb(200,131,124)" stroke="none" stroke-width="1"/><path id="eifc865r5wb58" d="M58.853000,80.886000C60.800000,85.812000,68.587000,94.847000,88.138000,86.419000C85.041000,83.059000,77.133000,77.306000,69.979000,77.356000C63.986000,77.397000,60.637000,79.265000,58.853000,80.886000ZM60.432000,81.074000C61.658000,79.937000,69.523000,78.494000,74.063000,79.073000C81.246000,79.986000,87.063000,86.099000,87.063000,86.099000C87.063000,86.099000,82.227000,89.073000,73.453000,89.533000C67.673000,89.836000,61.860000,86.236000,60.432000,81.074000Z" fill="rgb(0,0,0)" stroke="none" stroke-width="1"/></g></g></g><g id="eifc865r5wb59"><g id="eifc865r5wb60"><g id="eifc865r5wb61"><path id="eifc865r5wb62" d="M139.169000,80.957000C137.943000,79.778000,130.078000,78.283000,125.538000,78.882000C118.355000,79.829000,112.538000,86.167000,112.538000,86.167000C112.538000,86.167000,117.374000,89.250000,126.148000,89.727000C131.928000,90.042000,137.740000,86.309000,139.169000,80.957000Z" fill="url(#eifc865r5wb62-fill)" stroke="none" stroke-width="1"/></g><g id="eifc865r5wb63" transform="matrix(1 0 0 1 -0.25000000000000 0)"><g id="eifc865r5wb64"><g id="eifc865r5wb65"><path id="eifc865r5wb66" d="M132,84C132,87.313000,129.313000,90,126.001000,90C122.688000,90,120,87.313000,120,84L120,84C120,80.686000,122.688000,78,126.001000,78C129.313000,77.999000,132,80.686000,132,84L132,84Z" fill="rgb(78,96,163)" stroke="none" stroke-width="1"/><path id="eifc865r5wb67" d="M125.328000,78.066000C125.305000,78.069000,125.281000,78.072000,125.257000,78.075000C125.286000,78.210000,125.315000,78.346000,125.342000,78.481000C125.336000,78.344000,125.333000,78.204000,125.328000,78.066000ZM125.341000,78.480000C125.410000,80.452000,125.526000,82.209000,125.859000,82.844000C126.033000,82.148000,125.735000,80.414000,125.341000,78.480000ZM125.858000,82.845000C125.816000,83.012000,125.750000,83.126000,125.651000,83.164000C125.550000,83.202000,125.425000,83.158000,125.284000,83.061000C125.324000,83.228000,125.320000,83.358000,125.248000,83.439000C125.176000,83.520000,125.047000,83.540000,124.876000,83.517000C124.988000,83.647000,125.047000,83.766000,125.022000,83.870000C124.994000,83.974000,124.888000,84.052000,124.729000,84.112000C124.887000,84.175000,124.994000,84.253000,125.019000,84.357000C125.044000,84.461000,124.987000,84.580000,124.874000,84.709000C125.044000,84.688000,125.174000,84.710000,125.244000,84.791000C125.315000,84.872000,125.319000,85.003000,125.279000,85.170000C125.420000,85.073000,125.545000,85.031000,125.644000,85.070000C125.746000,85.108000,125.810000,85.222000,125.850000,85.390000C125.930000,85.238000,126.022000,85.141000,126.129000,85.130000C126.234000,85.116000,126.346000,85.189000,126.458000,85.318000C126.460000,85.146000,126.495000,85.019000,126.586000,84.958000C126.673000,84.897000,126.805000,84.909000,126.965000,84.971000C126.887000,84.819000,126.861000,84.690000,126.909000,84.594000C126.960000,84.499000,127.083000,84.448000,127.254000,84.428000C127.113000,84.329000,127.026000,84.228000,127.029000,84.120000C127.028000,84.012000,127.113000,83.911000,127.256000,83.814000C127.085000,83.793000,126.965000,83.742000,126.914000,83.647000C126.864000,83.552000,126.892000,83.422000,126.971000,83.270000C126.810000,83.330000,126.680000,83.342000,126.591000,83.281000C126.502000,83.220000,126.467000,83.093000,126.466000,82.921000C126.355000,83.049000,126.242000,83.120000,126.136000,83.106000C126.029000,83.092000,125.938000,82.998000,125.858000,82.845000ZM126.466000,82.920000C126.945000,82.385000,127.487000,80.711000,128.035000,78.816000C127.182000,80.593000,126.468000,82.202000,126.466000,82.920000ZM128.035000,78.816000C128.095000,78.694000,128.156000,78.570000,128.214000,78.446000C128.193000,78.439000,128.172000,78.429000,128.151000,78.420000C128.112000,78.553000,128.074000,78.686000,128.035000,78.816000ZM126.972000,83.270000C127.645000,83.018000,128.904000,81.787000,130.270000,80.365000C128.688000,81.541000,127.307000,82.634000,126.972000,83.270000ZM130.270000,80.365000C130.370000,80.290000,130.472000,80.215000,130.575000,80.140000C130.560000,80.122000,130.545000,80.107000,130.533000,80.091000C130.445000,80.181000,130.358000,80.274000,130.270000,80.365000ZM127.255000,83.814000C127.968000,83.902000,129.654000,83.397000,131.526000,82.773000C129.578000,83.081000,127.848000,83.406000,127.255000,83.814000ZM131.526000,82.774000C131.636000,82.758000,131.751000,82.740000,131.863000,82.722000C131.858000,82.703000,131.854000,82.684000,131.849000,82.665000C131.742000,82.701000,131.632000,82.738000,131.526000,82.774000ZM127.253000,84.427000C127.844000,84.839000,129.571000,85.174000,131.516000,85.490000C129.650000,84.857000,127.967000,84.342000,127.253000,84.427000ZM131.516000,85.490000C131.611000,85.523000,131.706000,85.557000,131.801000,85.588000C131.806000,85.571000,131.810000,85.555000,131.814000,85.538000C131.716000,85.523000,131.614000,85.507000,131.516000,85.490000ZM126.965000,84.970000C127.297000,85.607000,128.673000,86.708000,130.247000,87.894000C128.889000,86.464000,127.638000,85.226000,126.965000,84.970000ZM130.248000,87.892000C130.307000,87.954000,130.367000,88.018000,130.426000,88.081000C130.436000,88.069000,130.446000,88.060000,130.457000,88.049000C130.387000,87.997000,130.315000,87.944000,130.248000,87.892000ZM126.461000,85.317000C126.458000,86.036000,127.163000,87.648000,128.008000,89.430000C127.468000,87.533000,126.937000,85.855000,126.461000,85.317000ZM128.008000,89.431000C128.029000,89.506000,128.051000,89.583000,128.071000,89.660000C128.086000,89.654000,128.097000,89.650000,128.110000,89.646000C128.076000,89.574000,128.041000,89.500000,128.008000,89.431000ZM125.851000,85.389000C125.515000,86.026000,125.390000,87.779000,125.309000,89.750000C125.713000,87.820000,126.022000,86.087000,125.851000,85.389000ZM125.309000,89.750000C125.292000,89.825000,125.278000,89.901000,125.262000,89.978000C125.276000,89.981000,125.286000,89.981000,125.301000,89.983000C125.303000,89.906000,125.307000,89.826000,125.309000,89.750000ZM125.279000,85.169000C124.683000,85.576000,123.758000,87.073000,122.771000,88.779000C124.026000,87.259000,125.105000,85.867000,125.279000,85.169000ZM122.771000,88.779000C122.719000,88.842000,122.664000,88.909000,122.610000,88.972000C122.623000,88.980000,122.634000,88.986000,122.647000,88.996000C122.688000,88.924000,122.731000,88.851000,122.771000,88.779000ZM124.874000,84.710000C124.158000,84.793000,122.644000,85.688000,120.977000,86.739000C122.795000,85.977000,124.395000,85.248000,124.874000,84.710000ZM120.977000,86.741000C120.890000,86.777000,120.802000,86.813000,120.714000,86.851000C120.720000,86.864000,120.728000,86.878000,120.737000,86.891000C120.817000,86.842000,120.897000,86.791000,120.977000,86.741000ZM124.729000,84.113000C124.057000,83.856000,122.299000,83.945000,120.333000,84.102000C122.298000,84.270000,124.055000,84.367000,124.729000,84.113000ZM120.333000,84.102000C120.227000,84.092000,120.116000,84.082000,120.011000,84.073000C120.010000,84.092000,120.008000,84.111000,120.010000,84.129000C120.119000,84.119000,120.228000,84.110000,120.333000,84.102000ZM124.876000,83.519000C124.402000,82.980000,122.807000,82.242000,120.994000,81.468000C122.653000,82.528000,124.163000,83.432000,124.876000,83.519000ZM120.994000,81.468000C120.890000,81.401000,120.784000,81.334000,120.679000,81.267000C120.670000,81.286000,120.660000,81.305000,120.651000,81.322000C120.766000,81.371000,120.883000,81.419000,120.994000,81.468000ZM125.284000,83.061000C125.115000,82.363000,124.043000,80.967000,122.799000,79.438000C123.775000,81.150000,124.692000,82.651000,125.284000,83.061000ZM122.799000,79.438000C122.732000,79.323000,122.666000,79.206000,122.601000,79.089000C122.582000,79.102000,122.562000,79.115000,122.544000,79.128000C122.629000,79.231000,122.716000,79.335000,122.799000,79.438000Z" opacity="0.7" fill="url(#eifc865r5wb67-fill)" stroke="none" stroke-width="1"/><path id="eifc865r5wb68" d="M126.886000,78.086000C126.862000,78.083000,126.839000,78.079000,126.816000,78.076000C126.808000,78.214000,126.800000,78.353000,126.792000,78.490000C126.821000,78.356000,126.854000,78.220000,126.886000,78.086000ZM126.791000,78.489000C126.348000,80.411000,126.004000,82.138000,126.161000,82.839000C126.511000,82.211000,126.671000,80.459000,126.791000,78.489000ZM126.161000,82.839000C126.077000,82.989000,125.984000,83.082000,125.878000,83.093000C125.772000,83.103000,125.662000,83.029000,125.551000,82.898000C125.547000,83.069000,125.509000,83.195000,125.418000,83.254000C125.328000,83.313000,125.197000,83.299000,125.038000,83.233000C125.113000,83.388000,125.139000,83.518000,125.087000,83.611000C125.033000,83.705000,124.911000,83.753000,124.741000,83.769000C124.879000,83.870000,124.961000,83.973000,124.958000,84.081000C124.956000,84.188000,124.869000,84.288000,124.728000,84.383000C124.898000,84.407000,125.017000,84.462000,125.065000,84.557000C125.113000,84.653000,125.083000,84.782000,125.001000,84.932000C125.163000,84.875000,125.294000,84.867000,125.381000,84.930000C125.468000,84.993000,125.501000,85.120000,125.496000,85.293000C125.613000,85.168000,125.725000,85.097000,125.833000,85.114000C125.938000,85.128000,126.027000,85.227000,126.103000,85.382000C126.149000,85.215000,126.216000,85.103000,126.319000,85.067000C126.420000,85.031000,126.545000,85.077000,126.682000,85.178000C126.647000,85.011000,126.654000,84.879000,126.727000,84.800000C126.799000,84.721000,126.931000,84.704000,127.102000,84.728000C126.992000,84.596000,126.934000,84.477000,126.964000,84.373000C126.991000,84.269000,127.100000,84.193000,127.263000,84.136000C127.104000,84.072000,127,83.991000,126.975000,83.886000C126.953000,83.781000,127.013000,83.663000,127.129000,83.537000C126.957000,83.553000,126.827000,83.531000,126.759000,83.449000C126.689000,83.367000,126.687000,83.235000,126.732000,83.070000C126.589000,83.164000,126.463000,83.204000,126.364000,83.163000C126.262000,83.122000,126.198000,83.007000,126.161000,82.839000ZM126.729000,83.070000C127.330000,82.676000,128.286000,81.199000,129.307000,79.512000C128.022000,81.007000,126.916000,82.375000,126.729000,83.070000ZM129.307000,79.511000C129.396000,79.409000,129.487000,79.305000,129.576000,79.200000C129.556000,79.187000,129.539000,79.172000,129.520000,79.158000C129.449000,79.277000,129.378000,79.396000,129.307000,79.511000ZM127.127000,83.538000C127.842000,83.468000,129.376000,82.604000,131.064000,81.585000C129.231000,82.312000,127.614000,83.010000,127.127000,83.538000ZM131.063000,81.584000C131.179000,81.538000,131.297000,81.492000,131.417000,81.446000C131.407000,81.425000,131.396000,81.406000,131.389000,81.387000C131.281000,81.453000,131.173000,81.520000,131.063000,81.584000ZM127.259000,84.137000C127.925000,84.407000,129.685000,84.355000,131.655000,84.238000C129.692000,84.030000,127.938000,83.896000,127.259000,84.137000ZM131.654000,84.237000C131.765000,84.250000,131.880000,84.262000,131.993000,84.274000C131.994000,84.254000,131.994000,84.235000,131.995000,84.216000C131.882000,84.223000,131.766000,84.230000,131.654000,84.237000ZM127.100000,84.729000C127.563000,85.280000,129.146000,86.050000,130.942000,86.858000C129.303000,85.763000,127.811000,84.831000,127.100000,84.729000ZM130.941000,86.858000C131.023000,86.915000,131.108000,86.972000,131.191000,87.026000C131.200000,87.011000,131.209000,86.996000,131.215000,86.981000C131.126000,86.942000,131.032000,86.900000,130.941000,86.858000ZM126.681000,85.179000C126.836000,85.880000,127.880000,87.299000,129.094000,88.853000C128.151000,87.119000,127.265000,85.599000,126.681000,85.179000ZM129.095000,88.850000C129.136000,88.925000,129.177000,89.003000,129.219000,89.079000C129.231000,89.070000,129.242000,89.063000,129.256000,89.055000C129.202000,88.987000,129.146000,88.917000,129.095000,88.850000ZM126.103000,85.383000C125.915000,86.076000,126.179000,87.816000,126.533000,89.756000C126.502000,87.784000,126.424000,86.026000,126.103000,85.383000ZM126.532000,89.756000C126.533000,89.834000,126.535000,89.914000,126.535000,89.994000C126.550000,89.992000,126.561000,89.990000,126.575000,89.990000C126.562000,89.913000,126.547000,89.833000,126.532000,89.756000ZM125.495000,85.294000C125.006000,85.822000,124.431000,87.483000,123.843000,89.366000C124.733000,87.607000,125.480000,86.013000,125.495000,85.294000ZM123.843000,89.366000C123.808000,89.434000,123.774000,89.504000,123.739000,89.574000C123.751000,89.580000,123.761000,89.583000,123.774000,89.589000C123.797000,89.516000,123.821000,89.439000,123.843000,89.366000ZM125,84.934000C124.320000,85.173000,123.039000,86.380000,121.644000,87.772000C123.250000,86.628000,124.652000,85.563000,125,84.934000ZM121.644000,87.772000C121.577000,87.819000,121.506000,87.870000,121.439000,87.917000C121.449000,87.928000,121.459000,87.937000,121.468000,87.949000C121.525000,87.890000,121.586000,87.832000,121.644000,87.772000ZM124.728000,84.385000C124.015000,84.281000,122.322000,84.753000,120.438000,85.337000C122.392000,85.071000,124.126000,84.781000,124.728000,84.385000ZM120.438000,85.339000C120.345000,85.352000,120.250000,85.363000,120.155000,85.378000C120.159000,85.393000,120.163000,85.408000,120.168000,85.422000C120.258000,85.396000,120.348000,85.366000,120.438000,85.339000ZM124.741000,83.772000C124.159000,83.349000,122.438000,82.980000,120.499000,82.623000C122.353000,83.294000,124.025000,83.843000,124.741000,83.772000ZM120.499000,82.623000C120.398000,82.586000,120.294000,82.548000,120.194000,82.511000C120.188000,82.530000,120.183000,82.548000,120.179000,82.565000C120.287000,82.584000,120.395000,82.604000,120.499000,82.623000ZM125.038000,83.235000C124.720000,82.592000,123.369000,81.466000,121.818000,80.249000C123.147000,81.704000,124.372000,82.968000,125.038000,83.235000ZM121.818000,80.250000C121.735000,80.159000,121.651000,80.067000,121.567000,79.975000C121.552000,79.991000,121.539000,80.006000,121.524000,80.021000C121.623000,80.097000,121.724000,80.173000,121.818000,80.250000ZM125.551000,82.899000C125.568000,82.181000,124.895000,80.555000,124.087000,78.757000C124.588000,80.663000,125.085000,82.350000,125.551000,82.899000ZM124.087000,78.757000C124.053000,78.629000,124.020000,78.498000,123.985000,78.368000C123.964000,78.375000,123.942000,78.383000,123.922000,78.391000C123.977000,78.513000,124.033000,78.636000,124.087000,78.757000Z" opacity="0.4" fill="url(#eifc865r5wb68-fill)" stroke="none" stroke-width="1"/><path id="eifc865r5wb69" d="M128.354000,84C128.354000,85.300000,127.300000,86.353000,126.001000,86.353000C124.701000,86.353000,123.647000,85.300000,123.647000,84C123.647000,82.701000,124.702000,81.646000,126.001000,81.646000C127.302000,81.646000,128.354000,82.700000,128.354000,84Z" fill="rgb(78,96,163)" stroke="none" stroke-width="1"/><path id="eifc865r5wb70" d="M128.354000,84C128.354000,85.300000,127.300000,86.353000,126.001000,86.353000C124.701000,86.353000,123.647000,85.300000,123.647000,84C123.647000,82.701000,124.702000,81.646000,126.001000,81.646000C127.302000,81.646000,128.354000,82.700000,128.354000,84Z" opacity="0.9" fill="rgb(0,0,0)" stroke="none" stroke-width="1"/><path id="eifc865r5wb71" d="M122.718000,86.748000C123.166000,86.446000,123.777000,86.568000,124.077000,87.016000C124.379000,87.465000,124.260000,88.075000,123.809000,88.376000C123.359000,88.679000,122.750000,88.559000,122.450000,88.109000C122.148000,87.660000,122.268000,87.049000,122.718000,86.748000L122.718000,86.748000Z" opacity="0.5" fill="url(#eifc865r5wb71-fill)" stroke="none" stroke-width="1"/><path id="eifc865r5wb72" d="M127.859000,83.672000C127.608000,84.046000,126.890000,84.003000,126.254000,83.576000C125.616000,83.149000,125.304000,82.498000,125.554000,82.125000L125.555000,82.124000C125.805000,81.750000,126.524000,81.793000,127.160000,82.221000C127.798000,82.647000,128.110000,83.297000,127.859000,83.672000C127.859000,83.672000,127.859000,83.672000,127.859000,83.672000Z" opacity="0.5" fill="url(#eifc865r5wb72-fill)" stroke="none" stroke-width="1"/><path id="eifc865r5wb73" d="M130.717000,82.673000C130.148000,83.546000,128.681000,83.598000,127.441000,82.790000C126.202000,81.982000,125.657000,80.620000,126.226000,79.747000C126.794000,78.875000,128.261000,78.823000,129.501000,79.630000C130.740000,80.439000,131.284000,81.802000,130.717000,82.673000L130.717000,82.673000Z" opacity="0.75" fill="url(#eifc865r5wb73-fill)" stroke="none" stroke-width="1"/></g></g></g><g id="eifc865r5wb74"><path id="eifc865r5wb75" d="M126.469000,59.999000C116.529000,59.999000,108.469000,71.192000,108.469000,85C108.469000,98.808000,116.529000,105.999000,126.469000,105.999000C133.670000,105.999000,144.469000,98.808000,144.469000,85C144.469000,71.191000,136.409000,59.999000,126.469000,59.999000ZM126.148000,89.727000C117.374000,89.251000,112.538000,86.167000,112.538000,86.167000C112.538000,86.167000,118.355000,79.829000,125.538000,78.882000C130.078000,78.282000,137.943000,79.778000,139.169000,80.957000C137.740000,86.309000,131.928000,90.042000,126.148000,89.727000Z" fill="rgb(246,228,226)" stroke="none" stroke-width="1"/><path id="eifc865r5wb76" d="M139.512000,76.971000C137.770000,70.015000,128.731000,66.181000,119.317000,68.406000C109.903000,70.633000,103.687000,78.072000,105.425000,85.028000C107.168000,91.983000,116.207000,95.816000,125.619000,93.593000C135.036000,91.365000,141.251000,83.927000,139.512000,76.971000ZM126.148000,89.727000C117.374000,89.251000,112.538000,86.167000,112.538000,86.167000C112.538000,86.167000,118.355000,79.829000,125.538000,78.882000C130.078000,78.282000,137.943000,79.778000,139.169000,80.957000C137.740000,86.309000,131.928000,90.042000,126.148000,89.727000Z" fill="url(#eifc865r5wb76-fill)" stroke="none" stroke-width="1"/><path id="eifc865r5wb77" d="M139.169000,80.957000C137.943000,79.778000,130.078000,78.283000,125.538000,78.882000C118.355000,79.829000,112.538000,86.167000,112.538000,86.167000C112.538000,86.167000,117.374000,89.250000,126.148000,89.727000C131.928000,90.042000,137.740000,86.309000,139.169000,80.957000Z" fill="url(#eifc865r5wb77-fill)" stroke="none" stroke-width="1"/><path id="eifc865r5wb78" d="M112.969000,82.458000C119.471000,78.207000,117.023000,79.368000,129.199000,75.755000C125.855000,76.255000,119.627000,77.821000,117.492000,79.075000C116.328000,79.729000,113.969000,81.584000,112.969000,82.458000Z" fill="rgb(200,131,124)" stroke="none" stroke-width="1"/><path id="eifc865r5wb79" d="M129.622000,77.355000C122.468000,77.305000,114.559000,83.058000,111.463000,86.418000C131.014000,94.846000,138.801000,85.811000,140.748000,80.885000C138.964000,79.265000,135.614000,77.397000,129.622000,77.355000ZM126.148000,89.533000C117.374000,89.074000,112.538000,86.099000,112.538000,86.099000C112.538000,86.099000,118.355000,79.986000,125.538000,79.073000C130.078000,78.494000,137.943000,79.937000,139.169000,81.074000C137.740000,86.236000,131.928000,89.836000,126.148000,89.533000Z" fill="rgb(0,0,0)" stroke="none" stroke-width="1"/></g></g></g><g id="eifc865r5wb80"><path id="eifc865r5wb81" d="M137.500000,53.999000C137.500000,74.710000,120.711000,91.499000,100.001000,91.499000C79.290000,91.499000,62.500000,74.710000,62.500000,53.999000C62.500000,33.288000,79.290000,16.499000,100.001000,16.499000C120.711000,16.499000,137.500000,33.288000,137.500000,53.999000Z" fill="url(#eifc865r5wb81-fill)" stroke="none" stroke-width="1"/></g><g id="eifc865r5wb82"><g id="eifc865r5wb83"><g id="eifc865r5wb84"><g id="eifc865r5wb85_to" transform="translate(0,0)"><path id="eifc865r5wb85" d="M54,74.189000C63.954000,64.215000,70.761000,68.274000,84.589000,70.925000C85.434000,71.087000,90.909000,72.464000,89.899000,74.394000C89.416000,75.318000,87.863000,75.208000,86.996000,75.192000C73.308000,74.936000,66.652000,65.197000,54,74.189000Z" transform="translate(0,0)" fill="rgb(42,35,43)" stroke="none" stroke-width="1"/></g></g></g></g><g id="eifc865r5wb86"><g id="eifc865r5wb87"><g id="eifc865r5wb88"><g id="eifc865r5wb89_to" transform="translate(0,0)"><path id="eifc865r5wb89" d="M146,74.189000C136.047000,64.215000,129.239000,68.274000,115.411000,70.925000C114.565000,71.087000,109.091000,72.464000,110.100000,74.394000C110.583000,75.318000,112.136000,75.208000,113.003000,75.192000C126.691000,74.936000,133.348000,65.197000,146,74.189000Z" transform="translate(0,0)" fill="rgb(42,35,43)" stroke="none" stroke-width="1"/></g></g></g></g><g id="eifc865r5wb90"><g id="eifc865r5wb91"><path id="eifc865r5wb92" d="M91.115000,115.499000C90.237000,117.563000,97.049000,119.791000,99.634000,119.928000C102.434000,120.075000,110.280000,117.028000,108.950000,114.936000C107.551000,112.741000,102.307000,114.650000,100.044000,114.650000C97.792000,114.649000,92.291000,112.745000,91.115000,115.499000Z" fill="rgb(231,193,189)" stroke="none" stroke-width="1"/><path id="eifc865r5wb93" d="M101.857000,117.058000C101.627000,116.299000,103.733000,115.474000,104.514000,115.364000C105.615000,115.204000,107.874000,116.166000,107.672000,116.956000C107.488000,117.654000,105.524000,116.423000,104.812000,116.527000C104.078000,116.634000,102.075000,117.769000,101.857000,117.058000ZM94.974000,116.811000C95.942000,116.811000,97.378000,117.434000,97.642000,116.885000C97.957000,116.230000,95.503000,115.424000,94.782000,115.513000C94.186000,115.583000,92.049000,116.828000,92.343000,117.352000C92.617000,117.833000,93.698000,116.811000,94.974000,116.811000Z" fill="rgb(200,131,124)" stroke="none" stroke-width="1"/><path id="eifc865r5wb94" d="M100.089000,111.999000C100.696000,111.999000,101.831000,111.259000,101.881000,109.769000C102.082000,103.761000,100.925000,85.936000,100.089000,85.999000C99.309000,86.058000,97.822000,103.636000,98.141000,109.769000C98.220000,111.271000,99.404000,111.999000,100.089000,111.999000Z" opacity="0.2" fill="rgb(255,255,255)" stroke="none" stroke-width="1"/></g></g><g id="eifc865r5wb95"><g id="eifc865r5wb96"><g id="eifc865r5wb97"><path id="eifc865r5wb98" d="M100,18.130000L100,18.130000L100,18.130000L100,18.130000Z" fill="rgb(42,35,43)" stroke="none" stroke-width="1"/></g></g></g><g id="eifc865r5wb99"><g id="eifc865r5wb100"><path id="eifc865r5wb101" d="M100,18.130000L100,18.130000L100,18.130000L100,18.130000Z" fill="rgb(42,35,43)" stroke="none" stroke-width="1"/></g></g><g id="eifc865r5wb102"><g id="eifc865r5wb103"><g id="eifc865r5wb104"><g id="eifc865r5wb105"><g id="eifc865r5wb106"><g id="eifc865r5wb107" transform="matrix(1 0 0 1 0.61083630499984 1.88135717500003)"><g id="eifc865r5wb108" transform="matrix(1 0 0 1 9.90000195499989 75.52598390000000)"><g id="eifc865r5wb109"><path id="eifc865r5wb110" d="M29.382000,67.866000C29.462000,62.476000,30.502000,53.946000,32.303000,49.086000C29.023000,52.476000,24.893000,56.476000,21.523000,58.586000C25.983000,54.726000,27.364000,51.426000,37.444000,30.286000C43.633000,17.306000,47.731000,3.536000,59.822000,1.916000C63.901000,1.356000,67.872000,2.906000,71.601000,4.506000C81.211000,-4.284000,93.191000,-7.825000,104.272000,-6.825000C138.151000,-4.315000,147.188000,17.566000,165.308000,21.946000C162.468000,22.776000,157.692000,21.478000,154.972000,20.198000C158.722000,25.258000,157.394000,24.729000,165.664000,32.999000C169.033000,36.339000,172.146000,40.443000,176.207000,42.853000C170.758000,42.172000,167.894000,38.019000,159.925000,33.749000C161.074000,35.589000,165.174000,41.843000,171.854000,48.243000C174.724000,50.983000,179.454000,54.827000,182.752000,57.157000C180.343000,56.197000,173.264000,53.431000,167.145000,48.005000C170.314000,52.536000,179.407000,60.945000,175.290000,77.886000C174.458000,70.480000,175.292000,61.471000,168.241000,56.991000C169.025000,60.292000,172.055000,67.213000,169.845000,74.699000L158.910000,74.699000C158.863000,78.538000,157.568000,85.633000,156.002000,90.468000C155.851000,90.367000,155.705000,90.260000,155.553000,90.162000C155.553000,90.162000,155.050000,93.419000,148.209000,104.552000C148.572000,96.479000,147.987000,90.659000,146.656000,83.138000C130.310000,63.151000,115.037000,58.464000,103.415000,54.983000C111.219000,63.738000,117.228000,73.820000,120.607000,82.595000C109.561000,70.935000,86.773000,52.828000,86.773000,52.828000C86.773000,52.828000,87.137000,57.694000,114.485000,81.874000C105.036000,76.079000,84.787000,66.868000,69.919000,45.596000C67.061000,50.096000,80.738000,76.390000,81.183000,77.397000C73.209000,71.311000,66.537000,60.761000,63.748000,50.777000C63.748000,50.777000,60.032000,56.820000,58.901000,61.412000C55.906000,73.574000,56.917000,83.693000,56.373000,87.537000C54.641000,78.816000,53.331000,74.055000,53.334000,74.182000C49.268000,92.075000,53.938000,106.576000,54.006000,110.906000C48.600000,100.471000,41.934000,85.908000,40.297000,74.271000L28.700000,74.271000C29.369000,69.944000,28.873000,69.932000,29.382000,67.866000Z" transform="matrix(1 0 0 1 -8.12433826000024 -76.31434107500007)" fill="rgb(42,35,43)" stroke="none" stroke-width="1"/><path id="eifc865r5wb111" d="M38.058000,105.866000C33.531000,95.158000,34.198000,90.733000,35.404000,82.362000C33.326000,84.613000,32.082000,87.632000,28.691000,90.425000C28.954000,88.419000,32.960000,76.786000,33.278000,75.932000C29.434000,79.436000,27.309000,80.183000,25.469000,80.904000C26.711000,79.051000,27.535000,76.897000,29.369000,72.971000L40.898000,72.971000C41.129000,77.252000,41.964000,82.540000,43.210000,87.185000C42.551000,87.622000,40.819000,90.365000,38.058000,105.866000ZM158.910000,74.599000C158.863000,78.438000,157.568000,85.633000,156.002000,90.468000C156.807000,91.009000,157.745000,91.641000,157.541000,91.477000C163.492000,96.255000,164.449000,97.080000,165.055000,104.863000C169.379000,95.533000,165.711000,83.556000,165.494000,74.600000L158.910000,74.600000ZM165.502000,74.599000L169.943000,74.599000C169.361000,76.568000,168.007000,79.387000,166.521000,81.232000C165.963000,79.067000,165.656000,75.986000,165.502000,74.599000Z" transform="matrix(1 0 0 1 -8.45217703000004 -75.17410681000003)" fill="rgb(27,20,28)" stroke="none" stroke-width="1"/></g></g></g></g></g></g></g><g id="eifc865r5wb112"/><g id="eifc865r5wb113"/></g><g id="eifc865r5wb114"><g id="eifc865r5wb115"><path id="eifc865r5wb116" d="M100,18.130000L100,18.130000L100,18.130000L100,18.130000Z" fill="rgb(38,18,11)" stroke="none" stroke-width="1"/></g></g></g></g></g><rect id="eifc865r5wb117" display="none" width="200" height="15" rx="0" ry="0" transform="matrix(1 0 0 1 0 185)" opacity="0.5" fill="rgb(236,240,241)" stroke="none" stroke-width="1"/><text id="eifc865r5wb118" display="none" dx="0" dy="0" font-family="Roboto, Helvetica, Arial, sans-serif" font-size="10" fill="rgb(51,51,51)" stroke="none" stroke-width="1"><![CDATA[
      Created on svgAvatars.com
    ]]></text></g></svg>