<svg id="e37hrofixkql1" xmlns="http://www.w3.org/2000/svg" xmlns:xlink="http://www.w3.org/1999/xlink" viewBox="0 0 1030.574710 696.977500" shape-rendering="geometricPrecision" text-rendering="geometricPrecision"><style><![CDATA[#e37hrofixkql5_to {animation: e37hrofixkql5_to__to 6000ms linear infinite normal forwards}@keyframes e37hrofixkql5_to__to { 0% {transform: translate(-84.962300px,-101.261000px)} 50% {transform: translate(-84.962300px,-101.261000px)} 100% {transform: translate(-84.962300px,-101.261000px)} }#e37hrofixkql9_to {animation: e37hrofixkql9_to__to 6000ms linear infinite normal forwards}@keyframes e37hrofixkql9_to__to { 0% {transform: translate(0px,0px)} 50% {transform: translate(286.600972px,0.358821px)} 100% {transform: translate(286.600972px,0.358821px)} }#e37hrofixkql12_tr {animation: e37hrofixkql12_tr__tr 6000ms linear infinite normal forwards}@keyframes e37hrofixkql12_tr__tr { 0% {transform: translate(0px,0px) rotate(0deg)} 50% {transform: translate(0px,0px) rotate(-4.289512deg)} 100% {transform: translate(0px,0px) rotate(-0.369273deg)} }#e37hrofixkql28_to {animation: e37hrofixkql28_to__to 6000ms linear infinite normal forwards}@keyframes e37hrofixkql28_to__to { 0% {transform: translate(0px,0px)} 50% {transform: translate(-29.099924px,-213.165241px)} 100% {transform: translate(-12.470444px,129.188783px)} }]]></style><g id="e37hrofixkql2" transform="matrix(1 0 0 1 285.25662890500030 17.07789483000006)"><g id="e37hrofixkql3" transform="matrix(1 0 0 1 -285.25664986499896 -67.89831865999994)"><path id="e37hrofixkql4" d="M844.568600,259.062790C846.254670,226.845583,872.868573,201.587606,905.129870,201.587000C906.973000,201.587000,908.793040,201.683120,910.594290,201.844110C925.011296,177.041286,951.528793,161.774824,980.217293,161.761259C1008.905792,161.747694,1035.437714,176.989071,1049.878170,201.778250C1051.397790,201.664120,1052.927630,201.587000,1054.476420,201.587000C1086.737715,201.587611,1113.351615,226.845585,1115.037690,259.062790" transform="matrix(1 0 0 1 -84.96230000000000 -101.26100000000000)" fill="none" stroke="rgb(63,61,86)" stroke-width="1" stroke-miterlimit="10"/><g id="e37hrofixkql5_to" transform="translate(-84.962300,-101.261000)"><path id="e37hrofixkql5" d="M831.937520,263.727880C833.623590,231.510673,860.237493,206.252696,892.498790,206.252090C894.341920,206.252090,896.161960,206.348210,897.963210,206.509200C912.380216,181.706376,938.897713,166.439914,967.586213,166.426349C996.274712,166.412784,1022.806634,181.654161,1037.247090,206.443340C1038.766710,206.329210,1040.296550,206.252090,1041.845340,206.252090C1074.106635,206.252701,1100.720535,231.510675,1102.406610,263.727880" transform="translate(0,0)" fill="rgb(242,242,242)" stroke="none" stroke-width="1"/></g></g></g><g id="e37hrofixkql6"><path id="e37hrofixkql7" d="M155.987600,605.488250C161.442150,499.508690,249.096300,415.255880,356.432230,415.255880C362.532600,415.255880,368.556540,415.574030,374.518300,416.106880C422.235453,334.014924,510.002598,283.486254,604.955291,283.441352C699.907984,283.396451,787.722878,333.842090,835.517650,415.888880C840.547250,415.511110,845.610650,415.255880,850.736840,415.255880C958.072770,415.255880,1045.726920,499.508690,1051.181470,605.488250" transform="matrix(1 0 0 1 -84.96230000000000 -101.26100000000000)" fill="rgb(242,242,242)" stroke="none" stroke-width="1"/><path id="e37hrofixkql8" d="M197.793730,590.047810C203.248280,484.068250,290.902430,399.815440,398.238370,399.815440C404.338730,399.815440,410.362670,400.133590,416.324430,400.666440C464.041592,318.574489,551.808743,268.045829,646.761435,268.000937C741.714128,267.956046,829.529017,318.401695,877.323780,400.448490C882.353380,400.070720,887.416780,399.815490,892.542970,399.815490C999.878900,399.815490,1087.533060,484.068300,1092.987600,590.047860" transform="matrix(1 0 0 1 -84.96230000000000 -101.26100000000000)" fill="none" stroke="rgb(63,61,86)" stroke-width="1" stroke-miterlimit="10"/></g><g id="e37hrofixkql9_to" transform="translate(0,0)"><g id="e37hrofixkql9" transform="translate(0,0)"><path id="e37hrofixkql10" d="M102.052880,233.415750C104.334241,189.824050,140.344353,155.648584,183.995710,155.647750C186.489570,155.647750,188.952190,155.777820,191.389390,155.995630C210.896417,122.435996,246.776099,101.779605,285.593270,101.761253C324.410441,101.742901,360.309639,122.365357,379.848390,155.906530C381.904520,155.752100,383.974480,155.647750,386.070080,155.647750C429.721437,155.648584,465.731549,189.824050,468.012910,233.415750" transform="matrix(1 0 0 1 -84.96230000000000 -101.26100000000000)" fill="none" stroke="rgb(63,61,86)" stroke-width="1" stroke-miterlimit="10"/><path id="e37hrofixkql11" d="M84.962310,239.727880C87.243671,196.136180,123.253783,161.960714,166.905140,161.959880C169.399010,161.959880,171.861620,162.089950,174.298820,162.307770C193.805843,128.748131,229.685526,108.091735,268.502700,108.073383C307.319874,108.055031,343.219073,128.677491,362.757820,162.218670C364.813950,162.064230,366.883910,161.959880,368.979510,161.959880C412.630867,161.960714,448.640979,196.136180,450.922340,239.727880" transform="matrix(1 0 0 1 -84.96230000000000 -101.26100000000000)" fill="rgb(242,242,242)" stroke="none" stroke-width="1"/></g></g><g id="e37hrofixkql12_tr" transform="translate(0,0) rotate(0)"><g id="e37hrofixkql12" transform="translate(0,0)"><ellipse id="e37hrofixkql13" rx="16" ry="11.500000" transform="matrix(1 0 0 1 427.52499999999998 201.66000000000000)" fill="rgb(255,101,132)" stroke="none" stroke-width="1"/><path id="e37hrofixkql14" d="M504.987600,456.921060C504.987600,456.921060,458.987600,450.921060,432.987600,481.921060C406.987600,512.921060,387.987600,503.921060,389.987600,508.921060C391.987600,513.921060,487.987600,572.921060,543.987600,565.921060C578.080300,561.659470,596.235680,557.768520,605.223010,555.376410C609.080464,554.384623,612.482394,552.102712,614.863460,548.909890C616.197106,547.142674,617.850390,545.641283,619.737560,544.483590C621.695744,543.197179,623.048777,541.171885,623.487550,538.870404C623.926323,536.568923,623.413349,534.187879,622.065820,532.271240C606.206010,509.325380,563.149140,448.542590,550.987600,446.921060C535.987600,444.921060,504.987600,456.921060,504.987600,456.921060Z" transform="matrix(1 0 0 1 -84.96230000000000 -101.26100000000000)" fill="rgb(0,191,166)" stroke="none" stroke-width="1"/><path id="e37hrofixkql15" d="M496.425830,399.134430C496.219300,397.724330,495.966540,396.323240,495.789510,394.909130C495.185130,390.081220,492.889870,378.383300,484.948900,380.396130C474.987600,382.921070,463.987600,407.921070,463.987600,407.921070C463.987600,407.921070,454.987600,435.921070,441.987600,442.921070C428.987600,449.921070,392.987600,485.921070,392.987600,485.921070C392.987600,485.921070,362.987600,493.921070,373.987600,501.921070C384.987600,509.921070,398.987600,496.921070,398.987600,496.921070L434.356100,475.700000C446.726911,468.258767,457.363407,458.258109,465.552100,446.368860C472.920340,435.697440,482.147180,423.364280,487.994100,419.289170C491.535414,416.921443,494.192826,413.447506,495.551260,409.409970C496.619080,406.095599,496.918163,402.581589,496.425830,399.134430Z" transform="matrix(1 0 0 1 -84.96230000000000 -101.26100000000000)" fill="rgb(251,190,190)" stroke="none" stroke-width="1"/><path id="e37hrofixkql16" d="M532.987600,377.921060C532.987600,377.921060,529.663320,384.569630,498.770600,378.168370C490.398352,376.322921,481.828612,380.320339,477.862600,387.921060C473.987600,395.671060,473.487600,406.921060,486.987600,420.921060C486.987600,420.921060,510.987600,447.921060,498.987600,458.921060C486.987600,469.921060,555.987600,451.921060,555.987600,451.921060C555.987600,451.921060,546.987600,445.921060,554.987600,427.921060C561.273320,413.778200,560.768210,405.808810,555.897600,399.647370C552.957684,395.814410,550.957880,391.345260,550.058890,386.599050C548.693400,379.904920,545.320250,371.516240,536.987610,370.921050C536.987610,370.921050,528.228390,370.408050,527.608000,372.664530C526.987610,374.921010,534.987600,376.921060,532.987600,377.921060Z" transform="matrix(1 0 0 1 -84.96230000000000 -101.26100000000000)" fill="rgb(0,191,166)" stroke="none" stroke-width="1"/><path id="e37hrofixkql17" d="M346.987600,657.921060C346.987600,657.921060,336.987600,650.921060,344.987600,643.921060C352.987600,636.921060,355.987600,630.921060,355.987600,630.921060C355.987600,630.921060,341.987600,615.921060,336.987600,623.921060C331.987600,631.921060,309.987600,667.921060,314.987600,678.921060C319.987600,689.921060,324.987600,692.921060,330.987600,680.921060C336.987600,668.921060,352.119760,659.473650,352.119760,659.473650Z" transform="matrix(1 0 0 1 -84.96230000000000 -101.26100000000000)" fill="rgb(63,61,86)" stroke="none" stroke-width="1"/><path id="e37hrofixkql18" d="M477.987600,533.921060C477.987600,533.921060,460.987600,572.921060,453.987600,592.921060C450.312600,603.421060,439.195730,606.754810,429.463870,607.552810C417.430793,608.489455,405.741601,612.012068,395.194620,617.880070C381.198360,625.736210,362.099930,634.651390,349.987620,632.921070C328.987620,629.921070,345.987620,662.921070,345.987620,662.921070C345.987620,662.921070,376.987620,643.921070,405.987620,641.921070C434.987620,639.921070,465.987620,636.921070,479.987620,618.921070C493.987620,600.921070,527.987620,543.921070,527.987620,543.921070Z" transform="matrix(1 0 0 1 -84.96230000000000 -101.26100000000000)" fill="rgb(251,190,190)" stroke="none" stroke-width="1"/><path id="e37hrofixkql19" d="M537.742610,755.102100C535.263270,756.824290,528.894430,758.572100,516.987610,745.921100C516.987610,745.921100,509.987610,735.921100,503.987610,745.921100C497.987610,755.921100,501.987610,756.921100,505.987610,761.921100C509.848940,766.747750,540.734340,799.530350,553.665910,798.199370C554.115337,798.155291,554.558562,798.061974,554.987610,797.921100C566.987610,793.921100,549.987610,780.921100,549.987610,780.921100C549.987610,780.921100,538.842250,763.774390,538.778700,755.677280C538.785674,755.428153,538.653298,755.195885,538.435399,755.074919C538.217499,754.953953,537.950362,754.964434,537.742610,755.102100Z" transform="matrix(1 0 0 1 -84.96230000000000 -101.26100000000000)" fill="rgb(63,61,86)" stroke="none" stroke-width="1"/><path id="e37hrofixkql20" d="M501.987600,543.921060C501.987600,543.921060,508.987600,628.921060,506.987600,636.921060C504.987600,644.921060,498.987600,660.921060,508.987600,707.921060C518.987600,754.921060,506.987600,751.921060,506.987600,751.921060L538.987600,765.921060C538.987600,765.921060,527.987600,711.921060,529.987600,696.921060C531.987600,681.921060,530.987600,650.921060,536.987600,629.921060C542.987600,608.921060,543.987600,549.921060,543.987600,549.921060Z" transform="matrix(1 0 0 1 -84.96230000000000 -101.26100000000000)" opacity="0.1" fill="rgb(0,0,0)" stroke="none" stroke-width="1"/><path id="e37hrofixkql21" d="M501.987600,543.921060C501.987600,543.921060,508.987600,628.921060,506.987600,636.921060C504.987600,644.921060,498.987600,660.921060,508.987600,707.921060C518.987600,754.921060,506.987600,751.921060,506.987600,751.921060L538.987600,765.921060C538.987600,765.921060,527.987600,711.921060,529.987600,696.921060C531.987600,681.921060,530.987600,650.921060,536.987600,629.921060C542.987600,608.921060,543.987600,549.921060,543.987600,549.921060Z" transform="matrix(1 0 0 1 -84.96230000000000 -101.26100000000000)" fill="rgb(251,190,190)" stroke="none" stroke-width="1"/><path id="e37hrofixkql22" d="M536.987600,372.921060C536.987600,372.921060,542.987600,360.921060,564.987600,354.921060C586.987600,348.921060,629.987600,276.921060,629.987600,276.921060C629.987600,276.921060,627.987600,233.921060,637.987600,246.921060C647.987600,259.921060,639.987600,285.921060,639.987600,285.921060L614.183420,330.491910C609.368933,338.810793,603.345774,346.368607,596.311020,352.918060C580.357260,367.767480,551.852020,393.921060,548.987600,393.921060C544.987600,393.921060,536.987600,372.921060,536.987600,372.921060Z" transform="matrix(1 0 0 1 -84.96230000000000 -101.26100000000000)" fill="rgb(251,190,190)" stroke="none" stroke-width="1"/><ellipse id="e37hrofixkql23" rx="11" ry="15.500000" transform="matrix(1 0 0 1 372.52499999999998 190.66000000000000)" fill="rgb(255,101,132)" stroke="none" stroke-width="1"/><ellipse id="e37hrofixkql24" rx="22" ry="31" transform="matrix(1 0 0 1 394.52499999999998 213.16000000000000)" fill="rgb(255,101,132)" stroke="none" stroke-width="1"/><ellipse id="e37hrofixkql25" rx="22" ry="31" transform="matrix(1 0 0 1 410.52499999999998 223.16000000000000)" fill="rgb(255,101,132)" stroke="none" stroke-width="1"/><circle id="e37hrofixkql26" r="25" transform="matrix(1 0 0 1 427.02499999999998 228.66000000000000)" fill="rgb(251,190,190)" stroke="none" stroke-width="1"/><path id="e37hrofixkql27" d="M495.987600,336.921060C495.987600,336.921060,509.987600,370.921060,488.987600,378.921060C488.987600,378.921060,518.987600,391.921060,525.987600,388.921060C532.987600,385.921060,537.987600,378.921060,537.987600,376.921060C537.987600,374.921060,530.987600,373.921060,530.987600,373.921060C530.987600,373.921060,517.987600,374.921060,527.987600,341.921060Z" transform="matrix(1 0 0 1 -84.96230000000000 -101.26100000000000)" fill="rgb(251,190,190)" stroke="none" stroke-width="1"/></g></g><g id="e37hrofixkql28_to" transform="translate(0,0)"><g id="e37hrofixkql28" transform="translate(0,0)"><path id="e37hrofixkql29" d="M831.804430,200.449530C832.824128,195.172752,834.217701,189.975148,835.974610,184.896030C837.781970,179.953490,840.067860,175.736940,842.616190,175.736940C848.794340,175.736940,820.992670,149.479800,820.992670,149.479800C820.992670,149.479800,819.247520,152.723290,816.359060,157.094360C814.224824,160.357857,811.914922,163.503035,809.439560,166.516000C806.144294,170.680207,802.226591,174.311366,797.824560,177.281470C785.468310,185.004160,831.804430,200.449530,831.804430,200.449530Z" transform="matrix(1 0 0 1 -84.96230000000000 -101.26100000000000)" fill="rgb(160,97,106)" stroke="none" stroke-width="1"/><path id="e37hrofixkql30" d="M913.601290,302.833700C913.601290,302.833700,975.538410,341.966580,956.454290,348.396800C937.370170,354.827020,905.754050,308.852860,905.754050,308.852860Z" transform="matrix(1 0 0 1 -84.96230000000000 -101.26100000000000)" fill="rgb(160,97,106)" stroke="none" stroke-width="1"/><path id="e37hrofixkql31" d="M830.524800,213.946600C830.524800,213.946600,860.188930,235.577600,868.858260,252.032220C877.527590,268.486840,922.599060,305.052160,922.599060,305.052160C922.599060,305.052160,913.293510,323.438100,908.794630,322.328860C904.295750,321.219620,811.544000,252.218110,801.786000,246.630650C792.028000,241.043190,806.900490,206.531080,830.524800,213.946600Z" transform="matrix(1 0 0 1 -84.96230000000000 -101.26100000000000)" fill="rgb(0,191,166)" stroke="none" stroke-width="1"/><path id="e37hrofixkql32" d="M830.524800,213.946600C830.524800,213.946600,860.188930,235.577600,868.858260,252.032220C877.527590,268.486840,922.599060,305.052160,922.599060,305.052160C922.599060,305.052160,913.293510,323.438100,908.794630,322.328860C904.295750,321.219620,811.544000,252.218110,801.786000,246.630650C792.028000,241.043190,806.900490,206.531080,830.524800,213.946600Z" transform="matrix(1 0 0 1 -84.96230000000000 -101.26100000000000)" opacity="0.1" fill="rgb(0,0,0)" stroke="none" stroke-width="1"/><path id="e37hrofixkql33" d="M918.298520,252.963800C918.298520,252.963800,987.802700,276.131860,970.812790,286.943620C953.822880,297.755380,912.120370,260.686490,912.120370,260.686490Z" transform="matrix(1 0 0 1 -84.96230000000000 -101.26100000000000)" fill="rgb(160,97,106)" stroke="none" stroke-width="1"/><path id="e37hrofixkql34" d="M873.506940,569.593940C873.506940,569.593940,902.853150,557.237650,899.764070,575.772090C896.674990,594.306530,882.774160,611.296450,882.774160,620.563670C882.774160,629.830890,856.517030,649.909880,851.883410,645.276270C847.249790,640.642660,859.606100,622.108210,856.517030,611.296450C853.427960,600.484690,850.338880,575.772090,850.338880,575.772090Z" transform="matrix(1 0 0 1 -84.96230000000000 -101.26100000000000)" fill="rgb(85,83,110)" stroke="none" stroke-width="1"/><path id="e37hrofixkql35" d="M873.506940,569.593940C873.506940,569.593940,902.853150,557.237650,899.764070,575.772090C896.674990,594.306530,882.774160,611.296450,882.774160,620.563670C882.774160,629.830890,856.517030,649.909880,851.883410,645.276270C847.249790,640.642660,859.606100,622.108210,856.517030,611.296450C853.427960,600.484690,850.338880,575.772090,850.338880,575.772090Z" transform="matrix(1 0 0 1 -84.96230000000000 -101.26100000000000)" opacity="0.1" fill="rgb(0,0,0)" stroke="none" stroke-width="1"/><path id="e37hrofixkql36" d="M864.239710,583.494780C864.239710,583.494780,893.585920,571.138480,890.496850,589.672930C887.407780,608.207380,873.506940,625.197290,873.506940,634.464510C873.506940,643.731730,847.249800,663.810720,842.616190,659.177110C837.982580,654.543500,850.338880,636.009050,847.249800,625.197290C844.160720,614.385530,841.071650,589.672930,841.071650,589.672930Z" transform="matrix(1 0 0 1 -84.96230000000000 -101.26100000000000)" fill="rgb(85,83,110)" stroke="none" stroke-width="1"/><path id="e37hrofixkql37" d="M796.280070,470.743560C796.280070,470.743560,887.407770,557.237650,884.318700,564.960330C881.229630,572.683010,861.150640,589.672930,861.150640,589.672930C861.150640,589.672930,791.646460,498.545230,796.280070,470.743560Z" transform="matrix(1 0 0 1 -84.96230000000000 -101.26100000000000)" fill="rgb(63,61,86)" stroke="none" stroke-width="1"/><path id="e37hrofixkql38" d="M796.280070,470.743560C796.280070,470.743560,887.407770,557.237650,884.318700,564.960330C881.229630,572.683010,861.150640,589.672930,861.150640,589.672930C861.150640,589.672930,791.646460,498.545230,796.280070,470.743560Z" transform="matrix(1 0 0 1 -84.96230000000000 -101.26100000000000)" opacity="0.1" fill="rgb(0,0,0)" stroke="none" stroke-width="1"/><path id="e37hrofixkql39" d="M774.656550,314.745290C774.656550,314.745290,797.824610,337.913350,791.646460,382.704930C785.468310,427.496510,796.280070,470.743560,808.636370,484.644390C820.992670,498.545220,871.962370,578.861170,871.962370,578.861170C871.962370,578.861170,850.338850,614.385520,833.348940,595.851080C816.359030,577.316640,765.389300,501.634300,765.389300,501.634300C765.389300,501.634300,719.053210,410.506600,714.419600,385.794000C709.785990,361.081400,708.241450,322.468000,720.597750,314.745280C732.954050,307.022560,774.656550,314.745290,774.656550,314.745290Z" transform="matrix(1 0 0 1 -84.96230000000000 -101.26100000000000)" fill="rgb(63,61,86)" stroke="none" stroke-width="1"/><path id="e37hrofixkql40" d="M812.961080,161.975110C831.001270,165.712890,829.209610,166.438820,840.299390,170.331110C840.361170,170.145760,840.422950,169.991310,840.484730,169.836850C842.183730,165.790170,843.249450,171.103380,845.705270,171.103380C851.883410,171.103380,824.081740,144.846240,824.081740,144.846240C824.081740,144.846240,823.031460,146.792360,821.224350,149.711530C820.683760,150.561030,820.096840,151.487750,819.448130,152.460810C818.907540,153.279410,818.320620,154.144360,817.702800,155.040190Z" transform="matrix(1 0 0 1 -84.96230000000000 -101.26100000000000)" opacity="0.1" fill="rgb(0,0,0)" stroke="none" stroke-width="1"/><circle id="e37hrofixkql41" r="29.346200" transform="matrix(1 0 0 1 760.74300000000005 52.85220000000000)" fill="rgb(160,97,106)" stroke="none" stroke-width="1"/><path id="e37hrofixkql42" d="M791.646460,175.736940C791.646460,175.736940,836.438040,180.370550,845.705270,200.449530C854.972500,220.528510,788.557390,317.834370,783.923770,319.378900C779.290150,320.923430,714.419600,328.646130,714.419600,328.646130C714.419600,328.646130,717.508670,229.795740,777.745600,192.726850C777.745630,192.726850,791.646460,186.548700,791.646460,175.736940Z" transform="matrix(1 0 0 1 -84.96230000000000 -101.26100000000000)" fill="rgb(0,191,166)" stroke="none" stroke-width="1"/><path id="e37hrofixkql43" d="M843.388460,157.974760C843.388460,157.974760,851.111150,150.252070,835.665770,144.073920C835.665770,144.073920,851.111150,137.895770,854.200220,128.628550C857.289290,119.361330,868.101060,103.915950,877.368280,128.628550C886.635500,153.341150,903.625410,185.776430,848.022070,185.776430C848.022070,185.776430,834.121240,188.865500,834.121240,176.509210C834.121238,169.216894,837.554608,162.350151,843.388460,157.974760Z" transform="matrix(1 0 0 1 -84.96230000000000 -101.26100000000000)" fill="rgb(63,61,86)" stroke="none" stroke-width="1"/><path id="e37hrofixkql44" d="M816.359060,186.548700C816.359060,186.548700,850.338880,200.449530,862.695180,214.350370C875.051480,228.251210,927.565740,252.963800,927.565740,252.963800C927.565740,252.963800,922.932130,273.042800,918.298520,273.042800C913.664910,273.042800,807.091830,228.251200,796.280070,225.162130C785.468310,222.073060,791.646460,185.004160,816.359060,186.548700Z" transform="matrix(1 0 0 1 -84.96230000000000 -101.26100000000000)" fill="rgb(0,191,166)" stroke="none" stroke-width="1"/></g></g></svg>