<svg id="enmkosjhdohm1" xmlns="http://www.w3.org/2000/svg" xmlns:xlink="http://www.w3.org/1999/xlink" viewBox="0 0 1136 647.595250" shape-rendering="geometricPrecision" text-rendering="geometricPrecision"><style><![CDATA[#enmkosjhdohm2_to {animation: enmkosjhdohm2_to__to 6000ms linear infinite normal forwards}@keyframes enmkosjhdohm2_to__to { 0% {transform: translate(0px,0px)} 50% {transform: translate(-312.735441px,-259.352260px)} 100% {transform: translate(-312.735441px,-259.352260px)} }#enmkosjhdohm42_to {animation: enmkosjhdohm42_to__to 6000ms linear infinite normal forwards}@keyframes enmkosjhdohm42_to__to { 0% {transform: translate(-45.070616px,-4.337718px)} 50% {transform: translate(-1056.273926px,-132.846179px)} 100% {transform: translate(-1056.273926px,-132.846179px)} }]]></style><g id="enmkosjhdohm2_to" transform="translate(0,0)"><circle id="enmkosjhdohm2" r="86" transform="translate(248,214.523000)" fill="rgb(255,101,132)" stroke="none" stroke-width="1"/></g><path id="enmkosjhdohm3" d="M1132.400000,737.994860C1127.343180,742.545672,1122.024066,746.796289,1116.470000,750.724860C1103.288257,759.995185,1089.043466,767.653074,1074.040070,773.534860C1011.689970,772.034860,920.030070,764.384860,804.330070,760.304860Q791.385070,755.879940,777.850070,750.724860Q759.940070,743.899860,741.000070,735.724860C688.560070,713.064860,634.720070,698.334860,581.390070,689.534860Q564.200070,686.699860,547.100070,684.674860C306.280000,655.874870,84.200000,740.494860,58.480000,750.724900L56,750.724900L71.820000,720.084900L341,198.724900L403.950000,360.344900L424.040000,411.934900L479.410000,335.954900L508,296.724900L638.200000,445.994900L675,364.724900L929.780000,572.644900L943.990000,584.234900L958.370000,595.974900L962.950000,599.714900L1099.159900,710.874900Z" transform="matrix(1 0 0 1 -32 -126.20200000000000)" fill="rgb(242,242,242)" stroke="none" stroke-width="1"/><polygon id="enmkosjhdohm4" points="285,177.523000 311,120.523000 347,203.523000 316,143.523000 285,177.523000" opacity="0.1" fill="rgb(0,0,0)" stroke="none" stroke-width="1"/><path id="enmkosjhdohm5" d="M581.390000,689.534900Q564.200000,686.699900,547.100000,684.674900L424.040000,411.934860Z" transform="matrix(1 0 0 1 -32 -126.20200000000000)" opacity="0.1" fill="rgb(0,0,0)" stroke="none" stroke-width="1"/><polygon id="enmkosjhdohm6" points="447.411000,209.752000 476,187.523000 606,337.523000 474,209.523000 447.411000,209.752000" opacity="0.1" fill="rgb(0,0,0)" stroke="none" stroke-width="1"/><polygon id="enmkosjhdohm7" points="606.197000,319.789000 866,568.523000 830.464000,576.904000 606.197000,319.789000" opacity="0.1" fill="rgb(0,0,0)" stroke="none" stroke-width="1"/><path id="enmkosjhdohm8" d="M1168,751.224900C1168,770.594900,1135.040000,775.004900,1074.040000,773.534900C1011.689900,772.034900,920.030000,764.384900,804.330000,760.304900C760.570000,758.764900,713.360000,757.724900,663,757.724900C349.300000,757.724900,32,797.894900,32,751.224900C32,740.224900,46.120000,729.724900,71.820000,720.084900C148.020000,691.504900,326,670.574900,539.220000,667.204900Q553.770000,666.964900,568.530060,666.854900Q584.160060,666.719900,600.000060,666.724900C684.770060,666.724900,765.210060,669.484900,837.460060,674.434900C837.690060,674.454900,837.910060,674.474900,838.140060,674.484950Q846.840060,675.084950,855.370060,675.724950Q864.685060,676.429950,873.800060,677.174950C875.050060,677.274950,876.300060,677.374900,877.540060,677.484950C878.440060,677.554900,879.340060,677.634950,880.230060,677.714950C881.870060,677.844950,883.510060,677.984950,885.130060,678.134950C885.186914,678.132985,885.243828,678.136333,885.300060,678.144950Q889.770120,678.534950,894.180060,678.924950C894.490060,678.954950,894.800060,678.984950,895.110060,679.004900C980.560060,686.754900,1051.180000,697.764900,1099.159980,710.874900C1143.060060,722.864920,1168,736.604910,1168,751.224900Z" transform="matrix(1 0 0 1 -32 -126.20200000000000)" fill="rgb(63,61,86)" stroke="none" stroke-width="1"/><path id="enmkosjhdohm9" d="M102.886720,584.384390C102.886720,648.400520,143.047080,700.201550,192.677560,700.201550" transform="matrix(1 0 0 1 -32 -126.20200000000000)" fill="rgb(63,61,86)" stroke="none" stroke-width="1"/><path id="enmkosjhdohm10" d="M192.677560,700.201550C192.677560,635.466140,237.494190,583.083070,292.878930,583.083070" transform="matrix(1 0 0 1 -32 -126.20200000000000)" fill="rgb(0,191,166)" stroke="none" stroke-width="1"/><path id="enmkosjhdohm11" d="M135.419640,590.187560C135.419640,650.996070,161.029140,700.201560,192.677560,700.201560" transform="matrix(1 0 0 1 -32 -126.20200000000000)" fill="rgb(0,191,166)" stroke="none" stroke-width="1"/><path id="enmkosjhdohm12" d="M192.677560,700.201550C192.677560,617.484080,244.478560,550.550160,308.494730,550.550160" transform="matrix(1 0 0 1 -32 -126.20200000000000)" fill="rgb(63,61,86)" stroke="none" stroke-width="1"/><path id="enmkosjhdohm13" d="M173.787880,701.018080C173.787880,701.018080,186.521700,700.625890,190.359350,697.893150C194.197000,695.160410,209.947170,691.897360,210.899200,696.280080C211.851230,700.662800,230.035770,718.077720,215.659350,718.193690C201.282930,718.309660,182.254950,715.954340,178.424680,713.621170C174.594410,711.288000,173.787880,701.018080,173.787880,701.018080Z" transform="matrix(1 0 0 1 -32 -126.20200000000000)" fill="rgb(168,168,168)" stroke="none" stroke-width="1"/><path id="enmkosjhdohm14" d="M215.915910,716.668000C201.539490,716.784000,182.511520,714.428670,178.681250,712.095500C175.764250,710.318670,174.601920,703.942960,174.212990,701.001500C173.943650,701.013080,173.787890,701.018070,173.787890,701.018070C173.787890,701.018070,174.594420,711.287980,178.424690,713.621160C182.254960,715.954340,201.282930,718.309660,215.659350,718.193670C219.809260,718.160200,221.242700,716.683670,221.164000,714.496940C220.587480,715.818140,219.004740,716.643140,215.915910,716.668000Z" transform="matrix(1 0 0 1 -32 -126.20200000000000)" opacity="0.2" fill="rgb(0,0,0)" stroke="none" stroke-width="1"/><path id="enmkosjhdohm15" d="M794.886720,575.384390C794.886720,639.400520,835.047080,691.201550,884.677560,691.201550Z" transform="matrix(1 0 0 1 -32 -126.20200000000000)" fill="rgb(63,61,86)" stroke="none" stroke-width="1"/><path id="enmkosjhdohm16" d="M884.677560,691.201550C884.677560,626.466140,929.494190,574.083070,984.878930,574.083070Z" transform="matrix(1 0 0 1 -32 -126.20200000000000)" fill="rgb(0,191,166)" stroke="none" stroke-width="1"/><path id="enmkosjhdohm17" d="M827.419640,581.187560C827.419640,641.996070,853.029140,691.201560,884.677560,691.201560Z" transform="matrix(1 0 0 1 -32 -126.20200000000000)" fill="rgb(0,191,166)" stroke="none" stroke-width="1"/><path id="enmkosjhdohm18" d="M884.677560,691.201550C884.677560,608.484080,936.478560,541.550160,1000.494730,541.550160Z" transform="matrix(1 0 0 1 -32 -126.20200000000000)" fill="rgb(63,61,86)" stroke="none" stroke-width="1"/><path id="enmkosjhdohm19" d="M865.787880,692.018080C865.787880,692.018080,878.521700,691.625890,882.359350,688.893150C886.197000,686.160410,901.947170,682.897360,902.899200,687.280080C903.851230,691.662800,922.035770,709.077720,907.659350,709.193690C893.282930,709.309660,874.254950,706.954340,870.424680,704.621170C866.594410,702.288000,865.787880,692.018080,865.787880,692.018080Z" transform="matrix(1 0 0 1 -32 -126.20200000000000)" fill="rgb(168,168,168)" stroke="none" stroke-width="1"/><path id="enmkosjhdohm20" d="M907.915910,707.668000C893.539490,707.784000,874.511520,705.428670,870.681250,703.095500C867.764250,701.318670,866.601920,694.942960,866.212990,692.001500C865.943650,692.013080,865.787890,692.018070,865.787890,692.018070C865.787890,692.018070,866.594420,702.287980,870.424690,704.621160C874.254960,706.954340,893.282930,709.309660,907.659350,709.193670C911.809260,709.160200,913.242700,707.683670,913.164000,705.496940C912.587480,706.818140,911.004740,707.643140,907.915910,707.668000Z" transform="matrix(1 0 0 1 -32 -126.20200000000000)" opacity="0.2" fill="rgb(0,0,0)" stroke="none" stroke-width="1"/><rect id="enmkosjhdohm21" width="18" height="32.087000" rx="0" ry="0" transform="matrix(1 0 0 1 481 440.47899999999998)" fill="rgb(63,61,86)" stroke="none" stroke-width="1"/><circle id="enmkosjhdohm22" r="3.521740" transform="matrix(1 0 0 1 490 449.08800000000002)" fill="rgb(242,242,242)" stroke="none" stroke-width="1"/><path id="enmkosjhdohm23" d="M524.182300,539.261330C524.182300,539.261330,518.703850,571.036330,528.565050,572.131980C538.426250,573.227630,529.660740,538.165640,529.660740,538.165640Z" transform="matrix(1 0 0 1 -32 -126.20200000000000)" fill="rgb(255,185,185)" stroke="none" stroke-width="1"/><path id="enmkosjhdohm24" d="M530.756430,430.788180C530.756430,430.788180,519.251700,539.809180,522.538760,541.452710C525.825820,543.096240,534.591330,545.287610,536.234870,543.644080C537.878410,542.000550,544.452530,474.615720,544.452530,474.615720L539.521930,439.553720Z" transform="matrix(1 0 0 1 -32 -126.20200000000000)" fill="rgb(87,90,137)" stroke="none" stroke-width="1"/><path id="enmkosjhdohm25" d="M530.756430,430.788180C530.756430,430.788180,519.251700,539.809180,522.538760,541.452710C525.825820,543.096240,534.591330,545.287610,536.234870,543.644080C537.878410,542.000550,544.452530,474.615720,544.452530,474.615720L539.521930,439.553720Z" transform="matrix(1 0 0 1 -32 -126.20200000000000)" opacity="0.1" fill="rgb(0,0,0)" stroke="none" stroke-width="1"/><rect id="enmkosjhdohm26" width="34.514200" height="37.253400" rx="0" ry="0" transform="matrix(1 0 0 1 519.84799999999996 255.55400000000000)" fill="rgb(47,46,65)" stroke="none" stroke-width="1"/><path id="enmkosjhdohm27" d="M559.792170,398.465380C559.792170,398.465380,558.696480,422.570520,551.026660,424.214050C543.356840,425.857580,558.148660,453.797640,558.148660,453.797640L581.158120,451.606260L586.636560,418.735610C586.636560,418.735610,574.036140,416.544230,578.418900,399.561060Z" transform="matrix(1 0 0 1 -32 -126.20200000000000)" fill="rgb(255,185,185)" stroke="none" stroke-width="1"/><path id="enmkosjhdohm28" d="M559.792170,398.465380C559.792170,398.465380,558.696480,422.570520,551.026660,424.214050C543.356840,425.857580,558.148660,453.797640,558.148660,453.797640L581.158120,451.606260L586.636560,418.735610C586.636560,418.735610,574.036140,416.544230,578.418900,399.561060Z" transform="matrix(1 0 0 1 -32 -126.20200000000000)" opacity="0.1" fill="rgb(0,0,0)" stroke="none" stroke-width="1"/><polygon id="enmkosjhdohm29" points="528.888000,547.829000 530.531000,557.142000 540.393000,554.951000 538.201000,545.637000 528.888000,547.829000" fill="rgb(255,185,185)" stroke="none" stroke-width="1"/><polygon id="enmkosjhdohm30" points="560.115000,533.585000 556.828000,543.446000 567.237000,548.924000 567.785000,540.707000 560.115000,533.585000" fill="rgb(255,185,185)" stroke="none" stroke-width="1"/><path id="enmkosjhdohm31" d="M549.383130,511.869120C549.383130,511.869120,536.234870,550.218210,538.974130,568.297070C541.713390,586.375930,552.670230,672.387460,552.670230,672.387460C552.670230,672.387460,565.270650,680.605120,572.940470,671.291770L567.462000,597.880660C567.462000,597.880660,568.557690,553.505280,572.940450,557.888030C577.323210,562.270780,594.306370,613.768140,594.306370,613.768140L591.019300,660.334890C591.019300,660.334890,592.662840,674.578890,602.524030,668.552550L616.220140,617.055200C616.220140,617.055200,611.837380,548.026840,609.646010,545.287610C607.454640,542.548380,593.210680,510.773430,593.210680,510.773430Z" transform="matrix(1 0 0 1 -32 -126.20200000000000)" fill="rgb(47,46,65)" stroke="none" stroke-width="1"/><circle id="enmkosjhdohm32" r="15.887500" transform="matrix(1 0 0 1 539.02300000000002 267.05799999999999)" fill="rgb(255,185,185)" stroke="none" stroke-width="1"/><path id="enmkosjhdohm33" d="M554.861570,432.431720C554.861570,432.431720,560.887850,441.197220,568.557670,435.170940C576.227490,429.144660,580.610240,428.596810,580.610240,428.596810L589.923600,434.075250L587.732220,455.441170L591.019280,514.608340C591.019280,514.608340,551.026660,517.895410,548.835280,513.512650C546.643900,509.129890,551.574500,490.503200,551.574500,490.503200L544.452500,450.510570L544.452500,432.431720Z" transform="matrix(1 0 0 1 -32 -126.20200000000000)" fill="rgb(0,191,166)" stroke="none" stroke-width="1"/><path id="enmkosjhdohm34" d="M567.462000,448.319200C567.462000,448.319200,557.600810,418.187770,554.313740,417.639920C551.026670,417.092070,541.713330,423.666210,541.713330,423.666210C541.713330,423.666210,528.017220,428.048960,528.017220,430.788210C528.017220,433.527460,530.208600,433.527430,530.208600,433.527430L537.878420,448.319230C537.878420,448.319230,541.165480,461.467490,540.069800,470.232990C539.409000,475.501503,539.225638,480.818952,539.521950,486.120470C539.818262,491.421988,527.469380,558.435900,533.495670,560.627280C539.521960,562.818660,539.521950,565.010030,539.521950,565.010030C539.521950,565.010030,548.287460,569.940630,549.930950,567.749260C551.574440,565.557890,567.461950,471.328680,567.461950,471.328680C567.461950,471.328680,575.679650,455.441170,567.462000,448.319200Z" transform="matrix(1 0 0 1 -32 -126.20200000000000)" fill="rgb(87,90,137)" stroke="none" stroke-width="1"/><path id="enmkosjhdohm35" d="M569.653360,448.319200C569.653360,448.319200,574.583960,436.814470,571.844740,429.144650C571.844740,429.144650,574.583960,428.596810,575.679650,426.953270C576.775340,425.309730,575.679650,417.092080,578.418870,416.544270C581.158090,415.996460,601.428320,416.544270,602.524010,417.639960C603.619700,418.735650,606.906770,426.405470,606.906770,426.405470L605.263230,426.405470L593.210660,446.127860C593.210660,446.127860,599.236950,483.381260,598.141260,489.407550C597.045570,495.433840,614.028740,520.634670,616.220120,522.278200C618.411500,523.921730,628.272690,550.218250,623.889930,552.957470C619.507170,555.696690,581.158090,573.227710,579.514560,564.462200C577.871030,555.696690,566.366300,503.103650,566.366300,503.103650C566.366300,503.103650,565.818450,474.067910,567.461980,466.945940C569.105510,459.823970,569.653360,448.319200,569.653360,448.319200Z" transform="matrix(1 0 0 1 -32 -126.20200000000000)" fill="rgb(87,90,137)" stroke="none" stroke-width="1"/><path id="enmkosjhdohm36" d="M595.402000,535.974260C595.402000,535.974260,583.897270,573.775510,595.402000,572.131980C606.906730,570.488450,604.167500,534.878580,604.167500,534.878580Z" transform="matrix(1 0 0 1 -32 -126.20200000000000)" fill="rgb(255,185,185)" stroke="none" stroke-width="1"/><path id="enmkosjhdohm37" d="M571.321230,681.172380C571.321230,681.172380,580.404080,683.767480,579.755310,689.606460C579.342600,693.059552,577.115724,696.028712,573.916310,697.391770C571.973707,698.654509,570.956750,700.942674,571.321210,703.230770C571.969980,707.123430,566.131000,712.962400,556.399370,710.367300C546.667740,707.772200,548.614070,705.177100,548.614070,705.177100C549.143625,702.298741,550.772327,699.739354,553.155500,698.040570C557.048150,695.445470,561.589580,686.362570,561.589580,685.713840C561.589580,685.065110,562.887130,680.523640,562.887130,680.523640C562.887130,680.523640,568.077350,677.279730,571.321230,681.172380Z" transform="matrix(1 0 0 1 -32 -126.20200000000000)" fill="rgb(47,46,65)" stroke="none" stroke-width="1"/><path id="enmkosjhdohm38" d="M590.471440,668.552550C590.471440,668.552550,580.610240,672.935310,582.801620,678.413750C584.993000,683.892190,592.114970,691.562010,593.210620,699.779670C594.306270,707.997330,603.619620,715.119310,610.193790,710.736550C616.767960,706.353790,609.098100,697.588290,609.098100,697.588290C609.098100,697.588290,600.880440,682.248660,600.332600,678.961590C599.784760,675.674520,601.428280,672.387460,598.141220,671.291770C594.854160,670.196080,590.471440,668.552550,590.471440,668.552550Z" transform="matrix(1 0 0 1 -32 -126.20200000000000)" fill="rgb(47,46,65)" stroke="none" stroke-width="1"/><path id="enmkosjhdohm39" d="M604.989310,432.157790C604.989310,432.157790,603.619700,425.857590,605.263230,429.692490C606.906760,433.527390,618.959340,480.094160,608.002450,508.034210C608.002450,508.034210,606.906770,542.548390,605.811080,542.548390C604.715390,542.548390,591.567130,542.000550,592.114970,538.165640C592.662810,534.330730,593.758510,472.424340,593.758510,468.589430C593.758510,464.754520,595.675960,439.827610,595.675960,439.827610Z" transform="matrix(1 0 0 1 -32 -126.20200000000000)" opacity="0.1" fill="rgb(0,0,0)" stroke="none" stroke-width="1"/><path id="enmkosjhdohm40" d="M602.524000,422.570520C604.279955,424.749815,605.752610,427.142884,606.906760,429.692520C608.550290,433.527430,620.602860,480.094190,609.645980,508.034240C609.645980,508.034240,608.550290,542.548420,607.454600,542.548420C606.358910,542.548420,593.210600,542.000580,593.758500,538.165670C594.306400,534.330760,595.402030,472.424370,595.402030,468.589460C595.402030,464.754550,592.114960,439.005880,592.114960,439.005880Z" transform="matrix(1 0 0 1 -32 -126.20200000000000)" fill="rgb(87,90,137)" stroke="none" stroke-width="1"/><path id="enmkosjhdohm41" d="M562.066640,365.290060C556.318480,367.087260,552.026520,371.783410,548.026350,376.285620C546.470649,377.877441,545.151081,379.683978,544.107880,381.650150C543.091466,384.156525,542.554686,386.831460,542.525440,389.535930Q542.125180,395.823220,542.269650,402.129430C542.362130,406.156770,542.608580,410.285130,541.370650,414.118620C540.173860,417.824780,537.682360,420.957690,535.971010,424.456150C533.240930,430.037150,532.610900,436.809480,535.131010,442.488370C536.518120,445.614110,538.762930,448.274670,540.440330,451.254710C543.406064,456.562067,544.504686,462.711238,543.560210,468.717200L551.449130,458.497690C556.501910,451.952180,561.714470,445.055180,563.136010,436.909410C565.197890,425.094220,558.895260,413.521850,557.651550,401.592770C557.304750,398.266400,557.421320,394.674160,559.304050,391.910040C562.083200,387.829860,568.127940,386.388530,569.799050,381.743200C570.040780,383.688650,581.693710,389.883950,583.097210,388.678840C584.852754,393.415105,584.018891,398.723507,580.895750,402.693410C579.767890,404.093900,578.381400,405.272270,577.281300,406.694680C574.432050,410.378680,573.783830,415.345950,574.186030,419.985820C574.588230,424.625690,575.924030,429.131660,576.630150,433.735090C577.227105,438.318512,577.512170,442.937177,577.483380,447.559220C577.535780,450.758810,577.448000,454.329270,575.204180,456.610800C578.883862,455.320986,582.245815,453.260530,585.065300,450.567170C586.595408,448.901785,588.238723,447.344078,589.983510,445.905170C593.512510,443.359320,598.293820,442.604170,601.172720,439.341170C603.743110,436.427830,604.152640,432.153870,603.548970,428.315890C602.945300,424.477910,601.473310,420.826260,600.732510,417.012370C599.796315,412.161374,600.057959,407.155204,601.494740,402.428230C602.542740,398.995040,604.215190,395.685710,604.419670,392.101940C604.836740,384.792430,599.200870,378.678300,593.782130,373.754850C585.664190,366.379000,573.092000,361.842930,562.066640,365.290060Z" transform="matrix(1 0 0 1 -32 -126.20200000000000)" fill="rgb(47,46,65)" stroke="none" stroke-width="1"/><g id="enmkosjhdohm42_to" transform="translate(-45.070616,-4.337718)"><g id="enmkosjhdohm42" transform="translate(0,0)"><g id="enmkosjhdohm43"><g id="enmkosjhdohm44" transform="matrix(1 0 0 1 42.53459977499983 120.27462500000020)"><g id="enmkosjhdohm45" transform="matrix(1 0 0 1 -20.26068786500025 -74.76616730999996)"><path id="enmkosjhdohm46" d="M948.702290,331.734290L904.163290,334.062720L778.943230,249.622110L755.696620,233.946110L744.398440,226.327730C765.584920,208.420830,852.014290,233.110570,852.014290,233.110570C853.669600,234.507570,854.194740,236.827780,854.119390,239.389860C853.977030,244.191860,851.722300,249.843860,850.852550,251.855120C850.643550,252.339910,850.515080,252.612700,850.515080,252.612700Z" transform="matrix(1 0 0 1 -32 -126.20200000000000)" fill="rgb(63,61,86)" stroke="none" stroke-width="1"/><path id="enmkosjhdohm47" d="M1027.394820,230.568900C1022.537820,232.362200,1014.012230,233.829050,1004.141320,235.013280C977.302650,238.233860,940.521000,239.377110,940.521000,239.377110C940.521000,239.377110,751.495700,255.056110,609.815420,196.746400C609.815420,196.746400,589.207340,185.940000,608.349970,171.402830C611.290837,169.227244,614.419128,167.317166,617.697970,165.695110C620.976812,164.073054,617.777110,165.614550,617.933970,165.464750C620.108533,163.453798,622.459080,161.641939,624.957360,160.050950C632.295880,155.306950,644.690680,149.678370,659.773310,152.227710L1031.864630,212.414070C1031.864630,212.414070,1045.456390,223.897380,1027.394820,230.568900Z" transform="matrix(1 0 0 1 -32 -126.20200000000000)" fill="rgb(63,61,86)" stroke="none" stroke-width="1"/><path id="enmkosjhdohm48" d="M979.198230,233.818490L1048.573870,262.142110L1066,260.207000L1024.504000,229.022820C1024.504000,229.022820,974.315090,218.319000,979.198230,233.818490Z" transform="matrix(1 0 0 1 -32 -126.20200000000000)" fill="rgb(63,61,86)" stroke="none" stroke-width="1"/><path id="enmkosjhdohm49" d="M953.250120,203.294530L1031.149800,148.023530L1065.484290,153.961240L1031.864450,212.413390C1031.864450,212.413390,954.144790,213.031810,953.250120,203.294530Z" transform="matrix(1 0 0 1 -32 -126.20200000000000)" fill="rgb(63,61,86)" stroke="none" stroke-width="1"/><polygon id="enmkosjhdohm50" points="725.129000,43.517000 880.294000,0 905.307000,5.226000 835.216000,36.756000 813.306000,61.264000 725.129000,43.517000" fill="rgb(63,61,86)" stroke="none" stroke-width="1"/><path id="enmkosjhdohm51" d="M1004.141320,235.013280C977.302650,238.233860,940.521000,239.377110,940.521000,239.377110C940.521000,239.377110,751.495700,255.056110,609.815420,196.746400C609.815420,196.746400,589.207340,185.940000,608.349970,171.402830L608.414970,171.668530C608.414970,171.668530,638.984390,192.330290,785.051130,209.582100Z" transform="matrix(1 0 0 1 -32 -126.20200000000000)" fill="rgb(0,191,166)" stroke="none" stroke-width="1"/></g></g></g></g></g></svg>