<svg id="e0mmfj8svzsmk1" xmlns="http://www.w3.org/2000/svg" xmlns:xlink="http://www.w3.org/1999/xlink" viewBox="0 0 1055.523470 852.055580" shape-rendering="geometricPrecision" text-rendering="geometricPrecision"><style><![CDATA[#e0mmfj8svzsmk3_to {animation: e0mmfj8svzsmk3_to__to 3000ms linear infinite normal forwards}@keyframes e0mmfj8svzsmk3_to__to { 0% {transform: translate(0px,0px)} 100% {transform: translate(-246.005180px,-199.858755px)} }]]></style><ellipse id="e0mmfj8svzsmk2" rx="250.304000" ry="8.939420" transform="matrix(1 0 0 1 502.36300000000000 821.88999999999999)" fill="rgb(63,61,86)" stroke="none" stroke-width="1"/><g id="e0mmfj8svzsmk3_to" transform="translate(0,0)"><circle id="e0mmfj8svzsmk3" r="89.563100" transform="translate(385.682000,332.888000)" fill="rgb(255,101,132)" stroke="none" stroke-width="1"/></g><ellipse id="e0mmfj8svzsmk4" rx="75.485700" ry="6.958110" transform="matrix(1 0 0 1 280.15899999999999 791.48099999999999)" fill="rgb(63,61,86)" stroke="none" stroke-width="1"/><path id="e0mmfj8svzsmk5" d="M489.914610,846.473370C489.914610,846.473370,552.566060,679.402830,518.027440,576.590190C483.488820,473.777550,456.179210,477.793670,456.179210,477.793670C456.179210,477.793670,409.592210,465.745320,351.760130,501.087160C293.928050,536.429000,278.666770,546.870910,245.734590,532.412890C212.802410,517.954870,206.376590,495.464590,126.054260,497.874260C126.054260,497.874260,168.625110,474.580780,210.392750,495.464590C252.160390,516.348400,280.273210,527.593540,322.844070,495.464590C365.414930,463.335640,424.050260,421.568000,481.079150,446.468000C481.079150,446.468000,439.311510,405.503580,425.656710,405.503580C412.001910,405.503580,347.744010,399.077790,326.860190,377.390750C326.860190,377.390750,297.140910,356.506940,244.128190,407.913260C191.115470,459.319580,203.967000,459.319580,156.576800,455.303460C109.186600,451.287340,72.238270,427.993800,72.238270,427.993800C72.238270,427.993800,127.660700,450.484060,161.396100,439.238930C195.131500,427.993800,224.047550,385.422930,253.766830,370.964930C283.486110,356.506930,301.157030,337.229540,341.318220,358.113350C341.318220,358.113350,324.450520,289.036110,292.321570,294.658680C260.192620,300.281250,307.582820,278.594200,307.582820,278.594200C307.582820,278.594200,298.747360,161.323540,281.879660,153.291300C265.011960,145.259060,275.453870,124.375300,244.128150,120.359130C244.128150,120.359130,282.682890,115.539780,289.911900,142.046130C297.140910,168.552480,346.940780,311.526340,346.940780,311.526340C346.940780,311.526340,377.463290,372.571340,411.198680,358.113340C444.934070,343.655340,398.347100,262.529720,398.347100,262.529720L340.515000,236.023330C340.515000,236.023330,383.889090,234.416880,410.395470,259.316810C436.901850,284.216740,438.508300,364.539120,438.508300,364.539120C438.508300,364.539120,505.175870,374.177810,521.240300,410.322880C521.240300,410.322880,531.682200,378.193930,511.601610,358.916560C506.581460,354.097220,501.310310,345.713560,496.227410,335.848980C476.789410,298.124760,470.195110,255.122550,476.310080,213.127770C479.302460,192.577530,481.144080,172.484060,477.866210,167.749310C470.637210,157.307400,440.114700,93.049500,437.705030,76.181800C435.295360,59.314100,440.114700,23.972260,440.114700,23.972260C440.114700,23.972260,440.917920,67.346340,450.556610,81.001140C460.195300,94.655940,487.504900,162.126740,487.504900,162.126740C487.504900,162.126740,487.504900,247.268460,509.995160,289.036090C532.485420,330.803720,575.859510,377.390700,573.449840,407.913210L573.449840,425.584130C573.449840,425.584130,621.643260,379.800380,618.430370,364.539130C615.217480,349.277880,611.201370,313.132810,580.678850,291.445770C550.156330,269.758730,530.075800,235.220100,551.762840,185.420230C573.449880,135.620360,573.449840,126.784900,573.449840,126.784900L558.991840,188.633130C558.991840,188.633130,550.959600,244.055560,573.449840,263.332930C595.940080,282.610300,625.659380,317.952150,625.659380,317.952150L619.233590,202.287930L640.117410,248.071680C640.117410,248.071680,685.097940,190.239570,738.110710,170.962200C791.123480,151.684830,824.055690,84.214000,824.055690,84.214000L869.036220,48.872150L832.087920,93.049500C832.087920,93.049500,820.842790,145.259040,757.388120,182.207340C693.933450,219.155640,652.969000,273.774840,650.559360,307.510240C648.149720,341.245640,645.740000,370.964910,645.740000,370.964910C645.740000,370.964910,764.617110,366.948800,791.123490,314.739250C817.629870,262.529700,820.039550,158.913850,845.742710,142.046150C871.445870,125.178450,919.639290,104.294630,919.639290,104.294630L865.823290,148.471940C865.823290,148.471940,854.578160,184.617010,856.987830,210.320170C859.397500,236.023330,839.316940,260.120000,839.316940,260.120000L824.055690,305.100530L807.188000,343.655310C807.188000,343.655310,876.265240,345.261750,912.410310,386.226170C948.555380,427.190590,1038.516430,439.238930,1038.516430,439.238930L987.913340,452.893740C987.913340,452.893740,939.719900,436.829260,893.936150,407.110000C848.152400,377.390740,852.971740,350.884340,795.942850,380.603620C738.913960,410.322900,661.001270,435.222830,661.001270,435.222830C661.001270,435.222830,705.981800,414.339000,787.107390,464.942090C868.232980,515.545180,746.946210,456.106630,710.801140,475.384000C674.656070,494.661370,657.788370,470.564660,643.330340,518.758080C628.872310,566.951500,602.365930,698.680200,632.888440,772.576780L663.410940,846.473370Z" transform="matrix(1 0 0 1 -72.23830000000000 -23.97220000000000)" fill="rgb(63,61,86)" stroke="none" stroke-width="1"/><path id="e0mmfj8svzsmk6" d="M792.341930,314.739220C770.807390,357.155990,688.303790,367.762760,658.111460,370.249460C657.264810,381.138110,656.706570,388.024060,656.706570,388.024060C656.706570,388.024060,775.583700,384.007900,802.090000,331.798360C828.596300,279.588820,831.006100,175.972960,856.709340,159.105260C859.435220,157.316390,862.416040,155.482150,865.563460,153.632600C866.446410,150.390730,867.041830,148.471930,867.041830,148.471930L920.857830,104.294630C920.857830,104.294630,872.664520,125.178420,846.961290,142.046120C821.258060,158.913820,818.848380,262.529690,792.341930,314.739220Z" transform="matrix(1 0 0 1 -72.23830000000000 -23.97220000000000)" opacity="0.1" fill="rgb(0,0,0)" stroke="none" stroke-width="1"/><path id="e0mmfj8svzsmk7" d="M653.826150,233.592760C653.650780,253.368760,651.084060,265.130760,651.084060,265.130760C651.084060,265.130760,696.045750,207.323390,749.044060,188.033760C752.176310,186.052190,755.354060,184.101200,758.606510,182.207310C822.061230,145.258970,833.306410,93.049430,833.306410,93.049430L870.254690,48.872130L825.274120,84.214000C825.274120,84.214000,792.341930,151.684810,739.329320,170.962160C703.193490,184.102410,670.795590,215.151790,653.826150,233.592760Z" transform="matrix(1 0 0 1 -72.23830000000000 -23.97220000000000)" opacity="0.1" fill="rgb(0,0,0)" stroke="none" stroke-width="1"/><path id="e0mmfj8svzsmk8" d="M584.416470,424.972330L584.416470,442.643250C584.416470,442.643250,632.609920,396.859520,629.396910,381.598250C626.939910,369.926990,623.998100,346.046010,609.104670,325.754080C615.817930,341.089080,617.861220,356.047330,619.648830,364.539080C621.952830,375.482840,597.823640,402.120410,583.986000,416.317270C584.471452,419.175094,584.615953,422.080440,584.416470,424.972330Z" transform="matrix(1 0 0 1 -72.23830000000000 -23.97220000000000)" opacity="0.1" fill="rgb(0,0,0)" stroke="none" stroke-width="1"/><path id="e0mmfj8svzsmk9" d="M519.769410,303.705330C520.151090,304.519410,520.544660,305.320470,520.961740,306.095200C533.278920,328.969920,551.848550,353.285450,565.742270,375.620680C554.513300,353.501800,534.971630,328.208500,519.769410,303.705330Z" transform="matrix(1 0 0 1 -72.23830000000000 -23.97220000000000)" opacity="0.1" fill="rgb(0,0,0)" stroke="none" stroke-width="1"/><path id="e0mmfj8svzsmk10" d="M558.928460,269.509270C552.451260,253.638740,551.384030,234.754270,558.825380,212.625160C558.732254,204.605434,559.195029,196.588896,560.210380,188.633160L572.857920,134.529820C570.526060,142.332030,565.190770,157.383820,552.981280,185.420220C537.524670,220.913310,543.293250,248.648090,558.928460,269.509270Z" transform="matrix(1 0 0 1 -72.23830000000000 -23.97220000000000)" opacity="0.1" fill="rgb(0,0,0)" stroke="none" stroke-width="1"/><path id="e0mmfj8svzsmk11" d="M913.628860,386.226120C888.562100,357.817120,847.663340,348.339570,824.943310,345.197210L818.154640,360.714390C818.154640,360.714390,887.231880,362.320900,923.376940,403.285250C943.420940,426.001860,980.009670,439.822620,1008.633940,447.631250L1039.734940,439.238980C1039.734940,439.238980,949.773910,427.190550,913.628860,386.226120Z" transform="matrix(1 0 0 1 -72.23830000000000 -23.97220000000000)" opacity="0.1" fill="rgb(0,0,0)" stroke="none" stroke-width="1"/><path id="e0mmfj8svzsmk12" d="M422.165180,375.172440C455.900590,360.714390,409.313710,279.588820,409.313710,279.588820L408.039280,279.004700C419.653640,303.509510,436.497990,347.792940,412.417100,358.113300C389.883900,367.770430,368.787100,343.744430,357.259020,326.722030C357.677580,327.925960,357.907390,328.585490,357.907390,328.585490C357.907390,328.585490,388.429780,389.630490,422.165180,375.172440Z" transform="matrix(1 0 0 1 -72.23830000000000 -23.97220000000000)" opacity="0.1" fill="rgb(0,0,0)" stroke="none" stroke-width="1"/><path id="e0mmfj8svzsmk13" d="M532.206930,427.382000C532.206930,427.382000,542.372230,396.048360,523.275600,376.702440C527.958500,393.368670,522.458850,410.322860,522.458850,410.322860C510.031750,382.362070,467.330510,370.265470,448.626710,366.219940C449.352140,375.529000,449.474850,381.598270,449.474850,381.598270C449.474850,381.598270,516.142440,391.236930,532.206930,427.382000Z" transform="matrix(1 0 0 1 -72.23830000000000 -23.97220000000000)" opacity="0.1" fill="rgb(0,0,0)" stroke="none" stroke-width="1"/><path id="e0mmfj8svzsmk14" d="M572.857880,134.529800C574.667940,128.473320,574.668390,126.784850,574.668390,126.784850Z" transform="matrix(1 0 0 1 -72.23830000000000 -23.97220000000000)" opacity="0.1" fill="rgb(0,0,0)" stroke="none" stroke-width="1"/><path id="e0mmfj8svzsmk15" d="M171.875240,456.451510C172.037240,456.399380,172.201730,456.351700,172.362670,456.298080C206.098070,445.052900,235.014180,402.482030,264.733500,388.024080C294.452820,373.566130,312.123590,354.288670,352.284720,375.172460C352.284720,375.172460,345.258660,346.412760,331.643240,327.517980C336.152948,337.381959,339.797770,347.618841,342.536650,358.113320C302.375510,337.229540,284.704590,356.506890,254.985420,370.964940C225.266100,385.422940,196.350000,427.993780,162.614590,439.238940C128.879180,450.484100,73.456780,427.993750,73.456780,427.993750C73.456780,427.993750,110.405050,451.287260,157.795290,455.303350C163.216410,455.762750,167.842050,456.168150,171.875240,456.451510Z" transform="matrix(1 0 0 1 -72.23830000000000 -23.97220000000000)" opacity="0.1" fill="rgb(0,0,0)" stroke="none" stroke-width="1"/><path id="e0mmfj8svzsmk16" d="M506.749000,846.473370C521.466310,801.357370,556.860210,676.599560,528.994090,593.649270C516.959970,557.826550,505.805520,534.983430,496.375900,520.410330C503.427700,534.205730,511.137540,552.453330,519.246010,576.590140C553.784600,679.402780,491.133100,846.473370,491.133100,846.473370Z" transform="matrix(1 0 0 1 -72.23830000000000 -23.97220000000000)" opacity="0.1" fill="rgb(0,0,0)" stroke="none" stroke-width="1"/><path id="e0mmfj8svzsmk17" d="M193.067520,504.335000C202.915092,505.334502,212.500314,508.108831,221.359340,512.523730C254.346120,529.017040,278.820880,539.477230,308.622160,527.328570C315.410970,523.742280,323.004500,519.304440,331.761640,514.021060C332.444380,513.522840,333.120570,513.044630,333.810740,512.523730C376.381530,480.394730,435.016950,438.627110,492.045640,463.527050C492.045640,463.527050,480.519920,452.226160,467.599880,441.495260C415.329060,428.672580,362.982380,466.091170,324.062660,495.464590C281.491720,527.593590,253.378990,516.348380,211.611260,495.464590C169.843530,474.580800,127.272760,497.874240,127.272760,497.874240C158.307270,496.943160,178.305000,499.731140,193.067520,504.335000Z" transform="matrix(1 0 0 1 -72.23830000000000 -23.97220000000000)" opacity="0.1" fill="rgb(0,0,0)" stroke="none" stroke-width="1"/><path id="e0mmfj8svzsmk18" d="M274.597440,145.493710C275.513659,147.036595,276.623747,148.455758,277.900600,149.716550C276.962779,148.188555,275.854640,146.771883,274.597440,145.493710Z" transform="matrix(1 0 0 1 -72.23830000000000 -23.97220000000000)" opacity="0.1" fill="rgb(0,0,0)" stroke="none" stroke-width="1"/><path id="e0mmfj8svzsmk19" d="M421.362000,276.376000C422.603518,277.550040,423.766758,278.804184,424.844240,280.130370C421.325700,271.672050,416.980600,264.358100,411.613920,259.316870C385.107610,234.416870,341.733460,236.023360,341.733460,236.023360L396.129090,260.954690C405.449955,264.431929,414.016122,269.667216,421.362000,276.376000Z" transform="matrix(1 0 0 1 -72.23830000000000 -23.97220000000000)" opacity="0.1" fill="rgb(0,0,0)" stroke="none" stroke-width="1"/><path id="e0mmfj8svzsmk20" d="M479.084700,167.749280C482.362700,172.484020,480.520970,192.577530,477.528540,213.127760C471.413680,255.122540,478.007940,298.124760,497.445930,335.848950C500.004723,340.911714,502.862639,345.817662,506.004510,350.540760C487.495270,313.389760,481.289080,271.306990,487.276610,230.186900C490.269040,209.636670,492.110790,189.543160,488.832770,184.808420C481.603820,174.366530,451.081280,110.108590,448.671630,93.240880C447.949167,86.697006,447.780835,80.103795,448.168430,73.531580C441.929080,55.828460,441.333210,23.972210,441.333210,23.972210C441.333210,23.972210,436.513910,59.314120,438.923560,76.181750C441.333210,93.049380,471.855740,157.307390,479.084700,167.749280Z" transform="matrix(1 0 0 1 -72.23830000000000 -23.97220000000000)" opacity="0.1" fill="rgb(0,0,0)" stroke="none" stroke-width="1"/><path id="e0mmfj8svzsmk21" d="M554.439370,56.706570C554.117531,55.119004,553.628772,53.569906,552.981240,52.085100C552.333708,50.600294,553.598520,53.818630,554.439370,56.706570Z" transform="matrix(1 0 0 1 -72.23830000000000 -23.97220000000000)" opacity="0.1" fill="rgb(0,0,0)" stroke="none" stroke-width="1"/><path id="e0mmfj8svzsmk22" d="M270.737390,137.601660C277.816390,138.468240,285.959240,140.640200,292.170490,145.677330C291.765310,144.306950,291.411900,143.078480,291.130490,142.046120C283.901390,115.539740,245.346690,120.359120,245.346690,120.359120C262.770080,122.592880,267.270470,130.045170,270.737390,137.601660Z" transform="matrix(1 0 0 1 -72.23830000000000 -23.97220000000000)" opacity="0.1" fill="rgb(0,0,0)" stroke="none" stroke-width="1"/><path id="e0mmfj8svzsmk23" d="M470.375690,812.153910C476.102630,833.324150,495.718690,846.435410,495.718690,846.435410C495.718690,846.435410,506.049560,825.222930,500.322610,804.052700C494.595660,782.882470,474.979610,769.771200,474.979610,769.771200C474.979610,769.771200,464.648740,790.983670,470.375690,812.153910Z" transform="matrix(1 0 0 1 -72.23830000000000 -23.97220000000000)" fill="rgb(63,61,86)" stroke="none" stroke-width="1"/><path id="e0mmfj8svzsmk24" d="M478.791000,807.604200C494.505830,822.901950,496.425280,846.418150,496.425280,846.418150C496.425280,846.418150,472.865960,845.131800,457.151140,829.834050C441.436320,814.536300,439.516860,791.020050,439.516860,791.020050C439.516860,791.020050,463.076210,792.306450,478.791000,807.604200Z" transform="matrix(1 0 0 1 -72.23830000000000 -23.97220000000000)" fill="rgb(0,191,166)" stroke="none" stroke-width="1"/><path id="e0mmfj8svzsmk25" d="M426.705250,233.612670C425.339090,255.501260,408.750000,272.279200,408.750000,272.279200C408.750000,272.279200,394.375930,253.568720,395.742100,231.680120C397.108270,209.791520,413.697320,193.013600,413.697320,193.013600C413.697320,193.013600,428.071420,211.724080,426.705250,233.612670Z" transform="matrix(1 0 0 1 -72.23830000000000 -23.97220000000000)" fill="rgb(0,191,166)" stroke="none" stroke-width="1"/><path id="e0mmfj8svzsmk26" d="M253.779000,95.236840C272.330930,106.933110,279.097590,129.536390,279.097590,129.536390C279.097590,129.536390,255.785590,133.176260,237.233710,121.479990C218.681830,109.783720,211.915120,87.180430,211.915120,87.180430C211.915120,87.180430,235.227100,83.540560,253.779000,95.236840Z" transform="matrix(1 0 0 1 -72.23830000000000 -23.97220000000000)" fill="rgb(0,191,166)" stroke="none" stroke-width="1"/><path id="e0mmfj8svzsmk27" d="M212.349700,362.090450C230.901620,373.786730,237.668280,396.390000,237.668280,396.390000C237.668280,396.390000,214.356330,400.029870,195.804400,388.333590C177.252470,376.637310,170.485810,354.034040,170.485810,354.034040C170.485810,354.034040,193.797770,350.394180,212.349700,362.090450Z" transform="matrix(1 0 0 1 -72.23830000000000 -23.97220000000000)" fill="rgb(0,191,166)" stroke="none" stroke-width="1"/><path id="e0mmfj8svzsmk28" d="M311.049000,464.445260C329.600930,476.141540,336.367580,498.744820,336.367580,498.744820C336.367580,498.744820,313.055580,502.384690,294.503700,490.688420C275.951820,478.992150,269.185120,456.388860,269.185120,456.388860C269.185120,456.388860,292.497050,452.749000,311.049000,464.445260Z" transform="matrix(1 0 0 1 -72.23830000000000 -23.97220000000000)" fill="rgb(0,191,166)" stroke="none" stroke-width="1"/><path id="e0mmfj8svzsmk29" d="M589.502440,134.248690C583.907700,155.454250,564.373800,168.687690,564.373800,168.687690C564.373800,168.687690,553.910800,147.540080,559.505520,126.334520C565.100240,105.128960,584.634170,91.895520,584.634170,91.895520C584.634170,91.895520,595.097190,113.043130,589.502440,134.248690Z" transform="matrix(1 0 0 1 -72.23830000000000 -23.97220000000000)" fill="rgb(0,191,166)" stroke="none" stroke-width="1"/><path id="e0mmfj8svzsmk30" d="M765.985890,150.783170C759.410140,171.705320,739.281430,184.015120,739.281430,184.015120C739.281430,184.015120,729.814120,162.403410,736.389880,141.481260C742.965640,120.559110,763.094330,108.249310,763.094330,108.249310C763.094330,108.249310,772.561640,129.861000,765.985890,150.783170Z" transform="matrix(1 0 0 1 -72.23830000000000 -23.97220000000000)" fill="rgb(0,191,166)" stroke="none" stroke-width="1"/><path id="e0mmfj8svzsmk31" d="M956.736760,383.636920C944.825230,402.051380,922.144680,408.554360,922.144680,408.554360C922.144680,408.554360,918.776540,385.201600,930.688060,366.787130C942.599580,348.372660,965.280140,341.869700,965.280140,341.869700C965.280140,341.869700,968.648280,365.222460,956.736760,383.636920Z" transform="matrix(1 0 0 1 -72.23830000000000 -23.97220000000000)" fill="rgb(0,191,166)" stroke="none" stroke-width="1"/><path id="e0mmfj8svzsmk32" d="M657.273470,534.211220C657.273470,534.211220,655.360160,541.226710,659.186790,543.777790C663.013420,546.328870,664.288960,558.446540,664.288960,558.446540L656.635700,579.493000L636.227000,583.319630L628.573740,568.650880L628.573740,546.966650C628.573740,546.966650,631.124830,536.124530,630.487060,532.935650C629.849290,529.746770,657.273470,534.211220,657.273470,534.211220Z" transform="matrix(1 0 0 1 -72.23830000000000 -23.97220000000000)" fill="rgb(255,185,185)" stroke="none" stroke-width="1"/><path id="e0mmfj8svzsmk33" d="M657.273470,534.211220C657.273470,534.211220,655.360160,541.226710,659.186790,543.777790C663.013420,546.328870,664.288960,558.446540,664.288960,558.446540L656.635700,579.493000L636.227000,583.319630L628.573740,568.650880L628.573740,546.966650C628.573740,546.966650,631.124830,536.124530,630.487060,532.935650C629.849290,529.746770,657.273470,534.211220,657.273470,534.211220Z" transform="matrix(1 0 0 1 -72.23830000000000 -23.97220000000000)" opacity="0.2" fill="rgb(0,0,0)" stroke="none" stroke-width="1"/><path id="e0mmfj8svzsmk34" d="M677.682170,654.750070L694.264230,657.938930C694.264230,657.938930,695.539770,676.434310,694.264230,680.898710C692.988690,685.363110,691.713140,690.465290,692.988690,691.740830C694.264240,693.016370,687.248690,725.542730,687.886510,727.456040C688.524330,729.369350,689.799830,735.109300,689.162060,738.935930C688.524290,742.762560,686.610970,741.487020,687.886510,745.313650C689.162050,749.140280,690.437600,749.778050,689.162060,752.329140C687.886520,754.880230,681.508800,816.744080,679.595480,817.381850C677.682160,818.019620,660.462330,818.657400,660.462330,817.381850C660.462330,816.106300,666.202270,806.539740,664.288960,803.988650C662.375650,801.437560,664.926730,758.069090,664.926730,756.155770C664.926730,754.242450,668.753360,751.053600,666.840050,749.778050C664.926740,748.502500,663.651190,747.226970,664.288960,745.313650C664.926730,743.400330,666.202270,742.762570,664.926730,740.849250C663.651190,738.935930,663.651190,700.669630,659.186790,699.394090C659.186790,699.394090,653.446790,727.456090,655.360160,734.471530C657.273530,741.486970,654.722380,744.038110,654.722380,744.038110L663.651190,751.691370L651.533530,774.651150L638.778090,759.982400C638.778090,759.982400,638.778090,756.155770,636.227000,755.518000C633.675910,754.880230,632.400370,754.242460,632.400370,752.329140C632.400370,750.415820,627.935970,738.298140,627.935970,738.298140C627.935970,738.298140,615.180540,698.118530,621.558260,677.709830C627.935980,657.301130,630.392960,657.976660,630.392960,657.976660Z" transform="matrix(1 0 0 1 -72.23830000000000 -23.97220000000000)" fill="rgb(47,46,65)" stroke="none" stroke-width="1"/><polygon id="e0mmfj8svzsmk35" points="615.648000,762.797000 622.664000,770.450000 620.113000,791.496000 614.373000,791.496000 605.444000,771.725000 615.648000,762.797000" fill="rgb(255,185,185)" stroke="none" stroke-width="1"/><path id="e0mmfj8svzsmk36" d="M692.350910,800.799790C692.350910,800.799790,689.799830,806.539790,687.886510,805.264190C685.973190,803.988590,685.338990,802.075330,682.467240,802.075330C679.595490,802.075330,677.044390,802.713110,677.682170,803.988650C678.319950,805.264190,685.973170,819.295170,685.973170,819.295170C688.246653,824.144082,688.246653,829.752778,685.973170,834.601690C682.146540,842.892690,696.177510,847.357120,698.728600,838.428320C701.279690,829.499520,701.917460,819.295170,701.279690,815.468540C700.641920,811.641910,704.468550,791.870990,704.468550,791.870990C704.468550,791.870990,694.165450,787.121220,691.025970,786.944990C691.026000,786.945000,693.626460,798.248700,692.350910,800.799790Z" transform="matrix(1 0 0 1 -72.23830000000000 -23.97220000000000)" fill="rgb(47,46,65)" stroke="none" stroke-width="1"/><path id="e0mmfj8svzsmk37" d="M675.131080,814.830770L677.682170,822.484030C677.682170,822.484030,677.682170,830.137290,680.233250,833.963920C682.784330,837.790550,685.335430,846.081580,675.131080,846.719350C664.926730,847.357120,660.462330,843.530490,660.462330,843.530490C660.462330,843.530490,662.375640,838.428320,660.462330,836.515010C658.549020,834.601700,660.462330,830.775060,660.462330,830.775060L662.375640,815.468540Z" transform="matrix(1 0 0 1 -72.23830000000000 -23.97220000000000)" fill="rgb(47,46,65)" stroke="none" stroke-width="1"/><path id="e0mmfj8svzsmk38" d="M657.911240,751.053600L663.651240,751.053600L692.350960,788.682130C692.350960,788.682130,687.248790,800.799790,679.595530,802.075330C679.595530,802.075330,678.319990,801.437560,672.580040,797.610930C666.840090,793.784300,651.533580,774.651150,651.533580,774.651150L649.620210,763.809000Z" transform="matrix(1 0 0 1 -72.23830000000000 -23.97220000000000)" fill="rgb(47,46,65)" stroke="none" stroke-width="1"/><circle id="e0mmfj8svzsmk39" r="20.408700" transform="matrix(1 0 0 1 571.64200000000005 498.12099999999998)" fill="rgb(255,185,185)" stroke="none" stroke-width="1"/><path id="e0mmfj8svzsmk40" d="M668.753360,548.242200L662.375640,545.691110C662.375640,545.691110,661.737870,568.013110,649.620210,568.013110C637.502550,568.013110,624.747110,564.824250,624.747110,558.446530C624.747110,552.068810,614.542770,569.926420,614.542770,569.926420C614.542770,569.926420,624.109340,633.703590,623.471570,634.341370C622.833800,634.979150,630.487060,668.781040,630.487060,668.781040C630.487060,668.781040,663.013420,670.056580,673.855530,665.592180C684.697640,661.127780,687.886530,652.836740,687.886530,652.836740L683.422130,596.712830L674.493330,553.344360Z" transform="matrix(1 0 0 1 -72.23830000000000 -23.97220000000000)" fill="rgb(0,191,166)" stroke="none" stroke-width="1"/><path id="e0mmfj8svzsmk41" d="M657.914930,542.502250C657.914930,542.502250,660.462330,539.951160,664.288930,542.502250C668.115530,545.053340,691.713110,550.793250,691.713110,552.706600L691.713110,576.941920C691.713110,576.941920,692.350880,580.768550,690.437570,583.319640C688.524260,585.870730,684.059850,595.437300,686.610940,599.901700C689.162030,604.366100,698.728600,656.025610,696.815290,662.403330C694.901980,668.781050,689.799800,674.520990,689.799800,674.520990C689.799800,674.520990,662.375610,616.483770,662.375610,599.901700C662.375610,583.319630,662.641770,562.976230,662.641770,562.976230Z" transform="matrix(1 0 0 1 -72.23830000000000 -23.97220000000000)" fill="rgb(87,90,137)" stroke="none" stroke-width="1"/><path id="e0mmfj8svzsmk42" d="M685.973200,553.344370L691.713140,553.344370C691.713140,553.344370,713.397380,594.799530,713.397380,603.090560C713.397380,611.381590,699.366380,657.301160,698.090860,657.938930C696.815340,658.576700,692.988690,650.923440,692.988690,650.923440L689.799830,625.412570C689.799830,625.412570,696.177540,610.106050,694.264230,607.554960C692.350920,605.003870,682.784340,585.232960,682.784340,585.232960Z" transform="matrix(1 0 0 1 -72.23830000000000 -23.97220000000000)" fill="rgb(87,90,137)" stroke="none" stroke-width="1"/><path id="e0mmfj8svzsmk43" d="M629.516920,542.502250C629.516920,542.502250,622.196030,547.604420,620.920480,549.517740C619.644930,551.431060,600.511790,562.273170,599.874020,564.824260C599.236250,567.375350,614.542770,589.059580,614.542770,589.059580C614.542770,589.059580,620.920480,624.774800,620.920480,627.325890C620.920480,629.876980,623.471570,673.245450,623.471570,673.245450C623.471570,673.245450,649.620210,680.898710,649.620210,676.434310C649.620210,671.969910,650.257980,608.192740,646.431350,594.161760C642.604720,580.130780,629.516920,542.502250,629.516920,542.502250Z" transform="matrix(1 0 0 1 -72.23830000000000 -23.97220000000000)" fill="rgb(87,90,137)" stroke="none" stroke-width="1"/><path id="e0mmfj8svzsmk44" d="M633.675920,674.521000C633.675920,674.521000,655.360160,703.858500,643.880260,703.220730C632.400360,702.582960,624.747110,677.709860,624.747110,677.709860Z" transform="matrix(1 0 0 1 -72.23830000000000 -23.97220000000000)" fill="rgb(255,185,185)" stroke="none" stroke-width="1"/><path id="e0mmfj8svzsmk45" d="M607.527280,562.910940L599.874020,564.824260C599.874020,564.824260,593.496300,620.948170,597.322930,628.601430C601.149560,636.254690,621.558260,686.000880,621.558260,684.087570C621.558260,682.174260,639.511370,678.763950,638.825840,676.961360C638.140310,675.158770,634.313690,667.505500,633.038150,664.954420C631.762610,662.403340,629.849290,659.214420,630.487060,656.025610C631.124830,652.836800,623.471570,639.187440,623.471570,639.187440C623.471570,639.187440,621.558260,631.152520,620.920480,627.325890C620.282700,623.499260,614.542770,581.406320,614.542770,581.406320Z" transform="matrix(1 0 0 1 -72.23830000000000 -23.97220000000000)" fill="rgb(87,90,137)" stroke="none" stroke-width="1"/><path id="e0mmfj8svzsmk46" d="M663.890600,506.295000C663.500607,505.094874,662.677199,504.083250,661.581230,503.457750C661.638448,502.190755,661.473424,500.923525,661.093630,499.713440C659.823260,496.178440,656.813790,496.381080,653.974270,494.818210C652.742270,494.140130,652.818410,493.540820,652.177080,492.427090C651.316168,490.947260,650.057514,489.738515,648.544080,488.938150C646.792664,487.695118,644.770155,486.887512,642.644260,486.582300C638.115260,486.291750,634.642910,490.301300,630.314210,491.588090C628.406210,492.155250,626.356040,492.178630,624.437990,492.714830C622.519940,493.251030,620.606320,494.531350,620.320460,496.395310C620.188460,497.255840,620.421310,498.138630,620.287460,498.998920C620.021360,500.708790,618.427580,501.906310,617.360660,503.312690C615.001310,506.422690,615.271170,510.816280,617.157940,514.200100C617.557487,514.903150,618.012427,515.573242,618.518440,516.204010C618.678585,517.812190,619.167522,519.370300,619.954910,520.781650C621.841680,524.165470,625.088360,526.694050,628.479910,528.794810C628.202450,527.674693,628.033979,526.530365,627.976850,525.377810C627.929101,524.993418,627.982304,524.603217,628.131220,524.245640C628.508930,523.502480,629.506960,523.304840,630.267920,522.897830C631.744446,521.927599,632.596665,520.247928,632.507680,518.483400C632.553300,516.777640,632.169200,515.069060,632.359070,513.372170C632.379844,512.571508,632.751223,511.820372,633.374820,511.317760C633.962574,511.004048,634.624377,510.855534,635.289820,510.888020C638.519130,510.764020,641.893240,510.708170,644.741680,509.270790C645.666007,508.693788,646.652993,508.223848,647.683590,507.870040C650.104310,507.275870,652.578420,508.872860,653.973540,510.827400C655.368660,512.781940,656.064230,515.107860,657.351410,517.126960C658.638590,519.146060,660.862300,520.946620,663.351010,520.707410C663.630849,520.709596,663.899398,520.597196,664.094250,520.396330C664.201121,520.216881,664.249009,520.008429,664.231170,519.800330L664.370170,510.846130C664.485563,509.312587,664.323100,507.770809,663.890600,506.295000Z" transform="matrix(1 0 0 1 -72.23830000000000 -23.97220000000000)" fill="rgb(47,46,65)" stroke="none" stroke-width="1"/><ellipse id="e0mmfj8svzsmk47" rx="125.477000" ry="8.939420" transform="matrix(1 0 0 1 930.04600000000005 843.11599999999999)" fill="rgb(63,61,86)" stroke="none" stroke-width="1"/><path id="e0mmfj8svzsmk48" d="M958.365520,846.137000C958.365520,846.137000,947.653210,855.157900,942.015160,854.594090C936.377110,854.030280,925.664790,854.030280,930.175240,860.232150C934.685690,866.434020,953.291240,869.816840,961.184550,870.380650C969.077860,870.944460,986.555810,871.508260,985.428200,868.125430C984.300590,864.742600,983.172970,848.956030,978.662530,847.828430C974.152090,846.700830,958.365520,846.137000,958.365520,846.137000Z" transform="matrix(1 0 0 1 -72.23830000000000 -23.97220000000000)" fill="rgb(87,90,137)" stroke="none" stroke-width="1"/><path id="e0mmfj8svzsmk49" d="M1019.848420,837.280210C1019.848420,837.280210,1011.954660,848.848210,1006.372510,849.820410C1000.790360,850.792610,990.472180,853.671620,996.483510,858.433090C1002.494840,863.194560,1021.325020,861.452560,1029.079420,859.874250C1036.833820,858.295940,1053.820270,854.141670,1051.824980,851.186350C1049.829690,848.231030,1044.500830,833.328350,1039.853280,833.454430C1035.205730,833.580510,1019.848420,837.280210,1019.848420,837.280210Z" transform="matrix(1 0 0 1 -72.23830000000000 -23.97220000000000)" fill="rgb(87,90,137)" stroke="none" stroke-width="1"/><path id="e0mmfj8svzsmk50" d="M952.090410,671.841470C952.090410,671.841470,944.834180,721.535950,946.525600,730.556840C948.217020,739.577730,949.344600,753.672840,949.344600,753.672840C949.344600,753.672840,948.216990,765.512760,949.344600,771.150840C950.472210,776.788920,957.237880,830.350440,957.237880,831.478060C957.237880,832.605680,956.110270,835.988500,957.237880,838.807530C958.365490,841.626560,960.620710,839.371340,957.237880,843.881780C953.855050,848.392220,956.110270,849.519840,956.674070,849.519840C957.237870,849.519840,979.226300,851.775060,980.353910,849.519840C981.481520,847.264620,979.790110,846.700840,980.353910,843.881780C980.917710,841.062720,981.481530,840.498950,982.609140,839.935140C983.736750,839.371330,985.991970,840.498950,984.300550,837.679920C982.609130,834.860890,978.662500,831.478060,979.790110,829.786640C980.917720,828.095220,979.226300,815.691500,979.226300,815.691500C979.226300,815.691500,978.098690,788.065020,977.534890,771.150840C976.971090,754.236660,982.609140,736.758690,982.609140,736.758690C983.311367,750.597994,988.451362,763.843326,997.268140,774.533690C1011.927080,792.011690,1019.256560,824.712400,1019.256560,824.712400C1019.256560,824.712400,1022.639390,829.786650,1020.947980,834.297090C1019.256570,838.807530,1014.182310,835.988510,1019.256560,838.807540C1024.330810,841.626570,1041.808790,837.679930,1043.500200,835.988540C1045.191610,834.297150,1041.244980,832.041900,1042.372590,827.531460C1043.500200,823.021020,1048.010650,824.148620,1044.064010,821.893400C1040.117370,819.638180,1038.989760,820.201980,1038.989760,817.946760C1038.989760,815.691540,1028.841260,766.640440,1013.054700,752.545290L1011.927080,701.238970C1011.927080,701.238970,1026.022230,665.155410,1011.363280,661.772570C996.704330,658.389730,952.090410,671.841470,952.090410,671.841470Z" transform="matrix(1 0 0 1 -72.23830000000000 -23.97220000000000)" fill="rgb(47,46,65)" stroke="none" stroke-width="1"/><path id="e0mmfj8svzsmk51" d="M962.312160,538.299090C962.312160,538.299090,971.896860,561.978930,969.641640,565.361770C967.386420,568.744610,997.268120,554.085650,997.268120,554.085650C997.268120,554.085650,987.683420,530.405810,987.683420,527.586780C987.683420,524.767750,962.312160,538.299090,962.312160,538.299090Z" transform="matrix(1 0 0 1 -72.23830000000000 -23.97220000000000)" fill="rgb(160,97,106)" stroke="none" stroke-width="1"/><circle id="e0mmfj8svzsmk52" r="20.860800" transform="matrix(1 0 0 1 897.12099999999998 499.38600000000002)" fill="rgb(160,97,106)" stroke="none" stroke-width="1"/><path id="e0mmfj8svzsmk53" d="M997.268120,544.501000C997.268120,544.501000,982.609120,542.809580,975.279690,551.830470C967.950260,560.851360,966.822610,563.106580,966.822610,563.106580C966.822610,563.106580,949.344610,591.296870,952.727460,605.392010C953.551989,606.664608,954.304902,607.982200,954.982690,609.338650C956.110300,611.593880,956.110300,643.167000,954.982690,648.241250C953.855080,653.315500,952.727460,655.006920,953.855080,662.336390C954.982700,669.665860,944.834180,681.505780,956.674080,683.761010C968.513980,686.016240,977.534900,684.324810,981.481540,679.250560C985.428180,674.176310,982.045340,670.793480,994.449070,670.793480C1002.044695,670.661333,1009.303842,667.636686,1014.746070,662.336390C1020.188298,657.036094,1008.544210,655.570720,1010.799430,654.443110C1013.054650,653.315500,1010.799430,650.496470,1009.671820,647.677440C1008.544210,644.858410,1008.544210,642.603190,1010.235630,642.603190C1011.927050,642.603190,1010.799430,641.475580,1009.671820,638.656550C1008.544210,635.837520,1029.405020,587.350230,1017.001300,573.255090C1004.597580,559.159950,998.395710,551.266660,998.395710,551.266660C998.395710,551.266660,1000.651000,542.809540,997.268120,544.501000Z" transform="matrix(1 0 0 1 -72.23830000000000 -23.97220000000000)" fill="rgb(0,191,166)" stroke="none" stroke-width="1"/><path id="e0mmfj8svzsmk54" d="M965.131190,598.062500L965.131190,622.870000L947.089410,682.633410C947.089410,682.633410,935.249490,713.642720,947.089410,713.642720C958.929330,713.642720,958.295000,684.045500,958.295000,684.045500L983.736800,639.220320C983.736800,639.220320,993.885300,603.700560,992.757690,600.881530C991.630080,598.062500,965.131190,598.062500,965.131190,598.062500Z" transform="matrix(1 0 0 1 -72.23830000000000 -23.97220000000000)" fill="rgb(160,97,106)" stroke="none" stroke-width="1"/><path id="e0mmfj8svzsmk55" d="M974.715890,561.415130C974.715890,561.415130,957.801720,568.180800,962.312160,586.222580C966.822600,604.264360,962.312160,603.700580,962.312160,603.700580C962.312160,603.700580,985.428160,601.445350,992.757670,606.519580L994.449090,599.753920C994.449090,599.753920,1001.214760,560.851320,974.715890,561.415130Z" transform="matrix(1 0 0 1 -72.23830000000000 -23.97220000000000)" fill="rgb(0,191,166)" stroke="none" stroke-width="1"/><path id="e0mmfj8svzsmk56" d="M962.236520,507.697560C959.591938,508.635878,956.652575,508.178474,954.418170,506.480920C952.217640,504.686316,951.490058,501.641160,952.641650,499.045630C953.721190,496.926960,956.030270,495.764630,958.244490,494.897790C963.128816,492.987267,968.273734,491.825563,973.505100,491.452000C975.999190,491.274620,978.618620,491.302720,980.844340,492.442080C981.945620,493.005820,982.902140,493.819450,983.992830,494.403420C985.998340,495.477200,988.332110,495.715940,990.499460,496.407050C994.985878,497.870616,998.616869,501.208263,1000.452300,505.555810C1001.041583,507.015006,1001.453207,508.539788,1001.678300,510.097300C1002.326539,514.361520,1001.873662,518.720671,1000.362700,522.760570C997.959360,529.159480,992.918700,534.753730,992.634240,541.583160C989.549010,539.344820,988.404970,535.304740,985.932610,532.403680C984.093247,530.259329,981.581028,528.802158,978.806400,528.270240C978.038229,528.223461,977.300224,527.954369,976.682230,527.495720C976.251801,526.981550,975.982033,526.352182,975.906480,525.685900L973.795480,515.718750C973.365860,513.690300,972.822940,511.478750,971.155690,510.246080C970.117652,509.582052,968.940060,509.167185,967.715030,509.033930C964.803949,508.525199,961.856003,508.256412,958.900920,508.230280" transform="matrix(1 0 0 1 -72.23830000000000 -23.97220000000000)" fill="rgb(47,46,65)" stroke="none" stroke-width="1"/></svg>