<svg id="elqd3as6tp21" xmlns="http://www.w3.org/2000/svg" xmlns:xlink="http://www.w3.org/1999/xlink" viewBox="0 0 1055.523000 852.055000" shape-rendering="geometricPrecision" text-rendering="geometricPrecision"><style><![CDATA[#elqd3as6tp26_to {animation: elqd3as6tp26_to__to 3000ms linear infinite alternate forwards}@keyframes elqd3as6tp26_to__to { 0% {transform: translate(296.119000px,243.325000px)} 50% {transform: translate(-316.712749px,-154.228000px)} 100% {transform: translate(-316.712749px,-154.228000px)} }#elqd3as6tp235_to {animation: elqd3as6tp235_to__to 3000ms linear infinite alternate forwards}@keyframes elqd3as6tp235_to__to { 0% {transform: translate(108.627000px,337.076000px)} 50% {transform: translate(116.573109px,470.270458px)} 100% {transform: translate(116.573109px,470.270458px)} }#elqd3as6tp258_to {animation: elqd3as6tp258_to__to 3000ms linear infinite alternate forwards}@keyframes elqd3as6tp258_to__to { 0% {transform: translate(49.190313px,-4.805357px)} 50% {transform: translate(-24.823188px,-6.576645px)} 100% {transform: translate(-24.823188px,-6.576645px)} }]]></style><g id="elqd3as6tp22" transform="matrix(1 0 0 1 -374 -125)"><g id="elqd3as6tp23" transform="matrix(1 0 0 1 -7 11)"><g id="elqd3as6tp24" transform="matrix(1 0 0 1 381 114)"><ellipse id="elqd3as6tp25" rx="250.304000" ry="8.939000" transform="matrix(1 0 0 1 502.36300000000000 821.88999999999999)" fill="rgb(63,61,86)" stroke="none" stroke-width="1"/><g id="elqd3as6tp26_to" transform="translate(296.119000,243.325000)"><circle id="elqd3as6tp26" r="89.563000" transform="translate(89.563000,89.563000)" fill="rgb(255,101,132)" stroke="none" stroke-width="1"/></g><ellipse id="elqd3as6tp27" rx="75.486000" ry="6.958000" transform="matrix(1 0 0 1 280.15899999999999 791.48099999999999)" fill="rgb(63,61,86)" stroke="none" stroke-width="1"/><path id="elqd3as6tp28" d="M489.915000,846.473000C489.915000,846.473000,552.566000,679.400000,518.027000,576.590000C483.488000,473.780000,456.179000,477.790000,456.179000,477.790000C456.179000,477.790000,409.592000,465.742000,351.760000,501.083000C293.928000,536.424000,278.667000,546.867000,245.734000,532.409000C212.801000,517.951000,206.376000,495.461000,126.054000,497.870000C126.054000,497.870000,168.625000,474.577000,210.392000,495.460000C252.159000,516.343000,280.272000,527.589000,322.843000,495.460000C365.414000,463.331000,424.049000,421.560000,481.078000,446.460000C481.078000,446.460000,439.310000,405.496000,425.656000,405.496000C412.002000,405.496000,347.743000,399.070000,326.856000,377.383000C326.856000,377.383000,297.137000,356.499000,244.124000,407.906000C191.111000,459.313000,203.963000,459.312000,156.573000,455.296000C109.183000,451.280000,72.234000,427.986000,72.234000,427.986000C72.234000,427.986000,127.656000,450.476000,161.392000,439.231000C195.128000,427.986000,224.043000,385.415000,253.763000,370.957000C283.483000,356.499000,301.153000,337.222000,341.314000,358.105000C341.314000,358.105000,324.446000,289.028000,292.314000,294.650000C260.182000,300.272000,307.575000,278.586000,307.575000,278.586000C307.575000,278.586000,298.740000,161.315000,281.875000,153.286000C265.010000,145.257000,275.449000,124.370000,244.123000,120.354000C244.123000,120.354000,282.678000,115.535000,289.907000,142.041000C297.136000,168.547000,346.936000,311.521000,346.936000,311.521000C346.936000,311.521000,377.459000,372.566000,411.194000,358.108000C444.929000,343.650000,398.342000,262.524000,398.342000,262.524000L340.510000,236.018000C340.510000,236.018000,383.884000,234.412000,410.390000,259.311000C436.896000,284.210000,438.503000,364.533000,438.503000,364.533000C438.503000,364.533000,505.171000,374.172000,521.235000,410.317000C521.235000,410.317000,531.677000,378.188000,511.596000,358.911000C506.576000,354.092000,501.305000,345.711000,496.222000,335.843000C476.784000,298.119000,470.190000,255.117000,476.305000,213.122000C479.297000,192.572000,481.139000,172.478000,477.861000,167.744000C470.632000,157.302000,440.109000,93.044000,437.700000,76.176000C435.291000,59.308000,440.110000,23.966000,440.110000,23.966000C440.110000,23.966000,440.910000,67.340000,450.552000,80.995000C460.194000,94.650000,487.500000,162.127000,487.500000,162.127000C487.500000,162.127000,487.500000,247.269000,509.990000,289.036000C532.480000,330.803000,575.854000,377.391000,573.445000,407.913000L573.445000,425.584000C573.445000,425.584000,621.638000,379.800000,618.426000,364.539000C615.214000,349.278000,611.197000,313.133000,580.674000,291.446000C550.151000,269.759000,530.074000,235.220000,551.758000,185.420000C573.442000,135.620000,573.445000,126.785000,573.445000,126.785000L558.987000,188.633000C558.987000,188.633000,550.955000,244.055000,573.445000,263.333000C595.935000,282.611000,625.655000,317.952000,625.655000,317.952000L619.229000,202.288000L640.113000,248.072000C640.113000,248.072000,685.094000,190.240000,738.106000,170.963000C791.118000,151.686000,824.051000,84.215000,824.051000,84.215000L869.032000,48.873000L832.088000,93.049000C832.088000,93.049000,820.843000,145.259000,757.388000,182.207000C693.933000,219.155000,652.969000,273.775000,650.559000,307.507000C648.149000,341.239000,645.740000,370.962000,645.740000,370.962000C645.740000,370.962000,764.617000,366.946000,791.123000,314.736000C817.629000,262.526000,820.039000,158.911000,845.742000,142.043000C871.445000,125.175000,919.642000,104.291000,919.642000,104.291000L865.826000,148.468000C865.826000,148.468000,854.581000,184.613000,856.991000,210.316000C859.401000,236.019000,839.320000,260.116000,839.320000,260.116000L824.056000,305.100000L807.188000,343.655000C807.188000,343.655000,876.265000,345.261000,912.410000,386.226000C948.555000,427.191000,1038.516000,439.239000,1038.516000,439.239000L987.916000,452.894000C987.916000,452.894000,939.723000,436.830000,893.939000,407.110000C848.155000,377.390000,852.975000,350.884000,795.946000,380.604000C738.917000,410.324000,661,435.223000,661,435.223000C661,435.223000,705.981000,414.339000,787.106000,464.942000C868.231000,515.545000,746.945000,456.107000,710.800000,475.384000C674.655000,494.661000,657.787000,470.565000,643.329000,518.758000C628.871000,566.951000,602.366000,698.680000,632.888000,772.577000L663.411000,846.477000Z" transform="matrix(1 0 0 1 -72.23800000000000 -23.97200000000000)" fill="rgb(63,61,86)" stroke="none" stroke-width="1"/><path id="elqd3as6tp29" d="M792.342000,314.739000C770.807000,357.156000,688.304000,367.763000,658.112000,370.249000C657.265000,381.138000,656.712000,388.024000,656.712000,388.024000C656.712000,388.024000,775.584000,384.008000,802.090000,331.800000C828.596000,279.592000,831.006000,175.975000,856.709000,159.107000C859.435000,157.318000,862.416000,155.484000,865.563000,153.634000C866.446000,150.392000,867.041000,148.473000,867.041000,148.473000L920.857000,104.296000C920.857000,104.296000,872.664000,125.180000,846.957000,142.047000C821.250000,158.914000,818.848000,262.530000,792.342000,314.739000Z" transform="matrix(1 0 0 1 -72.23800000000000 -23.97200000000000)" opacity="0.1" fill="rgb(0,0,0)" stroke="none" stroke-width="1"/><path id="elqd3as6tp210" d="M653.826000,233.593000C653.651000,253.369000,651.084000,265.131000,651.084000,265.131000C651.084000,265.131000,696.046000,207.324000,749.044000,188.031000C752.176000,186.049000,755.354000,184.098000,758.606000,182.205000C822.061000,145.257000,833.306000,93.047000,833.306000,93.047000L870.254000,48.870000L825.274000,84.214000C825.274000,84.214000,792.342000,151.685000,739.329000,170.962000C703.193000,184.100000,670.800000,215.152000,653.826000,233.593000Z" transform="matrix(1 0 0 1 -72.23800000000000 -23.97200000000000)" opacity="0.1" fill="rgb(0,0,0)" stroke="none" stroke-width="1"/><path id="elqd3as6tp211" d="M584.416000,424.972000L584.416000,442.643000C584.416000,442.643000,632.610000,396.860000,629.400000,381.600000C626.943000,369.929000,624,346.048000,609.108000,325.756000C615.821000,341.091000,617.865000,356.049000,619.652000,364.541000C621.952000,375.485000,597.827000,402.122000,583.989000,416.319000C584.473127,419.176287,584.616462,422.080931,584.416000,424.972000Z" transform="matrix(1 0 0 1 -72.23800000000000 -23.97200000000000)" opacity="0.1" fill="rgb(0,0,0)" stroke="none" stroke-width="1"/><path id="elqd3as6tp212" d="M519.769000,303.705000C520.151000,304.519000,520.544000,305.320000,520.961000,306.095000C533.278000,328.970000,551.848000,353.285000,565.742000,375.620000C554.513000,353.500000,534.972000,328.208000,519.769000,303.705000Z" transform="matrix(1 0 0 1 -72.23800000000000 -23.97200000000000)" opacity="0.1" fill="rgb(0,0,0)" stroke="none" stroke-width="1"/><path id="elqd3as6tp213" d="M558.928000,269.509000C552.451000,253.638000,551.384000,234.754000,558.828000,212.625000C558.734853,204.605274,559.197628,196.588734,560.213000,188.633000L572.861000,134.533000C570.529000,142.333000,565.194000,157.387000,552.984000,185.423000C537.525000,220.913000,543.293000,248.648000,558.928000,269.509000Z" transform="matrix(1 0 0 1 -72.23800000000000 -23.97200000000000)" opacity="0.1" fill="rgb(0,0,0)" stroke="none" stroke-width="1"/><path id="elqd3as6tp214" d="M913.629000,386.226000C888.562000,357.817000,847.663000,348.339000,824.943000,345.197000L818.154000,360.714000C818.154000,360.714000,887.231000,362.321000,923.376000,403.285000C943.420000,426.002000,980.009000,439.822000,1008.633000,447.631000L1039.733000,439.239000C1039.733000,439.239000,949.774000,427.191000,913.629000,386.226000Z" transform="matrix(1 0 0 1 -72.23800000000000 -23.97200000000000)" opacity="0.1" fill="rgb(0,0,0)" stroke="none" stroke-width="1"/><path id="elqd3as6tp215" d="M422.165000,375.172000C455.900000,360.714000,409.314000,279.588000,409.314000,279.588000L408.039000,279C419.653000,303.500000,436.498000,347.788000,412.417000,358.109000C389.884000,367.766000,368.787000,343.740000,357.259000,326.718000L357.907000,328.581000C357.907000,328.581000,388.430000,389.630000,422.165000,375.172000Z" transform="matrix(1 0 0 1 -72.23800000000000 -23.97200000000000)" opacity="0.1" fill="rgb(0,0,0)" stroke="none" stroke-width="1"/><path id="elqd3as6tp216" d="M532.207000,427.382000C532.207000,427.382000,542.372000,396.048000,523.276000,376.702000C527.959000,393.368000,522.459000,410.322000,522.459000,410.322000C510.032000,382.361000,467.331000,370.265000,448.627000,366.222000C449.352000,375.531000,449.475000,381.600000,449.475000,381.600000C449.475000,381.600000,516.142000,391.237000,532.207000,427.382000Z" transform="matrix(1 0 0 1 -72.23800000000000 -23.97200000000000)" opacity="0.1" fill="rgb(0,0,0)" stroke="none" stroke-width="1"/><path id="elqd3as6tp217" d="M572.858000,134.530000C574.668000,128.474000,574.668000,126.785000,574.668000,126.785000Z" transform="matrix(1 0 0 1 -72.23800000000000 -23.97200000000000)" opacity="0.1" fill="rgb(0,0,0)" stroke="none" stroke-width="1"/><path id="elqd3as6tp218" d="M171.875000,456.452000C172.037000,456.400000,172.201000,456.352000,172.362000,456.299000C206.097000,445.054000,235.014000,402.483000,264.733000,388.025000C294.452000,373.567000,312.123000,354.290000,352.284000,375.173000C352.284000,375.173000,345.258000,346.413000,331.643000,327.519000C336.152816,337.384497,339.797503,347.622948,342.536000,358.119000C302.375000,337.235000,284.704000,356.513000,254.985000,370.971000C225.266000,385.429000,196.350000,428,162.614000,439.245000C128.878000,450.490000,73.456000,428,73.456000,428C73.456000,428,110.404000,451.294000,157.795000,455.310000C163.216000,455.763000,167.842000,456.168000,171.875000,456.452000Z" transform="matrix(1 0 0 1 -72.23800000000000 -23.97200000000000)" opacity="0.1" fill="rgb(0,0,0)" stroke="none" stroke-width="1"/><path id="elqd3as6tp219" d="M506.749000,846.473000C521.466000,801.357000,556.860000,676.599000,528.994000,593.649000C516.960000,557.826000,505.805000,534.983000,496.376000,520.410000C503.428000,534.210000,511.138000,552.453000,519.246000,576.590000C553.785000,679.403000,491.133000,846.473000,491.133000,846.473000Z" transform="matrix(1 0 0 1 -72.23800000000000 -23.97200000000000)" opacity="0.1" fill="rgb(0,0,0)" stroke="none" stroke-width="1"/><path id="elqd3as6tp220" d="M193.068000,504.335000C202.915653,505.334554,212.500941,508.108975,221.360000,512.524000C254.347000,529.017000,278.822000,539.477000,308.623000,527.324000C315.412000,523.738000,323.005000,519.300000,331.762000,514.017000C332.445000,513.517000,333.121000,513.041000,333.811000,512.517000C376.382000,480.388000,435.017000,438.617000,492.046000,463.517000C492.046000,463.517000,480.520000,452.217000,467.600000,441.485000C415.329000,428.662000,362.983000,466.085000,324.063000,495.454000C281.492000,527.583000,253.379000,516.338000,211.612000,495.454000C169.845000,474.570000,127.273000,497.864000,127.273000,497.864000C158.307000,496.943000,178.300000,499.731000,193.068000,504.335000Z" transform="matrix(1 0 0 1 -72.23800000000000 -23.97200000000000)" opacity="0.1" fill="rgb(0,0,0)" stroke="none" stroke-width="1"/><path id="elqd3as6tp221" d="M274.600000,145.494000C275.515230,147.036757,276.624249,148.455966,277.900000,149.717000C276.963178,148.189110,275.856104,146.772391,274.600000,145.494000Z" transform="matrix(1 0 0 1 -72.23800000000000 -23.97200000000000)" opacity="0.1" fill="rgb(0,0,0)" stroke="none" stroke-width="1"/><path id="elqd3as6tp222" d="M421.362000,276.376000C422.603418,277.549934,423.766577,278.803954,424.844000,280.130000C421.325000,271.672000,416.980000,264.358000,411.614000,259.316000C385.108000,234.416000,341.734000,236.022000,341.734000,236.022000L396.134000,260.953000C405.453255,264.431310,414.017719,269.667149,421.362000,276.376000Z" transform="matrix(1 0 0 1 -72.23800000000000 -23.97200000000000)" opacity="0.1" fill="rgb(0,0,0)" stroke="none" stroke-width="1"/><path id="elqd3as6tp223" d="M479.085000,167.749000C482.363000,172.484000,480.521000,192.577000,477.529000,213.127000C471.414000,255.122000,478.008000,298.127000,497.446000,335.848000C500.003273,340.911054,502.859658,345.817398,506,350.541000C487.491000,313.390000,481.285000,271.307000,487.272000,230.187000C490.264000,209.637000,492.106000,189.543000,488.828000,184.809000C481.599000,174.367000,451.077000,110.109000,448.667000,93.241000C447.945613,86.697136,447.778351,80.104025,448.167000,73.532000C441.928000,55.832000,441.332000,23.973000,441.332000,23.973000C441.332000,23.973000,436.513000,59.315000,438.922000,76.183000C441.331000,93.051000,471.856000,157.307000,479.085000,167.749000Z" transform="matrix(1 0 0 1 -72.23800000000000 -23.97200000000000)" opacity="0.1" fill="rgb(0,0,0)" stroke="none" stroke-width="1"/><path id="elqd3as6tp224" d="M554.439000,56.707000C554.117166,55.119600,553.628451,53.570663,552.981000,52.086000C552.334000,50.600000,553.600000,53.819000,554.439000,56.707000Z" transform="matrix(1 0 0 1 -72.23800000000000 -23.97200000000000)" opacity="0.1" fill="rgb(0,0,0)" stroke="none" stroke-width="1"/><path id="elqd3as6tp225" d="M270.737000,137.600000C277.816000,138.467000,285.959000,140.639000,292.170000,145.676000C291.765000,144.306000,291.411000,143.076000,291.130000,142.045000C283.901000,115.539000,245.346000,120.358000,245.346000,120.358000C262.770000,122.593000,267.270000,130.045000,270.737000,137.600000Z" transform="matrix(1 0 0 1 -72.23800000000000 -23.97200000000000)" opacity="0.1" fill="rgb(0,0,0)" stroke="none" stroke-width="1"/><path id="elqd3as6tp226" d="M470.376000,812.154000C476.103000,833.324000,495.719000,846.435000,495.719000,846.435000C495.719000,846.435000,506.050000,825.222000,500.319000,804.052000C494.588000,782.882000,474.976000,769.771000,474.976000,769.771000C474.976000,769.771000,464.649000,790.984000,470.376000,812.154000Z" transform="matrix(1 0 0 1 -72.23800000000000 -23.97200000000000)" fill="rgb(63,61,86)" stroke="none" stroke-width="1"/><path id="elqd3as6tp227" d="M478.791000,807.600000C494.506000,822.900000,496.425000,846.414000,496.425000,846.414000C496.425000,846.414000,472.866000,845.128000,457.151000,829.830000C441.436000,814.532000,439.517000,791.016000,439.517000,791.016000C439.517000,791.016000,463.076000,792.306000,478.791000,807.600000Z" transform="matrix(1 0 0 1 -72.23800000000000 -23.97200000000000)" fill="rgb(0,191,166)" stroke="none" stroke-width="1"/><path id="elqd3as6tp228" d="M426.705000,233.613000C425.339000,255.502000,408.750000,272.280000,408.750000,272.280000C408.750000,272.280000,394.376000,253.570000,395.742000,231.680000C397.108000,209.790000,413.700000,193.014000,413.700000,193.014000C413.700000,193.014000,428.071000,211.724000,426.705000,233.613000Z" transform="matrix(1 0 0 1 -72.23800000000000 -23.97200000000000)" fill="rgb(0,191,166)" stroke="none" stroke-width="1"/><path id="elqd3as6tp229" d="M253.779000,95.237000C272.331000,106.937000,279.098000,129.537000,279.098000,129.537000C279.098000,129.537000,255.786000,133.177000,237.234000,121.481000C218.682000,109.785000,211.915000,87.181000,211.915000,87.181000C211.915000,87.181000,235.227000,83.541000,253.779000,95.237000Z" transform="matrix(1 0 0 1 -72.23800000000000 -23.97200000000000)" fill="rgb(0,191,166)" stroke="none" stroke-width="1"/><path id="elqd3as6tp230" d="M253.779000,95.237000C272.331000,106.937000,279.098000,129.537000,279.098000,129.537000C279.098000,129.537000,255.786000,133.177000,237.234000,121.481000C218.682000,109.785000,211.915000,87.181000,211.915000,87.181000C211.915000,87.181000,235.227000,83.541000,253.779000,95.237000Z" transform="matrix(0.51503800000000 0.85716700000000 -0.85716700000000 0.51503800000000 186.70400000000001 -163.86300000000000)" fill="rgb(0,191,166)" stroke="none" stroke-width="1"/><path id="elqd3as6tp231" d="M253.779000,95.237000C272.331000,106.937000,279.098000,129.537000,279.098000,129.537000C279.098000,129.537000,255.786000,133.177000,237.234000,121.481000C218.682000,109.785000,211.915000,87.181000,211.915000,87.181000C211.915000,87.181000,235.227000,83.541000,253.779000,95.237000Z" transform="matrix(0.96600000000000 0.25900000000000 -0.25900000000000 0.96600000000000 -31.82800000000000 161.17800000000000)" fill="rgb(0,191,166)" stroke="none" stroke-width="1"/><path id="elqd3as6tp232" d="M253.779000,95.237000C272.331000,106.937000,279.098000,129.537000,279.098000,129.537000C279.098000,129.537000,255.786000,133.177000,237.234000,121.481000C218.682000,109.785000,211.915000,87.181000,211.915000,87.181000C211.915000,87.181000,235.227000,83.541000,253.779000,95.237000Z" transform="matrix(0.58800000000000 0.80900000000000 -0.80900000000000 0.58800000000000 282.62700000000001 271.07600000000002)" fill="rgb(0,191,166)" stroke="none" stroke-width="1"/><path id="elqd3as6tp233" d="M253.779000,95.237000C272.331000,106.937000,279.098000,129.537000,279.098000,129.537000C279.098000,129.537000,255.786000,133.177000,237.234000,121.481000C218.682000,109.785000,211.915000,87.181000,211.915000,87.181000C211.915000,87.181000,235.227000,83.541000,253.779000,95.237000Z" transform="matrix(0.58800000000000 0.80900000000000 -0.80900000000000 0.58800000000000 733.62699999999995 239.07599999999999)" fill="rgb(0,191,166)" stroke="none" stroke-width="1"/><path id="elqd3as6tp234" d="M253.779000,95.237000C272.331000,106.937000,279.098000,129.537000,279.098000,129.537000C279.098000,129.537000,255.786000,133.177000,237.234000,121.481000C218.682000,109.785000,211.915000,87.181000,211.915000,87.181000C211.915000,87.181000,235.227000,83.541000,253.779000,95.237000Z" transform="matrix(0.58800000000000 0.80900000000000 -0.80900000000000 0.58800000000000 678.62699999999995 300.07600000000002)" fill="rgb(0,191,166)" stroke="none" stroke-width="1"/><g id="elqd3as6tp235_to" transform="translate(108.627000,337.076000)"><path id="elqd3as6tp235" d="M253.779000,95.237000C272.331000,106.937000,279.098000,129.537000,279.098000,129.537000C279.098000,129.537000,255.786000,133.177000,237.234000,121.481000C218.682000,109.785000,211.915000,87.181000,211.915000,87.181000C211.915000,87.181000,235.227000,83.541000,253.779000,95.237000Z" transform="rotate(53.989475) skewX(0) skewY(0) scale(1.000112,1.000112) translate(0,0)" fill="rgb(0,191,166)" stroke="none" stroke-width="1"/></g><path id="elqd3as6tp236" d="M253.779000,95.237000C272.331000,106.937000,279.098000,129.537000,279.098000,129.537000C279.098000,129.537000,255.786000,133.177000,237.234000,121.481000C218.682000,109.785000,211.915000,87.181000,211.915000,87.181000C211.915000,87.181000,235.227000,83.541000,253.779000,95.237000Z" transform="matrix(0.96600000000000 -0.25900000000000 0.25900000000000 0.96600000000000 4.08200000000000 737.26199999999994)" fill="rgb(0,191,166)" stroke="none" stroke-width="1"/><path id="elqd3as6tp237" d="M212.350000,362.090000C230.902000,373.790000,237.669000,396.390000,237.669000,396.390000C237.669000,396.390000,214.357000,400.030000,195.805000,388.334000C177.253000,376.638000,170.486000,354.034000,170.486000,354.034000C170.486000,354.034000,193.800000,350.394000,212.350000,362.090000Z" transform="matrix(1 0 0 1 -72.23800000000000 -23.97200000000000)" fill="rgb(0,191,166)" stroke="none" stroke-width="1"/><path id="elqd3as6tp238" d="M311.049000,464.445000C329.601000,476.145000,336.368000,498.745000,336.368000,498.745000C336.368000,498.745000,313.056000,502.385000,294.504000,490.689000C275.952000,478.993000,269.185000,456.389000,269.185000,456.389000C269.185000,456.389000,292.500000,452.749000,311.049000,464.445000Z" transform="matrix(1 0 0 1 -72.23800000000000 -23.97200000000000)" fill="rgb(0,191,166)" stroke="none" stroke-width="1"/><path id="elqd3as6tp239" d="M589.500000,134.249000C583.905000,155.455000,564.371000,168.688000,564.371000,168.688000C564.371000,168.688000,553.908000,147.540000,559.503000,126.335000C565.098000,105.130000,584.634000,91.900000,584.634000,91.900000C584.634000,91.900000,595.100000,113.043000,589.500000,134.249000Z" transform="matrix(1 0 0 1 -72.23800000000000 -23.97200000000000)" fill="rgb(0,191,166)" stroke="none" stroke-width="1"/><path id="elqd3as6tp240" d="M765.986000,150.783000C759.410000,171.705000,739.286000,184.015000,739.286000,184.015000C739.286000,184.015000,729.819000,162.403000,736.394000,141.481000C742.969000,120.559000,763.094000,108.249000,763.094000,108.249000C763.094000,108.249000,772.562000,129.861000,765.986000,150.783000Z" transform="matrix(1 0 0 1 -72.23800000000000 -23.97200000000000)" fill="rgb(0,191,166)" stroke="none" stroke-width="1"/><path id="elqd3as6tp241" d="M956.737000,383.637000C944.826000,402.051000,922.145000,408.554000,922.145000,408.554000C922.145000,408.554000,918.777000,385.201000,930.688000,366.787000C942.599000,348.373000,965.280000,341.870000,965.280000,341.870000C965.280000,341.870000,968.648000,365.222000,956.737000,383.637000Z" transform="matrix(1 0 0 1 -72.23800000000000 -23.97200000000000)" fill="rgb(0,191,166)" stroke="none" stroke-width="1"/><path id="elqd3as6tp242" d="M657.273000,534.211000C657.273000,534.211000,655.360000,541.226000,659.186000,543.778000C663.012000,546.330000,664.286000,558.447000,664.286000,558.447000L656.633000,579.493000L636.224000,583.320000L628.571000,568.651000L628.571000,546.967000C628.571000,546.967000,631.122000,536.125000,630.484000,532.936000C629.846000,529.747000,657.273000,534.211000,657.273000,534.211000Z" transform="matrix(1 0 0 1 -72.23800000000000 -23.97200000000000)" fill="rgb(255,185,185)" stroke="none" stroke-width="1"/><path id="elqd3as6tp243" d="M657.273000,534.211000C657.273000,534.211000,655.360000,541.226000,659.186000,543.778000C663.012000,546.330000,664.286000,558.447000,664.286000,558.447000L656.633000,579.493000L636.224000,583.320000L628.571000,568.651000L628.571000,546.967000C628.571000,546.967000,631.122000,536.125000,630.484000,532.936000C629.846000,529.747000,657.273000,534.211000,657.273000,534.211000Z" transform="matrix(1 0 0 1 -72.23800000000000 -23.97200000000000)" opacity="0.2" fill="rgb(0,0,0)" stroke="none" stroke-width="1"/><path id="elqd3as6tp244" d="M677.682000,654.750000L694.264000,657.939000C694.264000,657.939000,695.540000,676.439000,694.264000,680.899000C692.988000,685.359000,691.713000,690.466000,692.988000,691.741000C694.263000,693.016000,687.248000,725.541000,687.888000,727.456000C688.528000,729.371000,689.801000,735.109000,689.164000,738.936000C688.527000,742.763000,686.613000,741.487000,687.888000,745.314000C689.163000,749.141000,690.439000,749.778000,689.164000,752.330000C687.889000,754.882000,681.511000,816.745000,679.597000,817.383000C677.683000,818.021000,660.464000,818.659000,660.464000,817.383000C660.464000,816.107000,666.204000,806.541000,664.291000,803.990000C662.378000,801.439000,664.929000,758.070000,664.929000,756.157000C664.929000,754.244000,668.756000,751.057000,666.842000,749.779000C664.928000,748.501000,663.653000,747.228000,664.291000,745.315000C664.929000,743.402000,666.204000,742.764000,664.929000,740.851000C663.654000,738.938000,663.653000,700.671000,659.189000,699.396000C659.189000,699.396000,653.449000,727.458000,655.362000,734.473000C657.275000,741.488000,654.724000,744.040000,654.724000,744.040000L663.653000,751.693000L651.535000,774.653000L638.780000,759.984000C638.780000,759.984000,638.780000,756.157000,636.229000,755.520000C633.678000,754.883000,632.402000,754.244000,632.402000,752.331000C632.402000,750.418000,627.938000,738.300000,627.938000,738.300000C627.938000,738.300000,615.183000,698.120000,621.560000,677.712000C627.937000,657.304000,630.395000,657.979000,630.395000,657.979000Z" transform="matrix(1 0 0 1 -72.23800000000000 -23.97200000000000)" fill="rgb(47,46,65)" stroke="none" stroke-width="1"/><path id="elqd3as6tp245" d="M615.648000,762.800000L622.664000,770.453000L620.113000,791.500000L614.373000,791.500000L605.444000,771.729000Z" fill="rgb(255,185,185)" stroke="none" stroke-width="1"/><path id="elqd3as6tp246" d="M692.351000,800.800000C692.351000,800.800000,689.800000,806.540000,687.887000,805.264000C685.974000,803.988000,685.339000,802.075000,682.468000,802.075000C679.597000,802.075000,677.045000,802.713000,677.683000,803.988000C678.321000,805.263000,685.974000,819.295000,685.974000,819.295000C688.247644,824.144044,688.247644,829.752956,685.974000,834.602000C682.147000,842.893000,696.174000,847.357000,698.729000,838.429000C701.284000,829.501000,701.918000,819.296000,701.280000,815.469000C700.642000,811.642000,704.469000,791.869000,704.469000,791.869000C704.469000,791.869000,694.169000,787.119000,691.026000,786.943000C691.026000,786.945000,693.626000,798.249000,692.351000,800.800000Z" transform="matrix(1 0 0 1 -72.23800000000000 -23.97200000000000)" fill="rgb(47,46,65)" stroke="none" stroke-width="1"/><path id="elqd3as6tp247" d="M675.131000,814.831000L677.682000,822.484000C677.682000,822.484000,677.682000,830.137000,680.233000,833.964000C682.784000,837.791000,685.333000,846.082000,675.133000,846.719000C664.933000,847.356000,660.464000,843.530000,660.464000,843.530000C660.464000,843.530000,662.377000,838.430000,660.464000,836.514000C658.551000,834.598000,660.464000,830.774000,660.464000,830.774000L662.377000,815.467000Z" transform="matrix(1 0 0 1 -72.23800000000000 -23.97200000000000)" fill="rgb(47,46,65)" stroke="none" stroke-width="1"/><path id="elqd3as6tp248" d="M657.911000,751.054000L663.651000,751.054000L692.351000,788.683000C692.351000,788.683000,687.251000,800.801000,679.596000,802.076000C679.596000,802.076000,678.320000,801.438000,672.580000,797.612000C666.840000,793.786000,651.534000,774.652000,651.534000,774.652000L649.621000,763.810000Z" transform="matrix(1 0 0 1 -72.23800000000000 -23.97200000000000)" fill="rgb(47,46,65)" stroke="none" stroke-width="1"/><circle id="elqd3as6tp249" r="20.409000" transform="matrix(1 0 0 1 571.64199999999994 498.12099999999998)" fill="rgb(255,185,185)" stroke="none" stroke-width="1"/><path id="elqd3as6tp250" d="M668.753000,548.242000L662.375000,545.691000C662.375000,545.691000,661.737000,568.013000,649.620000,568.013000C637.503000,568.013000,624.747000,564.824000,624.747000,558.446000C624.747000,552.068000,614.547000,569.926000,614.547000,569.926000C614.547000,569.926000,624.114000,633.703000,623.476000,634.341000C622.838000,634.979000,630.492000,668.781000,630.492000,668.781000C630.492000,668.781000,663.018000,670.057000,673.860000,665.592000C684.702000,661.127000,687.891000,652.837000,687.891000,652.837000L683.427000,596.713000L674.498000,553.345000Z" transform="matrix(1 0 0 1 -72.23800000000000 -23.97200000000000)" fill="rgb(0,191,166)" stroke="none" stroke-width="1"/><path id="elqd3as6tp251" d="M657.915000,542.500000C657.915000,542.500000,660.462000,539.949000,664.289000,542.500000C668.116000,545.051000,691.713000,550.791000,691.713000,552.700000L691.713000,576.935000C691.713000,576.935000,692.351000,580.762000,690.437000,583.313000C688.523000,585.864000,684.059000,595.431000,686.610000,599.895000C689.161000,604.359000,698.728000,656.019000,696.810000,662.395000C694.892000,668.771000,689.794000,674.513000,689.794000,674.513000C689.794000,674.513000,662.370000,616.476000,662.370000,599.894000C662.370000,583.312000,662.636000,562.969000,662.636000,562.969000Z" transform="matrix(1 0 0 1 -72.23800000000000 -23.97200000000000)" fill="rgb(87,90,137)" stroke="none" stroke-width="1"/><path id="elqd3as6tp252" d="M685.973000,553.344000L691.713000,553.344000C691.713000,553.344000,713.400000,594.800000,713.400000,603.091000C713.400000,611.382000,699.369000,657.302000,698.093000,657.939000C696.817000,658.576000,692.993000,650.924000,692.993000,650.924000L689.800000,625.413000C689.800000,625.413000,696.178000,610.106000,694.264000,607.555000C692.350000,605.004000,682.784000,585.233000,682.784000,585.233000Z" transform="matrix(1 0 0 1 -72.23800000000000 -23.97200000000000)" fill="rgb(87,90,137)" stroke="none" stroke-width="1"/><path id="elqd3as6tp253" d="M629.517000,542.500000C629.517000,542.500000,622.196000,547.600000,620.917000,549.516000C619.638000,551.432000,600.508000,562.271000,599.871000,564.823000C599.234000,567.375000,614.540000,589.058000,614.540000,589.058000C614.540000,589.058000,620.918000,624.773000,620.918000,627.324000C620.918000,629.875000,623.469000,673.244000,623.469000,673.244000C623.469000,673.244000,649.618000,680.897000,649.618000,676.433000C649.618000,671.969000,650.256000,608.191000,646.429000,594.160000C642.602000,580.129000,629.517000,542.500000,629.517000,542.500000Z" transform="matrix(1 0 0 1 -72.23800000000000 -23.97200000000000)" fill="rgb(87,90,137)" stroke="none" stroke-width="1"/><path id="elqd3as6tp254" d="M633.676000,674.521000C633.676000,674.521000,655.360000,703.859000,643.876000,703.221000C632.392000,702.583000,624.743000,677.710000,624.743000,677.710000Z" transform="matrix(1 0 0 1 -72.23800000000000 -23.97200000000000)" fill="rgb(255,185,185)" stroke="none" stroke-width="1"/><path id="elqd3as6tp255" d="M607.527000,562.911000L599.874000,564.824000C599.874000,564.824000,593.496000,620.948000,597.323000,628.601000C601.150000,636.254000,621.558000,686.001000,621.558000,684.087000C621.558000,682.173000,639.511000,678.763000,638.826000,676.961000C638.141000,675.159000,634.314000,667.505000,633.038000,664.954000C631.762000,662.403000,629.849000,659.214000,630.487000,656.025000C631.125000,652.836000,623.471000,639.187000,623.471000,639.187000C623.471000,639.187000,621.558000,631.152000,620.920000,627.325000C620.282000,623.498000,614.542000,581.405000,614.542000,581.405000Z" transform="matrix(1 0 0 1 -72.23800000000000 -23.97200000000000)" fill="rgb(87,90,137)" stroke="none" stroke-width="1"/><path id="elqd3as6tp256" d="M663.891000,506.300000C663.500998,505.100053,662.677748,504.088549,661.582000,503.463000C661.639045,502.196086,661.473886,500.928964,661.094000,499.719000C659.824000,496.184000,656.814000,496.387000,653.975000,494.819000C652.743000,494.141000,652.819000,493.542000,652.175000,492.428000C651.314097,490.948147,650.055442,489.739381,648.542000,488.939000C646.790548,487.695884,644.767972,486.888225,642.642000,486.583000C638.113000,486.292000,634.642000,490.302000,630.312000,491.589000C628.404000,492.156000,626.354000,492.180000,624.436000,492.716000C622.518000,493.252000,620.604000,494.532000,620.318000,496.396000C620.186000,497.257000,620.418000,498.139000,620.285000,498.996000C620.019000,500.706000,618.425000,501.903000,617.358000,503.310000C614.999000,506.420000,615.269000,510.810000,617.158000,514.197000C617.557558,514.898690,618.012327,515.567468,618.518000,516.197000C618.678103,517.805238,619.166871,519.363444,619.954000,520.775000C621.841000,524.159000,625.087000,526.687000,628.479000,528.788000C628.202594,527.667777,628.035149,526.523453,627.979000,525.371000C627.931123,524.986696,627.984199,524.596548,628.133000,524.239000C628.511000,523.496000,629.509000,523.298000,630.270000,522.891000C631.746472,521.920898,632.598765,520.241423,632.510000,518.477000C632.556000,516.771000,632.171000,515.063000,632.361000,513.366000C632.382014,512.565456,632.753465,511.814510,633.377000,511.312000C633.964723,510.998184,634.626532,510.849579,635.292000,510.882000C638.521000,510.758000,641.892000,510.702000,644.744000,509.265000C645.668396,508.688264,646.655410,508.218576,647.686000,507.865000C650.107000,507.271000,652.581000,508.865000,653.976000,510.822000C655.371000,512.779000,656.067000,515.102000,657.354000,517.122000C658.641000,519.142000,660.865000,520.942000,663.354000,520.702000C663.633751,520.704181,663.902215,520.591809,664.097000,520.391000C664.204606,520.210375,664.252543,520.000429,664.234000,519.791000L664.373000,510.837000C664.485884,509.307996,664.322614,507.771158,663.891000,506.300000Z" transform="matrix(1 0 0 1 -72.23800000000000 -23.97200000000000)" fill="rgb(47,46,65)" stroke="none" stroke-width="1"/><ellipse id="elqd3as6tp257" rx="125.477000" ry="8.939000" transform="matrix(1 0 0 1 930.04599999999994 843.11599999999999)" fill="rgb(63,61,86)" stroke="none" stroke-width="1"/><g id="elqd3as6tp258_to" transform="translate(49.190313,-4.805357)"><g id="elqd3as6tp258" transform="translate(0,0)"><path id="elqd3as6tp259" d="M958.366000,846.137000C958.366000,846.137000,947.654000,855.158000,942.016000,854.594000C936.378000,854.030000,925.666000,854.030000,930.176000,860.232000C934.686000,866.434000,953.292000,869.817000,961.185000,870.380000C969.078000,870.943000,986.556000,871.508000,985.429000,868.125000C984.302000,864.742000,983.174000,848.956000,978.663000,847.825000C974.152000,846.694000,958.366000,846.137000,958.366000,846.137000Z" transform="matrix(1 0 0 1 -72.23800000000000 -23.97200000000000)" fill="rgb(87,90,137)" stroke="none" stroke-width="1"/><path id="elqd3as6tp260" d="M1019.848000,837.280000C1019.848000,837.280000,1011.954000,848.848000,1006.372000,849.820000C1000.790000,850.792000,990.472000,853.671000,996.483000,858.433000C1002.494000,863.195000,1021.324000,861.452000,1029.083000,859.874000C1036.842000,858.296000,1053.824000,854.141000,1051.828000,851.186000C1049.832000,848.231000,1044.504000,833.328000,1039.856000,833.454000C1035.208000,833.580000,1019.848000,837.280000,1019.848000,837.280000Z" transform="matrix(1 0 0 1 -72.23800000000000 -23.97200000000000)" fill="rgb(87,90,137)" stroke="none" stroke-width="1"/><path id="elqd3as6tp261" d="M952.090000,671.841000C952.090000,671.841000,944.834000,721.535000,946.525000,730.556000C948.216000,739.577000,949.344000,753.672000,949.344000,753.672000C949.344000,753.672000,948.216000,765.512000,949.344000,771.150000C950.472000,776.788000,957.237000,830.350000,957.237000,831.477000C957.237000,832.604000,956.109000,835.987000,957.237000,838.806000C958.365000,841.625000,960.620000,839.370000,957.237000,843.880000C953.854000,848.390000,956.109000,849.518000,956.673000,849.518000C957.237000,849.518000,979.225000,851.773000,980.353000,849.518000C981.481000,847.263000,979.789000,846.699000,980.353000,843.880000C980.917000,841.061000,981.481000,840.497000,982.608000,839.933000C983.735000,839.369000,985.991000,840.497000,984.299000,837.678000C982.607000,834.859000,978.661000,831.478000,979.789000,829.785000C980.917000,828.092000,979.225000,815.685000,979.225000,815.685000C979.225000,815.685000,978.097000,788.058000,977.534000,771.144000C976.971000,754.230000,982.608000,736.752000,982.608000,736.752000C983.310237,750.591301,988.450231,763.836631,997.267000,774.527000C1011.926000,792.005000,1019.255000,824.706000,1019.255000,824.706000C1019.255000,824.706000,1022.638000,829.780000,1020.946000,834.291000C1019.254000,838.802000,1014.180000,835.982000,1019.255000,838.801000C1024.330000,841.620000,1041.807000,837.673000,1043.499000,835.982000C1045.191000,834.291000,1041.244000,832.035000,1042.371000,827.525000C1043.498000,823.015000,1048.009000,824.142000,1044.062000,821.887000C1040.115000,819.632000,1038.988000,820.196000,1038.988000,817.940000C1038.988000,815.684000,1028.840000,766.634000,1013.053000,752.540000L1011.925000,701.234000C1011.925000,701.234000,1026.025000,665.150000,1011.361000,661.768000C996.697000,658.386000,952.090000,671.841000,952.090000,671.841000Z" transform="matrix(1 0 0 1 -72.23800000000000 -23.97200000000000)" fill="rgb(47,46,65)" stroke="none" stroke-width="1"/><path id="elqd3as6tp262" d="M962.312000,538.300000C962.312000,538.300000,971.897000,561.980000,969.642000,565.363000C967.387000,568.746000,997.268000,554.087000,997.268000,554.087000C997.268000,554.087000,987.683000,530.407000,987.683000,527.587000C987.683000,524.767000,962.312000,538.300000,962.312000,538.300000Z" transform="matrix(1 0 0 1 -72.23800000000000 -23.97200000000000)" fill="rgb(160,97,106)" stroke="none" stroke-width="1"/><circle id="elqd3as6tp263" r="20.861000" transform="matrix(1 0 0 1 897.12099999999998 499.38599999999997)" fill="rgb(160,97,106)" stroke="none" stroke-width="1"/><path id="elqd3as6tp264" d="M974.716000,561.415000C974.716000,561.415000,957.802000,568.181000,962.316000,586.222000C966.830000,604.263000,962.316000,603.700000,962.316000,603.700000C962.316000,603.700000,985.432000,601.445000,992.762000,606.519000L994.453000,599.753000C994.453000,599.753000,1001.215000,560.851000,974.716000,561.415000Z" transform="matrix(1 0 0 1 -72.23800000000000 -23.97200000000000)" fill="rgb(0,191,166)" stroke="none" stroke-width="1"/><path id="elqd3as6tp265" d="M997.268000,544.500000C997.268000,544.500000,982.609000,542.809000,975.280000,551.829000C967.951000,560.849000,966.823000,563.105000,966.823000,563.105000C966.823000,563.105000,949.345000,591.295000,952.723000,605.390000C953.547484,606.662707,954.300320,607.980421,954.978000,609.337000C956.106000,611.592000,956.106000,643.165000,954.978000,648.237000C953.850000,653.309000,952.723000,655.003000,953.850000,662.337000C954.977000,669.671000,944.829000,681.506000,956.669000,683.762000C968.509000,686.018000,977.530000,684.326000,981.476000,679.252000C985.422000,674.178000,982.040000,670.795000,994.444000,670.795000C1002.040655,670.663637,1009.301007,667.638968,1014.744000,662.338000C1020.186000,657.038000,1008.544000,655.572000,1010.797000,654.445000C1013.050000,653.318000,1010.797000,650.498000,1009.669000,647.679000C1008.541000,644.860000,1008.541000,642.605000,1010.233000,642.605000C1011.925000,642.605000,1010.797000,641.477000,1009.669000,638.658000C1008.541000,635.839000,1029.402000,587.352000,1016.998000,573.258000C1004.594000,559.164000,998.400000,551.267000,998.400000,551.267000C998.400000,551.267000,1000.651000,542.810000,997.268000,544.500000Z" transform="matrix(1 0 0 1 -72.23800000000000 -23.97200000000000)" fill="rgb(0,191,166)" stroke="none" stroke-width="1"/><path id="elqd3as6tp266" d="M965.131000,598.063000L965.131000,622.870000L947.089000,682.633000C947.089000,682.633000,935.249000,713.642000,947.089000,713.642000C958.929000,713.642000,958.295000,684.042000,958.295000,684.042000L983.737000,639.217000C983.737000,639.217000,993.885000,603.697000,992.758000,600.878000C991.631000,598.059000,965.131000,598.063000,965.131000,598.063000Z" transform="matrix(0.99026800000000 0.13917300000000 -0.13917300000000 0.99026800000000 28.45300000000000 -152.21700000000001)" fill="rgb(160,97,106)" stroke="none" stroke-width="1"/><path id="elqd3as6tp267" d="M962.237000,507.700000C959.592466,508.638146,956.653236,508.180606,954.419000,506.483000C952.219307,504.687976,951.492048,501.643394,952.643000,499.048000C953.723000,496.929000,956.032000,495.767000,958.243000,494.900000C963.127439,492.989367,968.272491,491.827592,973.504000,491.454000C975.998000,491.277000,978.617000,491.305000,980.843000,492.444000C981.943000,493.008000,982.901000,493.821000,983.991000,494.405000C985.996000,495.479000,988.330000,495.718000,990.498000,496.405000C994.984526,497.868579,998.615591,501.206328,1000.451000,505.554000C1001.040247,507.013039,1001.451869,508.537655,1001.677000,510.095000C1002.324890,514.359170,1001.871881,518.718179,1000.361000,522.758000C997.961000,529.158000,992.917000,534.751000,992.633000,541.581000C989.548000,539.343000,988.404000,535.303000,985.933000,532.402000C984.093618,530.257860,981.581490,528.800854,978.807000,528.269000C978.038836,528.222054,977.300890,527.952794,976.683000,527.494000C976.252463,526.979801,975.982606,526.350368,975.907000,525.684000L973.796000,515.717000C973.366000,513.689000,972.823000,511.477000,971.156000,510.244000C970.117847,509.579978,968.940135,509.165161,967.715000,509.032000C964.803855,508.524493,961.855946,508.256927,958.901000,508.232000" transform="matrix(1 0 0 1 -72.23800000000000 -23.97200000000000)" fill="rgb(47,46,65)" stroke="none" stroke-width="1"/></g></g></g></g></g></svg>