<svg width="888" height="556" viewBox="0 0 888 556" fill="none" xmlns="http://www.w3.org/2000/svg">
<g id="undraw_photograph_rde1 1">
<g clip-path="url(#clip0)">
<path id="left-leaf" d="M819.693 505.298C815.158 522.063 799.624 532.446 799.624 532.446C799.624 532.446 791.443 515.648 795.978 498.883C800.513 482.118 816.047 471.735 816.047 471.735C816.047 471.735 824.229 488.533 819.693 505.298Z" fill="#6C63FF"/>
<path id="right-leaf" d="M809.049 533.533C805.805 533.558 802.565 533.289 799.369 532.729L798.245 532.507L798.619 531.423C798.873 530.687 805.01 513.305 820.222 504.57C835.434 495.836 853.54 499.301 854.303 499.452L855.427 499.675L855.053 500.759C854.799 501.494 848.662 518.877 833.45 527.61C825.066 532.425 815.803 533.533 809.049 533.533ZM800.942 530.958C805.189 531.56 820.063 532.99 832.454 525.876C844.846 518.761 851.108 505.195 852.729 501.224C848.482 500.622 833.608 499.189 821.218 506.305C808.826 513.42 802.563 526.986 800.942 530.958Z" fill="#3F3D56"/>
<path id="Vector" d="M888 531.164H0V533.405H888V531.164Z" fill="#3F3D56"/>
<path id="Vector_2" d="M229.39 515.754C220.71 517.332 222.288 520.489 222.288 520.489L225.05 526.012L217.948 488.136L234.519 487.741L239.253 522.067C236.78 520.623 233.887 514.936 229.39 515.754Z" fill="#FFB8B8"/>
<path id="Vector_3" d="M218.456 518.865L222.288 517.332C222.288 517.332 220.71 514.176 229.39 512.598C233.046 511.931 236.819 512.616 240.008 514.525L243.199 531.931C243.199 531.931 258.192 555.604 239.253 555.604C220.315 555.604 219.526 550.08 219.526 550.08V543.767C219.526 543.767 214.791 546.134 214.002 539.822C213.213 533.509 218.737 520.094 218.737 520.094L218.456 518.865Z" fill="#2F2E41"/>
<path id="Vector_4" d="M116.548 515.754C125.228 517.332 123.65 520.489 123.65 520.489L120.888 526.012L127.99 492.081L111.419 487.741L106.685 522.067C109.158 520.623 112.051 514.936 116.548 515.754Z" fill="#FFB8B8"/>
<path id="Vector_5" d="M196.247 131.462C209.54 131.462 220.315 120.687 220.315 107.395C220.315 94.1024 209.54 83.327 196.247 83.327C182.955 83.327 172.18 94.1024 172.18 107.395C172.18 120.687 182.955 131.462 196.247 131.462Z" fill="#FFB8B8"/>
<path id="Vector_6" d="M185.2 124.755C185.2 124.755 189.146 142.115 174.942 148.428C160.738 154.741 221.499 156.319 221.499 156.319C221.499 156.319 206.506 139.748 210.451 122.387L185.2 124.755Z" fill="#FFB8B8"/>
<path id="Vector_7" d="M179.676 145.271L148.901 151.584L156.003 198.141C156.003 198.141 165.473 219.447 159.949 228.127C154.425 236.807 161.527 239.963 161.527 239.963L232.546 243.909C232.546 243.909 240.437 239.963 238.859 236.018C237.281 232.072 238.464 201.692 238.464 201.692C238.464 201.692 238.464 198.536 240.437 188.672L240.042 156.713L218.99 153.144C218.99 153.144 207.295 157.897 179.676 145.271Z" fill="#6C63FF"/>
<path id="Vector_8" d="M161.527 237.596L122.072 403.307L99.188 485.374L150.48 501.945C150.48 501.945 200.193 355.961 197.037 325.186L195.458 501.945L250.695 498.788C250.695 498.788 264.11 266.004 232.546 239.174L161.527 237.596Z" fill="#2F2E41"/>
<path id="Vector_9" d="M133.909 180.781L118.916 229.705C118.487 231.434 118.405 233.232 118.676 234.993C118.947 236.753 119.565 238.443 120.494 239.963C123.049 244.435 143.188 273.731 150.766 284.727C151.087 285.193 151.517 285.574 152.018 285.838C152.519 286.101 153.076 286.24 153.642 286.241C154.208 286.242 154.766 286.105 155.268 285.843C155.77 285.581 156.201 285.202 156.524 284.737L166.262 270.738C166.262 270.738 175.731 276.262 178.098 273.895C178.986 273.007 177.099 271.232 174.395 269.359C168.275 265.166 161.162 262.652 153.767 262.069L153.636 262.058L137.065 232.862L153.636 191.828L133.909 180.781Z" fill="#FFB8B8"/>
<path id="Vector_10" d="M155.214 153.952L152.409 150.865L148.901 151.584C148.901 151.584 141.8 153.952 137.854 164.999C133.909 176.046 121.283 200.508 121.283 200.508L144.956 214.712L159.949 182.359L155.214 153.952Z" fill="#6C63FF"/>
<path id="Vector_11" d="M258.192 185.121L274.368 232.862C274.797 234.591 274.879 236.388 274.608 238.149C274.337 239.91 273.719 241.599 272.79 243.12C270.235 247.592 250.096 276.887 242.518 287.883C242.197 288.349 241.767 288.731 241.266 288.994C240.765 289.258 240.208 289.396 239.642 289.397C239.076 289.398 238.518 289.262 238.016 289C237.514 288.738 237.083 288.358 236.76 287.893L227.022 273.895C227.022 273.895 217.553 279.419 215.186 277.051C214.298 276.163 216.185 274.388 218.889 272.515C225.009 268.322 232.122 265.808 239.517 265.226L239.648 265.215L256.219 236.018L239.648 194.985L258.192 185.121Z" fill="#FFB8B8"/>
<path id="Vector_12" d="M235.702 159.475L238.508 156.388L242.015 157.108C242.015 157.108 249.117 159.475 253.063 170.523C257.008 181.57 270.817 206.427 270.817 206.427L247.144 216.685L233.73 186.699L235.702 159.475Z" fill="#6C63FF"/>
<path id="Vector_13" d="M196.035 76.5858C196.035 76.5858 171.351 72.1779 166.944 94.2171C165.887 99.3342 165.189 104.519 164.855 109.733C164.161 122.504 160.66 134.965 154.602 146.229L194.272 157.69C194.272 157.69 183.693 140.94 185.456 133.888C185.783 132.119 185.759 130.303 185.384 128.543C181.271 126.009 178.15 122.143 176.539 117.588C174.929 113.033 174.926 108.065 176.531 103.508C178.136 98.9515 181.252 95.0816 185.362 92.542C189.472 90.0024 194.327 88.9461 199.12 89.5488C203.913 90.1515 208.356 92.3768 211.709 95.8546C215.062 99.3325 217.124 103.853 217.551 108.666C217.978 113.478 216.745 118.291 214.057 122.305C211.369 126.319 207.388 129.292 202.776 130.73C199.826 137.149 198.221 144.092 202.206 148.874C207.243 155.029 213.188 160.38 219.838 164.742C219.838 164.742 215.43 143.585 222.482 131.243C229.535 118.901 222.482 78.3488 196.035 76.5858Z" fill="#2F2E41"/>
<path id="Vector_14" d="M217.957 104.858L176.595 107.285L175.458 87.905L211.456 86.611L217.957 104.858Z" fill="#2F2E41"/>
<path id="Vector_15" d="M127.482 518.865L123.65 517.332C123.65 517.332 125.228 514.176 116.548 512.598C112.892 511.931 109.119 512.616 105.93 514.525L102.739 531.931C102.739 531.931 87.7461 555.604 106.685 555.604C125.623 555.604 126.412 550.08 126.412 550.08V543.767C126.412 543.767 131.147 546.135 131.936 539.822C132.725 533.509 127.201 520.094 127.201 520.094L127.482 518.865Z" fill="#2F2E41"/>
<path id="Vector_16" d="M467.202 0C466.599 0.00065116 466.021 0.240384 465.595 0.666595C465.169 1.09281 464.929 1.67068 464.929 2.27344V299.456C464.929 300.059 465.169 300.637 465.595 301.063C466.021 301.489 466.599 301.729 467.202 301.729H881.227C881.829 301.729 882.407 301.489 882.833 301.063C883.26 300.637 883.499 300.059 883.5 299.456V2.27344C883.499 1.67068 883.26 1.09281 882.833 0.666595C882.407 0.240384 881.829 0.00065116 881.227 0H467.202Z" fill="#E6E6E6"/>
<path id="Vector_17" d="M858.366 24.5238V235.718C858.367 236.417 858.229 237.108 857.962 237.753C857.695 238.399 857.303 238.985 856.81 239.479C856.316 239.973 855.73 240.364 855.084 240.631C854.439 240.898 853.748 241.036 853.049 241.036H494.533C494.278 241.038 494.023 241.018 493.771 240.976C492.507 240.794 491.35 240.162 490.513 239.197C489.677 238.231 489.216 236.996 489.216 235.718V24.5238C489.216 23.8255 489.353 23.134 489.62 22.4888C489.887 21.8436 490.279 21.2573 490.773 20.7636C491.267 20.2698 491.853 19.8781 492.498 19.611C493.143 19.3439 493.835 19.2065 494.533 19.2068H853.049C853.748 19.2065 854.439 19.3439 855.084 19.611C855.729 19.8781 856.316 20.2698 856.81 20.7636C857.303 21.2574 857.695 21.8436 857.962 22.4888C858.229 23.134 858.367 23.8255 858.366 24.5238V24.5238Z" fill="white"/>
<path id="Vector_18" d="M579.588 144.779C605.351 144.779 626.236 123.894 626.236 98.1313C626.236 72.3686 605.351 51.4837 579.588 51.4837C553.826 51.4837 532.941 72.3686 532.941 98.1313C532.941 123.894 553.826 144.779 579.588 144.779Z" fill="#FF6584"/>
<path id="Vector_19" d="M725.87 241.882H497.031C496.744 241.886 496.458 241.863 496.176 241.814L604.406 54.3437C605.067 53.1762 606.025 52.2049 607.184 51.5291C608.343 50.8533 609.66 50.4972 611.002 50.4972C612.343 50.4972 613.661 50.8533 614.819 51.5291C615.978 52.2049 616.937 53.1762 617.597 54.3437L690.234 180.151L693.714 186.171L725.87 241.882Z" fill="#3F3D56"/>
<path id="Vector_20" opacity="0.2" d="M725.87 241.882H647.739L686.093 186.171L688.854 182.158L690.234 180.151L693.714 186.171L725.87 241.882Z" fill="black"/>
<path id="Vector_21" d="M853.286 241.882H655.359L693.714 186.171L696.474 182.158L746.453 109.555C749.73 104.797 757.612 104.501 761.464 108.658C761.723 108.941 761.964 109.241 762.184 109.555L853.286 241.882Z" fill="#3F3D56"/>
<path id="Vector_22" d="M475.246 14.9733C478.753 14.9733 481.596 12.1303 481.596 8.62328C481.596 5.11624 478.753 2.27322 475.246 2.27322C471.739 2.27322 468.896 5.11624 468.896 8.62328C468.896 12.1303 471.739 14.9733 475.246 14.9733Z" fill="#6C63FF"/>
<path id="Vector_23" d="M872.336 14.9733C875.844 14.9733 878.687 12.1303 878.687 8.62328C878.687 5.11624 875.844 2.27322 872.336 2.27322C868.829 2.27322 865.986 5.11624 865.986 8.62328C865.986 12.1303 868.829 14.9733 872.336 14.9733Z" fill="#6C63FF"/>
<path id="Vector_24" d="M475.246 299.456C478.753 299.456 481.596 296.613 481.596 293.106C481.596 289.599 478.753 286.756 475.246 286.756C471.739 286.756 468.896 289.599 468.896 293.106C468.896 296.613 471.739 299.456 475.246 299.456Z" fill="#6C63FF"/>
<path id="Vector_25" d="M872.336 299.456C875.844 299.456 878.687 296.613 878.687 293.106C878.687 289.599 875.844 286.756 872.336 286.756C868.829 286.756 865.986 289.599 865.986 293.106C865.986 296.613 868.829 299.456 872.336 299.456Z" fill="#6C63FF"/>
</g>
</g>
<defs>
<clipPath id="clip0">
<rect width="888" height="555.604" fill="white"/>
</clipPath>
</defs>
</svg>
